<svg width="61" height="41" viewBox="0 0 61 41" fill="none" xmlns="http://www.w3.org/2000/svg">
<g filter="url(#filter0_d_158_10230)">
<g clip-path="url(#clip0_158_10230)">
<rect x="7.0274" y="14.9131" width="25.098" height="50.1961" rx="1.00392" transform="rotate(-15.6022 7.0274 14.9131)" fill="white"/>
<g clip-path="url(#clip1_158_10230)">
<path d="M29.3568 30.3527C28.9584 30.1264 28.5191 29.981 28.0642 29.925C27.6094 29.869 27.148 29.9034 26.7065 30.0263C25.8717 30.2596 25.1548 30.7979 24.698 31.5345C23.9256 31.141 23.0336 31.052 22.1987 31.2851C21.7569 31.409 21.344 31.619 20.9837 31.903C20.6234 32.1871 20.3228 32.5396 20.0993 32.9403C19.1443 34.6437 19.727 36.7283 21.4253 37.6847L27.3471 41.0211L30.6835 35.0994C31.6407 33.4014 31.0591 31.3166 29.3568 30.3527Z" fill="#DF1515"/>
</g>
<path d="M11.6075 18.1777L10.8526 18.3885L10.8209 18.6216C10.8108 18.6991 10.8121 18.7605 10.8247 18.8057C10.8415 18.8656 10.8779 18.903 10.9342 18.9178C10.9673 18.9267 11.0406 18.9198 11.1544 18.8971L11.1706 18.9554L10.4599 19.1539L10.4436 19.0956C10.5171 19.0626 10.5713 19.0135 10.6063 18.9482C10.641 18.8819 10.6719 18.7572 10.6989 18.5741L10.9871 16.6555L11.017 16.6471L12.277 18.1844C12.3969 18.3299 12.4865 18.4175 12.5458 18.4474C12.5906 18.47 12.6464 18.4748 12.713 18.4619L12.7292 18.5202L11.6954 18.8089L11.6791 18.7506L11.7217 18.7387C11.8047 18.7155 11.8598 18.6877 11.8869 18.6552C11.9054 18.6319 11.9102 18.6045 11.9014 18.573C11.8961 18.5541 11.8875 18.5355 11.8756 18.5173C11.8709 18.5085 11.8441 18.4735 11.7953 18.4123L11.6075 18.1777ZM11.5214 18.076L10.9975 17.429L10.8752 18.2565L11.5214 18.076Z" fill="#DF1515"/>
<g clip-path="url(#clip2_158_10230)">
<path d="M13.3303 19.8062C13.2378 19.7537 13.1359 19.7199 13.0303 19.7069C12.9247 19.6939 12.8176 19.7019 12.7151 19.7304C12.5213 19.7846 12.3549 19.9095 12.2488 20.0806C12.0695 19.9892 11.8624 19.9685 11.6686 20.0227C11.5661 20.0514 11.4702 20.1002 11.3866 20.1661C11.3029 20.2321 11.2332 20.3139 11.1813 20.4069C10.9596 20.8023 11.0948 21.2863 11.4891 21.5083L12.8638 22.2828L13.6383 20.9081C13.8605 20.5139 13.7255 20.03 13.3303 19.8062Z" fill="#DF1515"/>
</g>
<path d="M34.6401 20.4801L16.4778 48.7561L6.4147 12.7194L30.5879 5.96909L34.6401 20.4801Z" fill="white" fill-opacity="0.16"/>
<path d="M16.4811 48.767L34.6433 20.4909L44.7065 56.5277L20.5332 63.278L16.4811 48.767Z" fill="black" fill-opacity="0.04"/>
</g>
</g>
<g filter="url(#filter1_d_158_10230)">
<g clip-path="url(#clip3_158_10230)">
<rect x="15.1367" y="11.334" width="25.098" height="50.1961" rx="1.00392" transform="rotate(-5.13093 15.1367 11.334)" fill="white"/>
<path d="M29.3563 29.3773C30.6979 29.2568 31.9692 30.3186 32.0844 31.6018C32.1178 32.0548 32.032 32.5086 31.8357 32.9182C31.6393 33.3278 31.3392 33.6789 30.9652 33.9366C31.5223 33.5926 32.3739 33.5162 32.3739 33.5162C33.8321 33.3852 35.0929 34.3304 35.2238 35.7886C35.3547 37.2467 34.2772 38.343 32.819 38.474C32.819 38.474 31.9441 38.5525 30.7252 38.074C30.7252 38.074 30.655 39.2563 32.1536 40.8856L28.654 41.1999C29.8384 39.3296 29.5587 38.1788 29.5587 38.1788C28.4445 38.8668 27.5696 38.9453 27.5696 38.9453C26.1114 39.0763 24.8558 38.1895 24.7249 36.7313C24.5939 35.2731 25.6662 34.1184 27.1244 33.9875C27.1244 33.9875 27.976 33.911 28.5854 34.1503C28.4016 34.0669 27.2553 33.5465 27.0682 32.0522C26.953 30.769 28.0148 29.4977 29.3563 29.3773Z" fill="black"/>
<path d="M19.0473 15.3768L18.2666 15.4469L18.1931 15.6704C18.1691 15.7448 18.1592 15.8054 18.1634 15.8521C18.1689 15.914 18.198 15.9574 18.2506 15.9823C18.2815 15.997 18.355 16.0036 18.4709 16.0019L18.4763 16.0622L17.7413 16.1282L17.7359 16.0679C17.8142 16.0488 17.8764 16.0104 17.9227 15.9526C17.9689 15.8937 18.0219 15.7767 18.0817 15.6015L18.7138 13.7672L18.7448 13.7645L19.7044 15.5051C19.7959 15.6699 19.868 15.7724 19.9209 15.8126C19.9609 15.8429 20.0148 15.8578 20.0826 15.8572L20.0881 15.9175L19.019 16.0135L19.0136 15.9532L19.0576 15.9492C19.1434 15.9415 19.2026 15.9242 19.2353 15.8971C19.2576 15.8776 19.2673 15.8516 19.2644 15.819C19.2626 15.7994 19.2576 15.7796 19.2492 15.7595C19.2461 15.75 19.2262 15.7107 19.1893 15.6417L19.0473 15.3768ZM18.981 15.2612L18.5835 14.5297L18.3129 15.3212L18.981 15.2612Z" fill="black"/>
<path d="M19.3006 17.0136C19.612 16.9857 19.9071 17.2322 19.9339 17.53C19.9416 17.6352 19.9217 17.7406 19.8762 17.8356C19.8306 17.9307 19.7609 18.0122 19.6741 18.072C19.8034 17.9922 20.0011 17.9744 20.0011 17.9744C20.3396 17.944 20.6323 18.1634 20.6627 18.502C20.6931 18.8405 20.4429 19.095 20.1044 19.1254C20.1044 19.1254 19.9013 19.1436 19.6184 19.0325C19.6184 19.0325 19.6021 19.307 19.95 19.6852L19.1375 19.7582C19.4125 19.324 19.3476 19.0568 19.3476 19.0568C19.0889 19.2165 18.8858 19.2348 18.8858 19.2348C18.5473 19.2652 18.2558 19.0593 18.2254 18.7208C18.195 18.3823 18.444 18.1143 18.7825 18.0839C18.7825 18.0839 18.9802 18.0661 19.1216 18.1217C19.079 18.1023 18.8129 17.9815 18.7694 17.6346C18.7427 17.3367 18.9892 17.0416 19.3006 17.0136Z" fill="black"/>
<path d="M41.2778 21.8262L18.2791 46.3305L14.9329 9.06499L39.9304 6.82042L41.2778 21.8262Z" fill="white" fill-opacity="0.16"/>
<path d="M18.2802 46.3428L41.2789 21.8384L44.625 59.104L19.6276 61.3485L18.2802 46.3428Z" fill="black" fill-opacity="0.04"/>
</g>
</g>
<g filter="url(#filter2_d_158_10230)">
<g clip-path="url(#clip4_158_10230)">
<rect x="24.2017" y="9.7002" width="25.098" height="50.1961" rx="1.00392" transform="rotate(2.7918 24.2017 9.7002)" fill="white"/>
<path d="M35.3676 29.4641L30.5196 34.3863C30.4459 34.4603 30.4 34.5575 30.3899 34.6614C30.3792 34.7641 30.4065 34.8592 30.466 34.9466L34.7664 41.2164C34.8145 41.2882 34.8819 41.3487 34.9595 41.3919C35.0387 41.4352 35.1266 41.46 35.2168 41.4644C35.3069 41.4688 35.3969 41.4527 35.4799 41.4173C35.5613 41.3828 35.6334 41.3294 35.6901 41.2615L40.5801 35.4398C40.6462 35.3628 40.6826 35.2648 40.6827 35.1633C40.6827 35.0589 40.6465 34.9577 40.5803 34.8769L36.2342 29.5063C36.1829 29.4442 36.1188 29.3937 36.0463 29.3583C35.936 29.3043 35.8117 29.2855 35.6903 29.3044C35.569 29.3233 35.4563 29.379 35.3676 29.4641Z" fill="#DF1515"/>
<path d="M27.5177 14.2441L26.7348 14.2059L26.6312 14.4171C26.5971 14.4875 26.579 14.5461 26.5767 14.593C26.5737 14.6551 26.5965 14.7021 26.6452 14.7339C26.6738 14.7528 26.7456 14.7694 26.8606 14.7837L26.8577 14.8442L26.1206 14.8083L26.1236 14.7478C26.2037 14.7397 26.2707 14.7102 26.3245 14.6593C26.3783 14.6073 26.447 14.4987 26.5304 14.3335L27.4093 12.6039L27.4403 12.6054L28.1508 14.4617C28.2187 14.6375 28.2761 14.749 28.3229 14.7961C28.3583 14.8317 28.4097 14.8538 28.477 14.8626L28.474 14.923L27.4019 14.8707L27.4049 14.8103L27.449 14.8124C27.5351 14.8166 27.5961 14.8076 27.6321 14.7853C27.657 14.7691 27.6702 14.7446 27.6718 14.7119C27.6727 14.6923 27.6704 14.672 27.6649 14.6509C27.6632 14.641 27.6489 14.5994 27.6219 14.526L27.5177 14.2441ZM27.468 14.1204L27.1751 13.3411L26.7979 14.0877L27.468 14.1204Z" fill="#DF1515"/>
<g clip-path="url(#clip5_158_10230)">
<path d="M27.4428 15.883L26.3174 17.0256C26.3003 17.0428 26.2897 17.0654 26.2873 17.0895C26.2848 17.1133 26.2912 17.1354 26.305 17.1557L27.3033 18.6112C27.3144 18.6279 27.3301 18.6419 27.3481 18.6519C27.3665 18.662 27.3869 18.6677 27.4078 18.6688C27.4288 18.6698 27.4496 18.666 27.4689 18.6578C27.4878 18.6498 27.5045 18.6374 27.5177 18.6217L28.6529 17.2702C28.6682 17.2523 28.6767 17.2296 28.6767 17.206C28.6767 17.1818 28.6683 17.1583 28.6529 17.1395L27.644 15.8928C27.6321 15.8784 27.6172 15.8666 27.6004 15.8584C27.5748 15.8459 27.5459 15.8415 27.5178 15.8459C27.4896 15.8503 27.4634 15.8632 27.4428 15.883Z" fill="#DF1515"/>
</g>
<path d="M48.6472 23.6958L22.4903 44.7961L24.3127 7.42507L49.381 8.64752L48.6472 23.6958Z" fill="white" fill-opacity="0.16"/>
<path d="M22.4897 44.8081L48.6466 23.7078L46.8242 61.0788L21.7559 59.8564L22.4897 44.8081Z" fill="black" fill-opacity="0.04"/>
</g>
</g>
<g filter="url(#filter3_d_158_10230)">
<g clip-path="url(#clip6_158_10230)">
<rect x="31.3652" y="9.24316" width="25.098" height="50.1961" rx="0.501961" transform="rotate(9.74446 31.3652 9.24316)" fill="white"/>
<path d="M40.4764 30.331C38.2493 32.9195 35.1652 33.5783 34.6696 36.4641C34.4713 37.6185 35.4275 38.9711 36.5818 39.1693C37.159 39.2684 37.7361 39.3676 38.4124 38.8895C38.4124 38.8895 38.3989 40.0756 36.7625 41.5771L40.2255 42.1718C39.3685 40.2421 39.5668 39.0877 39.5668 39.0877C40.0448 39.764 40.622 39.8631 41.1992 39.9623C42.3535 40.1605 43.7061 39.2044 43.9043 38.0501C44.3999 35.1642 41.7123 33.5143 40.4764 30.331Z" fill="black"/>
<path d="M34.1067 14.1542L33.3343 14.0215L33.2058 14.2186C33.1635 14.2844 33.1384 14.3404 33.1304 14.3866C33.1199 14.4479 33.1369 14.4973 33.1814 14.5348C33.2074 14.557 33.2767 14.5822 33.3892 14.6104L33.3789 14.67L32.6516 14.5451L32.6619 14.4855C32.7424 14.4871 32.8124 14.4659 32.872 14.4219C32.9318 14.3769 33.0131 14.2774 33.1159 14.1235L34.1976 12.5129L34.2283 12.5182L34.7089 14.4469C34.755 14.6296 34.7984 14.7472 34.8392 14.7996C34.8701 14.8392 34.9183 14.8674 34.9841 14.8843L34.9738 14.9439L33.9159 14.7623L33.9262 14.7026L33.9697 14.7101C34.0547 14.7246 34.1164 14.7231 34.1548 14.7053C34.1814 14.6922 34.1975 14.6695 34.203 14.6372C34.2064 14.6179 34.2066 14.5974 34.2036 14.5759C34.2031 14.5659 34.1939 14.5228 34.176 14.4467L34.1067 14.1542ZM34.0724 14.0254L33.8759 13.2164L33.4112 13.9119L34.0724 14.0254Z" fill="black"/>
<g clip-path="url(#clip7_158_10230)">
<path d="M33.9314 15.8013C33.4144 16.4022 32.6985 16.5551 32.5834 17.225C32.5374 17.493 32.7594 17.807 33.0273 17.853C33.1613 17.876 33.2953 17.899 33.4523 17.7881C33.4523 17.7881 33.4492 18.0634 33.0693 18.412L33.8732 18.55C33.6743 18.102 33.7203 17.8341 33.7203 17.8341C33.8313 17.9911 33.9653 18.0141 34.0992 18.0371C34.3672 18.0831 34.6812 17.8612 34.7272 17.5932C34.8423 16.9232 34.2184 16.5402 33.9314 15.8013Z" fill="black"/>
</g>
<path d="M53.9367 26.0942L25.4181 43.8731L31.7508 6.99751L56.4867 11.2455L53.9367 26.0942Z" fill="white" fill-opacity="0.16"/>
<path d="M25.416 43.8853L53.9347 26.1063L47.6019 62.982L22.866 58.734L25.416 43.8853Z" fill="black" fill-opacity="0.04"/>
</g>
</g>
<defs>
<filter id="filter0_d_158_10230" x="-0.502007" y="0.633674" width="52.7326" height="70.1555" filterUnits="userSpaceOnUse" color-interpolation-filters="sRGB">
<feFlood flood-opacity="0" result="BackgroundImageFix"/>
<feColorMatrix in="SourceAlpha" type="matrix" values="0 0 0 0 0 0 0 0 0 0 0 0 0 0 0 0 0 0 127 0" result="hardAlpha"/>
<feMorphology radius="2.5098" operator="dilate" in="SourceAlpha" result="effect1_dropShadow_158_10230"/>
<feOffset/>
<feGaussianBlur stdDeviation="2.5098"/>
<feComposite in2="hardAlpha" operator="out"/>
<feColorMatrix type="matrix" values="0 0 0 0 0 0 0 0 0 0 0 0 0 0 0 0 0 0 0.05 0"/>
<feBlend mode="normal" in2="BackgroundImageFix" result="effect1_dropShadow_158_10230"/>
<feBlend mode="normal" in="SourceGraphic" in2="effect1_dropShadow_158_10230" result="shape"/>
</filter>
<filter id="filter1_d_158_10230" x="7.35633" y="1.30945" width="45.0474" height="67.8" filterUnits="userSpaceOnUse" color-interpolation-filters="sRGB">
<feFlood flood-opacity="0" result="BackgroundImageFix"/>
<feColorMatrix in="SourceAlpha" type="matrix" values="0 0 0 0 0 0 0 0 0 0 0 0 0 0 0 0 0 0 127 0" result="hardAlpha"/>
<feMorphology radius="2.5098" operator="dilate" in="SourceAlpha" result="effect1_dropShadow_158_10230"/>
<feOffset/>
<feGaussianBlur stdDeviation="2.63529"/>
<feComposite in2="hardAlpha" operator="out"/>
<feColorMatrix type="matrix" values="0 0 0 0 0 0 0 0 0 0 0 0 0 0 0 0 0 0 0.15 0"/>
<feBlend mode="normal" in2="BackgroundImageFix" result="effect1_dropShadow_158_10230"/>
<feBlend mode="normal" in="SourceGraphic" in2="effect1_dropShadow_158_10230" result="shape"/>
</filter>
<filter id="filter2_d_158_10230" x="16.2353" y="5.68451" width="37.5523" height="61.3986" filterUnits="userSpaceOnUse" color-interpolation-filters="sRGB">
<feFlood flood-opacity="0" result="BackgroundImageFix"/>
<feColorMatrix in="SourceAlpha" type="matrix" values="0 0 0 0 0 0 0 0 0 0 0 0 0 0 0 0 0 0 127 0" result="hardAlpha"/>
<feOffset dx="-0.501961" dy="1.00392"/>
<feGaussianBlur stdDeviation="2.5098"/>
<feComposite in2="hardAlpha" operator="out"/>
<feColorMatrix type="matrix" values="0 0 0 0 0 0 0 0 0 0 0 0 0 0 0 0 0 0 0.15 0"/>
<feBlend mode="normal" in2="BackgroundImageFix" result="effect1_dropShadow_158_10230"/>
<feBlend mode="normal" in="SourceGraphic" in2="effect1_dropShadow_158_10230" result="shape"/>
</filter>
<filter id="filter3_d_158_10230" x="17.3477" y="5.22748" width="43.2711" height="63.7589" filterUnits="userSpaceOnUse" color-interpolation-filters="sRGB">
<feFlood flood-opacity="0" result="BackgroundImageFix"/>
<feColorMatrix in="SourceAlpha" type="matrix" values="0 0 0 0 0 0 0 0 0 0 0 0 0 0 0 0 0 0 127 0" result="hardAlpha"/>
<feOffset dx="-0.501961" dy="1.00392"/>
<feGaussianBlur stdDeviation="2.5098"/>
<feComposite in2="hardAlpha" operator="out"/>
<feColorMatrix type="matrix" values="0 0 0 0 0 0 0 0 0 0 0 0 0 0 0 0 0 0 0.15 0"/>
<feBlend mode="normal" in2="BackgroundImageFix" result="effect1_dropShadow_158_10230"/>
<feBlend mode="normal" in="SourceGraphic" in2="effect1_dropShadow_158_10230" result="shape"/>
</filter>
<clipPath id="clip0_158_10230">
<rect x="7.0274" y="14.9131" width="25.098" height="50.1961" rx="1.00392" transform="rotate(-15.6022 7.0274 14.9131)" fill="white"/>
</clipPath>
<clipPath id="clip1_158_10230">
<rect width="14.0549" height="14.0549" fill="white" transform="translate(17.2058 30.833) rotate(-15.6022)"/>
</clipPath>
<clipPath id="clip2_158_10230">
<rect width="3.26275" height="3.26275" fill="white" transform="translate(10.5096 19.918) rotate(-15.6022)"/>
</clipPath>
<clipPath id="clip3_158_10230">
<rect x="15.1367" y="11.334" width="25.098" height="50.1961" rx="1.00392" transform="rotate(-5.13093 15.1367 11.334)" fill="white"/>
</clipPath>
<clipPath id="clip4_158_10230">
<rect x="24.2017" y="9.7002" width="25.098" height="50.1961" rx="1.00392" transform="rotate(2.7918 24.2017 9.7002)" fill="white"/>
</clipPath>
<clipPath id="clip5_158_10230">
<rect width="3.26275" height="3.26275" fill="white" transform="translate(25.9268 15.5479) rotate(2.7918)"/>
</clipPath>
<clipPath id="clip6_158_10230">
<rect x="31.3652" y="9.24316" width="25.098" height="50.1961" rx="1.00392" transform="rotate(9.74446 31.3652 9.24316)" fill="white"/>
</clipPath>
<clipPath id="clip7_158_10230">
<rect width="3.26275" height="3.26275" fill="white" transform="translate(32.3696 15.2568) rotate(9.74446)"/>
</clipPath>
</defs>
</svg>
