<svg width="61" height="26" viewBox="0 0 61 26" fill="none" xmlns="http://www.w3.org/2000/svg">
<g clip-path="url(#clip0_24_45)">
<path d="M11.6549 3.85947C10.9554 4.68727 9.83585 5.34043 8.71644 5.24703C8.57653 4.12775 9.12452 2.93827 9.76589 2.20362C10.4654 1.3525 11.6899 0.7461 12.6811 0.699463C12.7976 1.8655 12.3428 3.00823 11.6549 3.85947ZM12.6695 5.46868C11.0486 5.3754 9.66107 6.38976 8.89145 6.38976C8.11028 6.38976 6.93246 5.51531 5.64983 5.53863C3.98244 5.56195 2.43153 6.50635 1.58028 8.01063C-0.168835 11.0191 1.12557 15.4735 2.81628 17.9221C3.6442 19.1348 4.63536 20.4641 5.94131 20.4175C7.17742 20.3708 7.66711 19.613 9.15973 19.613C10.6639 19.613 11.0954 20.4175 12.4013 20.3941C13.7539 20.3708 14.6052 19.1816 15.4331 17.9688C16.3775 16.5929 16.7624 15.2518 16.7857 15.1819C16.7624 15.1586 14.1738 14.1675 14.1505 11.1823C14.1271 8.68698 16.1911 7.49762 16.2843 7.42766C15.1182 5.70186 13.2992 5.51531 12.6695 5.46868ZM22.033 2.08703V20.266H24.8548V14.0509H28.7611C32.3292 14.0509 34.8363 11.6023 34.8363 8.05738C34.8363 4.51262 32.3758 2.08715 28.8544 2.08715L22.033 2.08703ZM24.8548 4.46587H28.1081C30.5569 4.46587 31.9561 5.77182 31.9561 8.06892C31.9561 10.366 30.5569 11.6838 28.0964 11.6838H24.8548V4.46587ZM39.9902 20.4058C41.7626 20.4058 43.4067 19.508 44.153 18.0854H44.2113V20.2659H46.8233V11.2173C46.8233 8.5937 44.7244 6.90288 41.4943 6.90288C38.4975 6.90288 36.282 8.61702 36.2004 10.9724H38.7425C38.9524 9.85302 39.99 9.11837 41.4127 9.11837C43.1385 9.11837 44.1063 9.92297 44.1063 11.4039V12.4066L40.5848 12.6165C37.3082 12.8147 35.5359 14.1557 35.5359 16.4879C35.5359 18.8433 37.3665 20.4058 39.9902 20.4058ZM40.748 18.2486C39.244 18.2486 38.2877 17.5257 38.2877 16.4179C38.2877 15.2753 39.2089 14.6106 40.9696 14.5056L44.1063 14.3074V15.3334C44.1063 17.0359 42.6605 18.2486 40.7481 18.2486M50.3099 25.21C53.0618 25.21 54.3561 24.1607 55.4872 20.9772L60.4428 7.07777H57.5743L54.251 17.8171H54.1927L50.8695 7.07777H47.9194L52.7001 20.3125L52.4436 21.1171C52.0122 22.4814 51.3126 23.0062 50.0649 23.0062C49.8434 23.0062 49.412 22.9828 49.237 22.9595V25.14C49.4002 25.1867 50.0998 25.21 50.3097 25.21" fill="white"/>
</g>
<defs>
<clipPath id="clip0_24_45">
<rect width="59.6953" height="24.601" fill="white" transform="translate(0.747314 0.699463)"/>
</clipPath>
</defs>
</svg>
