<svg width="134" height="40" viewBox="0 0 134 40" fill="none" xmlns="http://www.w3.org/2000/svg">
<g clip-path="url(#clip0_31_672)">
<path d="M10.8656 29.4191C10.4563 29.2231 10.0003 29.2217 9.56972 29.1084C7.43038 28.5429 5.55537 27.2487 4.26792 25.4489C2.98047 23.6492 2.36124 21.4567 2.51699 19.2493C2.67274 17.042 3.59371 14.9582 5.12112 13.357C6.64854 11.7559 8.6867 10.7378 10.8843 10.4783C16.1411 9.82235 20.9886 13.678 21.5099 18.9241C22.0218 24.0649 18.5448 28.5152 13.3773 29.3324C13.304 29.3444 13.2067 29.3084 13.1734 29.4191H10.8656ZM15.4651 20.1853C16.2451 19.752 16.473 19.5067 16.6317 18.9321C16.9556 17.7589 16.5104 16.9243 15.2745 16.3457C14.9958 16.2124 14.5559 16.223 14.4652 15.9537C14.3746 15.6844 14.5666 15.3511 14.6345 15.0445C14.8279 14.1753 14.8265 14.1819 13.9546 14.0113C13.732 13.9673 13.6266 14.0113 13.5907 14.2459C13.5427 14.5565 13.4707 14.8619 13.404 15.1698C13.2707 15.7684 13.2707 15.7631 12.6627 15.6191C12.4841 15.5764 12.4108 15.5178 12.4641 15.3151C12.5721 14.9058 12.6561 14.4899 12.7307 14.0753C12.7574 13.9419 12.8534 13.7553 12.5974 13.738C12.2721 13.7166 11.9668 13.4487 11.6282 13.6566C11.5882 13.6806 11.6002 13.79 11.5855 13.8526C11.4989 14.2526 11.4002 14.6525 11.3282 15.0525C11.2842 15.2965 11.1762 15.3578 10.9376 15.2991C10.3923 15.1658 9.83636 15.0712 9.29242 14.9312C9.05244 14.8699 8.99645 14.9405 8.94445 15.1632C8.7418 16.0351 8.73247 16.0337 9.56972 16.271C9.6103 16.2777 9.65038 16.287 9.68971 16.299C9.98968 16.4324 10.151 16.6323 10.0763 16.9736C9.73326 18.5619 9.39196 20.1502 9.05244 21.7385C8.98578 22.0478 8.82713 22.1731 8.50183 22.1385C8.23519 22.1065 7.92455 21.8798 7.72324 22.0651C7.52193 22.2504 7.4846 22.5717 7.37394 22.8357C7.35663 22.8878 7.3357 22.9386 7.31128 22.9877C7.1633 23.237 7.28195 23.3077 7.52193 23.3503C7.96722 23.4303 8.4085 23.5316 8.85513 23.6303C9.44707 23.7636 9.44573 23.7636 9.31375 24.3769C9.28308 24.5236 9.25509 24.6715 9.22442 24.8182C9.04844 25.6514 9.04977 25.6448 9.90702 25.8021C10.127 25.8434 10.231 25.8021 10.2723 25.5688C10.3514 25.1395 10.4403 24.712 10.539 24.2862C10.6429 23.8543 10.9296 24.1609 11.1336 24.1609C11.3375 24.1609 11.4829 24.1903 11.4002 24.4742C11.2816 24.8742 11.2269 25.3021 11.1202 25.7114C11.0522 25.9781 11.1482 26.0687 11.3962 26.1234C12.1961 26.2954 12.1961 26.302 12.3734 25.5035C12.4481 25.1702 12.4228 24.7275 12.6307 24.5356C12.8601 24.3236 13.2973 24.5355 13.64 24.5595C15.3011 24.6662 16.289 23.9116 16.585 22.3038C16.7277 21.5252 16.4717 20.9092 15.8384 20.4373C15.7211 20.3506 15.5985 20.2666 15.4651 20.1853Z" fill="white" fill-opacity="0.7"/>
<path d="M30.1476 11.3075C29.7077 13.1366 29.2717 14.9471 28.8224 16.8109C29.3824 16.6443 29.881 16.4629 30.4223 16.451C32.7167 16.399 34.2126 17.6428 34.5765 20.0146C35.1325 23.6356 32.9914 27.1632 29.457 28.1338C27.3639 28.7084 25.3015 28.4098 23.2803 27.6952C22.9764 27.5872 23.0297 27.4019 23.083 27.1819C23.8332 24.0515 24.5833 20.9212 25.3335 17.7908C25.7854 15.907 26.2414 14.0245 26.68 12.1367C26.7386 11.8861 26.832 11.7768 27.0946 11.7368C28.0585 11.6034 29.0171 11.4408 29.9797 11.2928C30.036 11.292 30.0923 11.297 30.1476 11.3075ZM31.4075 21.3718C31.4241 20.9327 31.3618 20.4943 31.2235 20.0773C31.1592 19.8444 31.0272 19.636 30.8442 19.4784C30.6611 19.3208 30.4354 19.2211 30.1956 19.192C29.5808 19.0948 28.9512 19.207 28.4078 19.5106C28.3182 19.5589 28.2406 19.6268 28.1808 19.7092C28.121 19.7916 28.0806 19.8864 28.0625 19.9866C27.6421 21.7642 27.211 23.5391 26.7693 25.3114C26.7027 25.578 26.7613 25.6754 27.02 25.702C27.9345 25.798 28.8051 25.6914 29.5597 25.1221C30.8076 24.1822 31.3569 22.8956 31.4075 21.3718Z" fill="white" fill-opacity="0.7"/>
<path d="M119.499 28.1044C119.899 26.4432 120.283 24.8127 120.675 23.1822C121.545 19.5586 122.424 15.9376 123.278 12.31C123.37 11.9207 123.522 11.7473 123.928 11.6993C124.861 11.5887 125.794 11.4327 126.809 11.2754C126.367 13.0952 125.937 14.875 125.495 16.6882C126.241 16.5895 126.934 16.4655 127.651 16.5095C129.774 16.6429 130.76 18.1094 130.828 19.9439C130.876 21.2677 130.466 22.5063 130.179 23.7675C129.876 25.1007 129.534 26.4205 129.227 27.7497C129.164 28.0164 129.064 28.123 128.768 28.1137C127.931 28.0897 127.093 28.0857 126.255 28.1137C125.899 28.1257 125.882 28.0044 125.953 27.7137C126.429 25.7499 126.902 23.7848 127.359 21.817C127.482 21.2837 127.626 20.7504 127.517 20.1985C127.383 19.4986 127.021 19.1866 126.305 19.1559C125.948 19.1526 125.591 19.1767 125.238 19.2279C124.964 19.2586 124.838 19.3772 124.781 19.6426C124.289 21.7423 123.785 23.8395 123.284 25.9379C123.13 26.5752 122.974 27.2111 122.821 27.8484C122.789 27.9817 122.778 28.1057 122.578 28.103C121.563 28.1004 120.548 28.1044 119.499 28.1044Z" fill="white" fill-opacity="0.7"/>
<path d="M104.839 16.4283C106.517 16.4616 107.843 16.6242 109.113 17.1175C109.38 17.2175 109.454 17.3228 109.38 17.6268C108.934 19.3986 108.54 21.1838 108.089 22.9596C107.707 24.4637 107.763 26.0458 108.251 27.5191C108.345 27.8178 108.313 27.9191 107.984 27.9524C107.303 28.0244 106.623 28.1218 105.949 28.2444C105.589 28.3097 105.332 28.2777 105.243 27.8751C105.24 27.8616 105.235 27.8486 105.228 27.8364C104.991 27.3152 104.987 27.3098 104.523 27.6231C104.022 27.9753 103.453 28.2193 102.853 28.3398C102.252 28.4603 101.633 28.4546 101.035 28.3231C99.4087 27.9844 98.4915 26.9272 98.1249 25.346C97.4489 22.4303 98.5955 19.336 100.987 17.6708C102.238 16.8002 103.634 16.3803 104.839 16.4283ZM101.182 23.4196C101.173 23.8025 101.218 24.1848 101.315 24.5554C101.55 25.3767 102.039 25.7153 102.894 25.6753C103.472 25.6473 103.939 25.3927 104.36 25.0181C104.491 24.8995 104.57 24.7352 104.582 24.5594C104.66 23.9648 104.739 23.3676 104.871 22.7836C105.117 21.6797 105.404 20.5838 105.671 19.4853C105.707 19.3386 105.793 19.196 105.537 19.164C104.582 19.048 103.68 19.1293 102.895 19.7666C101.731 20.7118 101.234 21.961 101.182 23.4196Z" fill="white" fill-opacity="0.7"/>
<path d="M69.7104 21.1251C69.6317 23.6781 68.8251 25.8953 66.632 27.4164C65.1575 28.439 63.507 28.6483 61.7965 28.2164C60.15 27.8057 59.2501 26.6552 58.8955 25.0407C58.2849 22.2703 59.5541 19.0039 61.8658 17.4041C63.3444 16.3802 64.9762 16.1416 66.696 16.5642C68.4358 16.9908 69.5691 18.4653 69.7091 20.3825C69.7264 20.6318 69.7104 20.8798 69.7104 21.1251ZM66.5107 21.3917C66.5136 21.0896 66.4854 20.7881 66.4267 20.4918C66.2281 19.4172 65.5348 18.9466 64.4669 19.1719C64.0901 19.2596 63.7424 19.4433 63.4577 19.7052C62.2391 20.7718 61.6285 23.2795 62.2191 24.7887C62.3019 25.0302 62.4556 25.2411 62.6601 25.3938C62.8647 25.5466 63.1106 25.634 63.3657 25.6446C63.6874 25.6817 64.0134 25.6442 64.3183 25.5351C64.6233 25.426 64.899 25.2481 65.1242 25.0153C66.1267 24.0168 66.44 22.7529 66.5054 21.397L66.5107 21.3917Z" fill="white" fill-opacity="0.7"/>
<path d="M75.6564 28.1059C76.1351 26.1181 76.6043 24.1676 77.0763 22.2185C77.4509 20.6666 77.8349 19.1161 78.1988 17.5616C78.2154 17.4506 78.2651 17.3471 78.3415 17.2648C78.4179 17.1825 78.5173 17.1251 78.6268 17.1003C80.2069 16.5756 81.8723 16.3561 83.5343 16.4537C84.0853 16.4755 84.6276 16.5984 85.1342 16.8163C86.4447 17.3976 86.946 18.4882 87.026 19.8347C87.0846 20.8333 86.822 21.7865 86.594 22.7424C86.1941 24.4156 85.7794 26.0848 85.3875 27.7593C85.3275 28.0152 85.2448 28.1192 84.9648 28.1126C84.1129 28.0926 83.261 28.0859 82.4104 28.1126C82.0411 28.1246 82.0571 27.9926 82.1238 27.7126C82.6242 25.6159 83.1166 23.5166 83.601 21.4146C83.6817 21.0961 83.7207 20.7685 83.717 20.44C83.6916 19.6174 83.2597 19.1788 82.4344 19.1574C82.1051 19.1494 81.7785 19.1908 81.4505 19.2121C81.1226 19.2334 81.0052 19.3628 80.9372 19.6561C80.4746 21.6359 80.004 23.613 79.5281 25.5915C79.3534 26.3221 79.1761 27.0513 79.0121 27.7833C78.9601 28.0112 78.8788 28.1139 78.6121 28.1086C77.6336 28.0939 76.659 28.1059 75.6564 28.1059Z" fill="white" fill-opacity="0.7"/>
<path d="M113.23 28.4205C111.904 28.3792 110.613 28.1859 109.41 27.5766C109.17 27.4553 109.09 27.366 109.224 27.098C109.51 26.5247 109.773 25.9381 110.013 25.3435C110.146 25.0169 110.261 24.9155 110.62 25.1115C111.655 25.6968 112.858 25.9157 114.034 25.7328C114.225 25.709 114.411 25.6568 114.586 25.5781C115.327 25.2248 115.407 24.4676 114.747 23.985C114.314 23.6677 113.807 23.4824 113.326 23.2544C112.693 22.9531 112.085 22.6224 111.613 22.0785C110.546 20.8519 110.701 18.1056 112.835 17.0337C114.029 16.4351 115.304 16.3391 116.604 16.3964C117.537 16.4499 118.453 16.6694 119.308 17.0443C119.56 17.151 119.639 17.2536 119.501 17.5256C119.205 18.1096 118.933 18.7055 118.676 19.3081C118.567 19.5654 118.464 19.6174 118.194 19.4961C117.307 19.0961 116.38 18.8855 115.394 18.9895C115.147 19.0061 114.906 19.0738 114.687 19.1881C114.093 19.5214 114.053 20.2747 114.638 20.6186C115.304 21.0186 116.016 21.3492 116.699 21.7265C117.515 22.1785 118.166 22.7624 118.39 23.7263C118.76 25.3808 118.078 26.8847 116.568 27.6913C115.526 28.2539 114.389 28.3992 113.23 28.4205Z" fill="white" fill-opacity="0.7"/>
<path d="M49.8617 16.6989C49.6563 17.5389 49.455 18.3428 49.2631 19.1494C49.2137 19.3587 49.0644 19.3387 48.9138 19.3387C47.9525 19.3387 46.9899 19.3533 46.03 19.3293C45.6994 19.3213 45.5874 19.4333 45.5194 19.7413C45.2088 21.1412 44.8462 22.529 44.5515 23.9302C44.3142 25.0608 44.7942 25.6167 45.9527 25.654C46.5714 25.6684 47.1877 25.5723 47.7725 25.3701C47.9872 25.2981 48.0685 25.3274 48.0872 25.5594C48.1432 26.226 48.2112 26.8926 48.2818 27.5592C48.2896 27.5919 48.2905 27.6259 48.2846 27.659C48.2787 27.6921 48.266 27.7237 48.2474 27.7517C48.2288 27.7797 48.2046 27.8035 48.1763 27.8218C48.1481 27.8401 48.1164 27.8523 48.0832 27.8578C46.5313 28.3844 44.9422 28.5831 43.3476 28.1551C41.7758 27.7338 41.1879 26.542 41.2505 24.9554C41.3212 23.1396 41.9171 21.4198 42.3077 19.664C42.7077 17.8522 43.165 16.051 43.589 14.2445C43.649 13.9779 43.7223 13.8339 44.0462 13.7952C44.9568 13.6872 45.8634 13.5286 46.7686 13.3753C47.0233 13.3313 47.0819 13.3753 47.0139 13.6339C46.7833 14.5192 46.5873 15.4124 46.3473 16.3003C46.262 16.6163 46.2874 16.7256 46.6553 16.7176C47.7085 16.6829 48.7658 16.6989 49.8617 16.6989Z" fill="white" fill-opacity="0.7"/>
<path d="M88.4912 23.4584C88.5858 20.72 89.5857 18.4669 92.1135 17.1457C94.0826 16.1164 96.1451 16.1444 98.2102 16.9217C98.4688 17.019 98.5048 17.1257 98.3902 17.3683C98.0862 18.01 97.7982 18.6589 97.5263 19.3148C97.4316 19.5454 97.3356 19.5908 97.105 19.4921C96.2946 19.1356 95.3928 19.0423 94.5266 19.2255C93.0987 19.5268 92.3308 20.4907 92.0068 21.8425C91.7872 22.6518 91.7904 23.5054 92.0162 24.313C92.2828 25.1835 92.8161 25.5848 93.732 25.6462C94.5147 25.6989 95.2998 25.5858 96.0358 25.3142C96.2664 25.2302 96.3784 25.2275 96.397 25.5195C96.4424 26.1861 96.513 26.8527 96.573 27.5193C96.5877 27.6699 96.6104 27.8033 96.4064 27.8779C94.6626 28.5085 92.8907 28.6965 91.1416 27.9939C89.2751 27.2433 88.5565 25.7035 88.4912 23.7903C88.4885 23.677 88.4912 23.5677 88.4912 23.4584Z" fill="white" fill-opacity="0.7"/>
<path d="M57.2716 25.2101C57.3516 26.026 57.4262 26.8099 57.5062 27.5965C57.5128 27.626 57.5134 27.6565 57.5079 27.6861C57.5024 27.7158 57.491 27.7441 57.4743 27.7692C57.4576 27.7944 57.436 27.8159 57.4108 27.8325C57.3856 27.8491 57.3573 27.8604 57.3276 27.8658C55.6157 28.4938 53.8786 28.6657 52.1428 28.0191C50.5029 27.4072 49.6523 26.1327 49.4617 24.4435C49.2217 22.3104 49.675 20.3292 51.0989 18.6627C52.6094 16.8963 54.5985 16.263 56.8796 16.3963C57.6587 16.4518 58.4239 16.6318 59.1461 16.9296C59.3807 17.0242 59.4127 17.1176 59.3114 17.3442C59.0154 17.9735 58.7301 18.6094 58.4688 19.2547C58.3595 19.5213 58.2515 19.6053 57.9648 19.4773C57.3708 19.2216 56.7253 19.1079 56.0797 19.1454C54.8038 19.196 53.8413 19.7533 53.264 20.8905C52.7518 21.9007 52.6189 23.061 52.8893 24.1609C53.1107 25.1408 53.6893 25.5821 54.6932 25.646C55.5797 25.7007 56.4143 25.5194 57.2716 25.2101Z" fill="white" fill-opacity="0.7"/>
<path d="M70.0424 28.1059C70.5836 25.8315 71.1089 23.6024 71.6422 21.3733C71.9875 19.9267 72.3421 18.4815 72.6714 17.031C72.7328 16.7644 72.8407 16.6871 73.1074 16.6924C73.9713 16.7084 74.8405 16.7111 75.7018 16.6924C75.9938 16.6924 76.0124 16.7897 75.9551 17.0257C75.0823 20.6333 74.2126 24.2419 73.346 27.8513C73.3047 28.0246 73.258 28.1179 73.0607 28.1099C72.0768 28.1006 71.0889 28.1059 70.0424 28.1059Z" fill="white" fill-opacity="0.7"/>
<path d="M40.9426 16.6989C40.4653 18.6893 39.9987 20.6398 39.5307 22.5903C39.1201 24.3021 38.7041 26.0126 38.3015 27.7271C38.2375 28.0057 38.1362 28.127 37.8189 28.115C36.9963 28.087 36.171 28.0884 35.3471 28.115C35.0138 28.1244 34.9632 28.0351 35.0378 27.7284C35.7337 24.8496 36.4234 21.969 37.1069 19.0866C37.2776 18.3707 37.4536 17.6548 37.6256 16.9375C37.6536 16.8215 37.6482 16.6962 37.8335 16.6975C38.8601 16.7015 39.8867 16.6989 40.9426 16.6989Z" fill="white" fill-opacity="0.7"/>
<path d="M39.7654 15.3165C38.4122 15.3165 37.6549 14.2619 38.1015 12.9874C38.2709 12.5213 38.5885 12.1236 39.0056 11.8554C39.4227 11.5871 39.9163 11.463 40.4106 11.5022C41.7438 11.6355 42.3651 12.6927 41.8545 13.9233C41.6835 14.3364 41.3937 14.6894 41.0217 14.9374C40.6497 15.1855 40.2125 15.3174 39.7654 15.3165Z" fill="white" fill-opacity="0.7"/>
<path d="M73.078 13.6939C73.0829 13.3585 73.1632 13.0284 73.3129 12.7282C73.4627 12.4279 73.678 12.1652 73.943 11.9595C74.208 11.7538 74.5159 11.6103 74.8439 11.5396C75.1719 11.469 75.5115 11.473 75.8377 11.5515C76.651 11.7528 77.0989 12.3194 77.0936 13.142C77.0829 14.6005 75.5804 15.675 74.1872 15.2191C73.4313 14.9725 73.078 14.4858 73.078 13.6939Z" fill="white" fill-opacity="0.7"/>
<path d="M12.7561 22.9424C12.2218 22.9272 11.691 22.8521 11.1736 22.7184C10.9936 22.6798 10.9069 22.6264 10.9563 22.4238C11.1056 21.7718 11.2389 21.1172 11.3829 20.464C11.4082 20.344 11.4322 20.2373 11.6215 20.2747C12.3081 20.408 12.996 20.5306 13.612 20.8879C14.1453 21.1986 14.3786 21.6172 14.2786 22.0878C14.1613 22.6211 13.7786 22.9051 13.1294 22.9477C13.0027 22.9491 12.8801 22.9424 12.7561 22.9424Z" fill="white" fill-opacity="0.7"/>
<path d="M13.1347 19.3227C12.68 19.3227 12.1241 19.3481 11.8321 19.0868C11.5202 18.8081 11.9228 18.3042 11.9401 17.8869C11.9493 17.8193 11.9649 17.7528 11.9868 17.6882C12.1734 16.8563 12.1734 16.859 13.0293 17.0803C13.3633 17.1556 13.6839 17.2815 13.9799 17.4536C14.4292 17.7322 14.6025 18.1202 14.4879 18.5948C14.3892 18.9948 14.0399 19.2681 13.5453 19.3174C13.4086 19.3265 13.2715 19.3283 13.1347 19.3227Z" fill="white" fill-opacity="0.7"/>
</g>
<defs>
<clipPath id="clip0_31_672">
<rect width="133.32" height="40" fill="white"/>
</clipPath>
</defs>
</svg>
