<svg width="134" height="40" viewBox="0 0 134 40" fill="none" xmlns="http://www.w3.org/2000/svg">
<g clip-path="url(#clip0_31_615)">
<path d="M23.7883 16.3511L23.1617 18.8655C23.8723 19.0415 26.0641 19.7654 26.4187 18.3429C26.7894 16.859 24.5003 16.5337 23.7883 16.3511Z" fill="white" fill-opacity="0.7"/>
<path d="M22.8458 20.1333L22.1539 22.9064C23.0071 23.1183 25.6402 23.9636 26.0295 22.3997C26.4361 20.7692 23.699 20.3466 22.8458 20.1333Z" fill="white" fill-opacity="0.7"/>
<path d="M26.6214 8.865C24.4191 8.31595 22.1034 8.43229 19.9671 9.19932C17.8309 9.96635 15.9701 11.3496 14.62 13.1742C13.27 14.9988 12.4912 17.1827 12.3824 19.4498C12.2735 21.717 12.8393 23.9655 14.0083 25.911C15.1773 27.8566 16.897 29.4118 18.9499 30.38C21.0028 31.3482 23.2967 31.686 25.5415 31.3505C27.7863 31.015 29.8813 30.0214 31.5614 28.4954C33.2415 26.9693 34.4314 24.9793 34.9806 22.7769C35.3452 21.3146 35.4182 19.7947 35.1955 18.3042C34.9727 16.8136 34.4586 15.3815 33.6823 14.0897C32.9061 12.7978 31.883 11.6715 30.6715 10.7751C29.46 9.87861 28.0838 9.22957 26.6214 8.865ZM28.9078 18.3654C28.7425 19.4826 28.1226 20.0239 27.3 20.2145C28.4292 20.8025 29.0038 21.705 28.4572 23.2689C27.7773 25.21 26.1628 25.374 24.015 24.9687L23.4937 27.0565L22.2338 26.7432L22.7485 24.6821C22.4218 24.6008 22.0885 24.5154 21.7446 24.4154L21.2286 26.4859L19.9714 26.1713L20.4927 24.0795C20.198 24.0035 19.8994 23.9235 19.5941 23.8475L17.9556 23.4395L18.5809 21.9997C18.5809 21.9997 19.5141 22.2463 19.4954 22.2277C19.553 22.2463 19.6137 22.2533 19.6741 22.2484C19.7344 22.2434 19.7932 22.2266 19.8469 22.1988C19.9007 22.1711 19.9485 22.1329 19.9875 22.0866C20.0265 22.0403 20.0559 21.9868 20.0741 21.929L20.8966 18.6267L21.03 18.66C20.9866 18.6429 20.942 18.6291 20.8966 18.6187L21.4872 16.2669C21.5019 16.0003 21.4099 15.6616 20.8993 15.5337C20.9193 15.5217 19.9847 15.307 19.9847 15.307L20.3207 13.9618L22.0539 14.3951C22.3205 14.4604 22.5871 14.5284 22.8538 14.5844L23.3684 12.5166L24.6283 12.8299L24.1216 14.8577C24.4594 14.9342 24.7958 15.0133 25.1309 15.095L25.6335 13.0806L26.892 13.3939L26.3828 15.467C27.9733 16.0163 29.1358 16.8375 28.9078 18.3654Z" fill="white" fill-opacity="0.7"/>
<path d="M46.0088 15.4672C46.8393 15.4472 47.6634 15.6158 48.4192 15.9605C49.075 16.2728 49.6523 16.7284 50.1084 17.2937C50.5648 17.8805 50.9001 18.5521 51.095 19.2695C51.3119 20.0644 51.4186 20.8853 51.4123 21.7092C51.4196 24.2795 50.4309 26.7528 48.6539 28.6099C47.7919 29.4962 46.7652 30.2058 45.6315 30.699C44.4417 31.2186 43.1555 31.4812 41.8572 31.4696C41.6826 31.4696 41.3746 31.4696 40.94 31.4549C40.4402 31.4384 39.9416 31.3939 39.4468 31.3216C38.8452 31.235 38.2485 31.1175 37.659 30.9696C37.0421 30.8212 36.4428 30.6075 35.8712 30.3324L40.8973 9.21313L45.3995 8.51587L43.5997 16.0098C43.9743 15.8428 44.3629 15.7089 44.7609 15.6098C45.1695 15.5117 45.5886 15.4638 46.0088 15.4672ZM42.2332 27.9019C42.9037 27.9025 43.5634 27.7327 44.1503 27.4086C44.7536 27.0783 45.283 26.6283 45.7062 26.0861C46.1486 25.521 46.4966 24.888 46.7367 24.2116C46.9885 23.5125 47.1167 22.7749 47.1154 22.0318C47.1154 21.0986 46.9594 20.3773 46.6501 19.8534C46.3408 19.3295 45.7648 19.0668 44.9329 19.0668C44.5765 19.0802 44.2223 19.1293 43.8757 19.2135C43.4372 19.314 43.0316 19.5246 42.6971 19.8254L40.78 27.7833C40.896 27.8046 40.9986 27.8233 41.0853 27.8419C41.1754 27.862 41.2667 27.8762 41.3586 27.8846C41.475 27.8973 41.5921 27.9031 41.7092 27.9019H42.2332ZM56.0785 31.0656H51.7789L55.4092 15.7871H59.7408L56.0785 31.0656ZM58.1703 13.9247C57.5842 13.9305 57.0126 13.7431 56.5438 13.3914C56.0571 13.0354 55.8158 12.4875 55.8158 11.7489C55.8135 11.3539 55.8972 10.9631 56.0611 10.6037C56.2195 10.2543 56.442 9.93774 56.7171 9.67042C56.9918 9.40787 57.3109 9.19617 57.6596 9.04515C58.0227 8.89164 58.4134 8.81406 58.8075 8.81717C59.3936 8.81135 59.9652 8.99877 60.434 9.35045C60.9167 9.70597 61.1584 10.253 61.1593 10.9916C61.1615 11.3882 61.0768 11.7804 60.9113 12.1408C60.7551 12.4904 60.5339 12.8071 60.2594 13.0741C59.9847 13.337 59.665 13.5483 59.3155 13.698C58.9536 13.8542 58.563 13.9328 58.1689 13.9287L58.1703 13.9247ZM63.5031 11.9795L68.0066 11.2863L66.9001 15.7898H71.7236L70.8557 19.3335H66.0628L64.7856 24.6769C64.6746 25.0851 64.6067 25.5038 64.583 25.9261C64.5541 26.2682 64.6033 26.6124 64.7269 26.9327C64.847 27.2198 65.0693 27.4521 65.3509 27.5846C65.6508 27.7406 66.0801 27.8193 66.6427 27.8193C67.0971 27.8199 67.5504 27.7752 67.9959 27.6859C68.4441 27.5972 68.8852 27.476 69.3158 27.3233L69.6371 30.6363C69.0199 30.859 68.3894 31.0429 67.7493 31.1869C66.9572 31.352 66.1492 31.4284 65.3402 31.4149C64.007 31.4149 62.9707 31.2176 62.2312 30.823C61.5394 30.4736 60.9853 29.9016 60.658 29.1991C60.3414 28.4525 60.2044 27.6419 60.2581 26.8327C60.3031 25.8828 60.437 24.9392 60.658 24.0143L63.5071 11.9889L63.5031 11.9795ZM71.5343 24.9649C71.5259 23.697 71.7421 22.4377 72.1729 21.2453C72.579 20.1194 73.2018 19.084 74.006 18.1976C74.8161 17.3156 75.8015 16.6127 76.8991 16.1338C78.0946 15.6174 79.3858 15.3597 80.688 15.3778C81.4745 15.3684 82.2594 15.4516 83.0264 15.6258C83.6729 15.7771 84.3017 15.996 84.9023 16.2791L83.4197 19.6534C83.0233 19.4952 82.6211 19.3548 82.2132 19.2321C81.7174 19.094 81.2039 19.0298 80.6893 19.0415C79.2535 19.0415 78.1189 19.5374 77.275 20.5227C76.4311 21.5079 76.0058 22.8384 76.0058 24.5036C76.0058 25.4911 76.2196 26.291 76.6471 26.9034C77.0724 27.514 77.859 27.8179 78.9988 27.8179C79.5461 27.8193 80.0919 27.7612 80.6267 27.6446C81.1039 27.5423 81.5707 27.3964 82.0212 27.2087L82.3465 30.6657C81.7585 30.8908 81.1574 31.0804 80.5467 31.2336C79.7743 31.4082 78.984 31.4906 78.1923 31.4789C76.9915 31.4789 75.9747 31.3047 75.1419 30.9563C74.3604 30.6422 73.657 30.1613 73.0808 29.5471C72.5346 28.9524 72.1319 28.2405 71.9035 27.466C71.6589 26.6563 71.5358 25.8147 71.5383 24.9689L71.5343 24.9649ZM90.6337 31.4709C89.723 31.4895 88.8175 31.331 87.9673 31.0043C87.2494 30.721 86.6079 30.2736 86.0941 29.6978C85.5901 29.1175 85.2095 28.4407 84.9756 27.7086C84.7164 26.8897 84.5899 26.0345 84.6009 25.1755C84.6036 23.9905 84.7939 22.8134 85.1649 21.6879C85.5285 20.55 86.0949 19.4872 86.8367 18.5509C87.5747 17.6176 88.4916 16.8411 89.5338 16.2671C90.6003 15.6778 91.8189 15.3818 93.1921 15.3818C94.1025 15.364 95.0079 15.522 95.8585 15.8471C96.5777 16.1307 97.2209 16.5781 97.737 17.1537C98.2399 17.7347 98.6196 18.4119 98.8529 19.1441C99.114 19.9655 99.2414 20.8234 99.2302 21.6852C99.2261 22.869 99.0409 24.0452 98.6809 25.1729C98.3272 26.3058 97.7761 27.3674 97.053 28.3086C96.3263 29.2474 95.4112 30.024 94.3666 30.5883C93.2939 31.1794 92.0495 31.4749 90.6337 31.4749V31.4709ZM92.7828 19.0388C92.176 19.0289 91.5832 19.2223 91.099 19.5881C90.6055 19.9693 90.1915 20.4435 89.8804 20.984C89.5454 21.56 89.2952 22.1815 89.1378 22.8291C88.9794 23.4505 88.897 24.0889 88.8925 24.7302C88.8925 25.7008 89.0472 26.4563 89.3565 26.9967C89.6671 27.5366 90.2271 27.8086 91.0416 27.8086C91.6496 27.8188 92.2432 27.6239 92.7268 27.2553C93.2214 26.8769 93.6368 26.4048 93.9494 25.8661C94.285 25.2902 94.5355 24.6687 94.6933 24.021C94.8493 23.3996 94.9312 22.7619 94.9373 22.1212C94.9373 21.1546 94.7813 20.3973 94.4706 19.8547C94.16 19.3121 93.5987 19.0415 92.7855 19.0415L92.7828 19.0388ZM103.92 31.0656H99.6168L103.248 15.7871H107.579L103.92 31.0656ZM106.009 13.9247C105.424 13.9311 104.852 13.7436 104.384 13.3914C103.899 13.0359 103.656 12.4884 103.655 11.7489C103.654 11.3537 103.738 10.9629 103.903 10.6037C104.06 10.2538 104.282 9.93708 104.558 9.67042C104.833 9.40754 105.152 9.19581 105.502 9.04515C105.863 8.89008 106.253 8.81112 106.647 8.81317C107.233 8.80706 107.805 8.99449 108.275 9.34645C108.759 9.70642 109.003 10.253 109.003 10.9876C109.003 11.3842 108.918 11.7762 108.753 12.1368C108.598 12.4864 108.377 12.8031 108.103 13.0701C107.828 13.3325 107.508 13.5438 107.159 13.694C106.796 13.8503 106.404 13.9289 106.009 13.9247ZM110.676 16.4817C111.002 16.3857 111.368 16.2711 111.764 16.1458C112.204 16.0098 112.648 15.8947 113.097 15.8005C113.643 15.6822 114.195 15.5932 114.751 15.5338C115.44 15.4605 116.133 15.4257 116.826 15.4298C119.093 15.4298 120.658 16.0889 121.52 17.407C122.382 18.7251 122.533 20.5262 121.972 22.8104L120.001 31.0656H115.673L117.59 22.9891C117.707 22.4851 117.798 21.9972 117.867 21.5226C117.937 21.1086 117.931 20.6854 117.851 20.2734C117.782 19.929 117.593 19.6201 117.318 19.4014C117.035 19.1788 116.606 19.0681 116.024 19.0681C115.449 19.07 114.875 19.129 114.311 19.2441L111.49 31.0656H107.161L110.677 16.4844L110.676 16.4817Z" fill="white" fill-opacity="0.7"/>
</g>
<defs>
<clipPath id="clip0_31_615">
<rect width="133.32" height="40" fill="white" transform="translate(0.679993)"/>
</clipPath>
</defs>
</svg>
