<svg width="24" height="24" viewBox="0 0 24 24" fill="none" xmlns="http://www.w3.org/2000/svg">
<path fill-rule="evenodd" clip-rule="evenodd" d="M19 2H5C3.34315 2 2 3.34315 2 5V15C2 16.6569 3.34315 18 5 18H10.5858L7.29289 21.2929C6.90237 21.6834 6.90237 22.3166 7.29289 22.7071C7.68342 23.0976 8.31658 23.0976 8.70711 22.7071L12 19.4142L15.2929 22.7071C15.6834 23.0976 16.3166 23.0976 16.7071 22.7071C17.0976 22.3166 17.0976 21.6834 16.7071 21.2929L13.4142 18H19C20.6569 18 22 16.6569 22 15V5C22 3.34315 20.6569 2 19 2ZM5.29289 14.3739C4.90237 13.9833 4.90237 13.3502 5.29289 12.9597L9.29289 8.95965C9.65592 8.59662 10.2349 8.56748 10.6325 8.89223L11.9064 9.93253L15.2678 6.31899C15.4565 6.11611 15.721 6.00063 15.9981 6.00009C16.2751 5.99956 16.54 6.11401 16.7295 6.31615L18.7295 8.44948C19.1073 8.8524 19.0869 9.48523 18.6839 9.86296C18.281 10.2407 17.6482 10.2203 17.2705 9.81737L16.0028 8.46524L12.7322 11.9812C12.3731 12.3673 11.7759 12.4081 11.3675 12.0746L10.0678 11.0132L6.70711 14.3739C6.31658 14.7644 5.68342 14.7644 5.29289 14.3739Z" fill="white"/>
</svg>
