<svg width="155" height="158" viewBox="0 0 155 158" fill="none" xmlns="http://www.w3.org/2000/svg">
<rect x="1.06375" y="1.00809" width="152.873" height="155.983" rx="76.4365" stroke="url(#paint0_linear_158_3923)" stroke-width="1.44"/>
<path d="M100.97 63.4641L100.626 63.1006L100.626 63.1006L100.97 63.4641ZM100.99 62.7573L100.626 63.1006L100.99 62.7573ZM67.3024 95.2623L67.6457 95.6258H67.6457L67.3024 95.2623ZM66.6157 95.2623L66.2724 95.6258H66.2724L66.6157 95.2623ZM54.0312 83.3764L54.3745 83.0129H54.3745L54.0312 83.3764ZM54.011 82.6696L54.3745 83.0129L54.3745 83.0129L54.011 82.6696ZM54.7178 82.6494L54.3745 83.0129L54.3745 83.0129L54.7178 82.6494ZM66.9591 94.2111L66.6157 94.5745C66.8084 94.7565 67.1097 94.7565 67.3024 94.5745L66.9591 94.2111ZM100.283 62.7371L99.9398 62.3736L99.9398 62.3736L100.283 62.7371ZM101.313 63.8276C101.715 63.4484 101.733 62.8155 101.353 62.4139L100.626 63.1006L100.626 63.1006L101.313 63.8276ZM67.6457 95.6258L101.313 63.8276L100.626 63.1006L66.9591 94.8988L67.6457 95.6258ZM66.2724 95.6258C66.6578 95.9898 67.2603 95.9898 67.6457 95.6258L66.9591 94.8988H66.9591L66.2724 95.6258ZM53.6879 83.7399L66.2724 95.6258L66.9591 94.8988L54.3745 83.0129L53.6879 83.7399ZM53.6475 82.3263C53.2683 82.7278 53.2864 83.3607 53.6879 83.7399L54.3745 83.0129L54.3745 83.0129L53.6475 82.3263ZM55.0612 82.2859C54.6596 81.9067 54.0267 81.9248 53.6475 82.3263L54.3745 83.0129H54.3745L55.0612 82.2859ZM67.3024 93.8475L55.0612 82.2859L54.3745 83.0129L66.6157 94.5745L67.3024 93.8475ZM99.9398 62.3736L66.6157 93.8475L67.3024 94.5745L100.626 63.1006L99.9398 62.3736ZM101.353 62.4139C100.974 62.0124 100.341 61.9944 99.9398 62.3736L100.626 63.1006V63.1006L101.353 62.4139Z" fill="url(#paint1_linear_158_3923)"/>
<defs>
<linearGradient id="paint0_linear_158_3923" x1="-0.900709" y1="72.6178" x2="154.663" y2="72.7343" gradientUnits="userSpaceOnUse">
<stop stop-color="#FC5EF6"/>
<stop offset="1" stop-color="#4DD3FF"/>
</linearGradient>
<linearGradient id="paint1_linear_158_3923" x1="53.4934" y1="77.6701" x2="101.128" y2="77.7225" gradientUnits="userSpaceOnUse">
<stop stop-color="#FC5EF6"/>
<stop offset="1" stop-color="#4DD3FF"/>
</linearGradient>
</defs>
</svg>
