<svg width="134" height="40" viewBox="0 0 134 40" fill="none" xmlns="http://www.w3.org/2000/svg">
<g clip-path="url(#clip0_31_657)">
<path d="M121.245 20.0465C120.916 21.0051 120.749 22.005 120.501 22.9795C120.244 23.9954 119.995 25.014 119.769 26.0379C119.707 26.3245 119.588 26.4152 119.303 26.4085C118.576 26.3925 117.847 26.3939 117.119 26.4085C116.824 26.4085 116.748 26.3432 116.823 26.0366C117.268 24.2088 117.695 22.3756 118.119 20.5438C118.221 20.1708 118.269 19.7852 118.262 19.3986C118.224 18.6973 117.85 18.3187 117.155 18.28C115.915 18.2107 115.851 18.2627 115.566 19.4612C115.045 21.6517 114.511 23.8381 113.999 26.0312C113.935 26.3072 113.835 26.4179 113.542 26.4112C112.814 26.3925 112.086 26.3965 111.358 26.4112C111.076 26.4112 110.97 26.3592 111.048 26.0446C111.8 22.9782 112.537 19.8998 113.282 16.8282C113.317 16.6855 113.333 16.5349 113.523 16.4722C115.207 15.9176 116.923 15.6349 118.688 15.9242C120.021 16.1442 120.892 16.9121 121.161 18.2773C121.169 18.3147 121.216 18.3427 121.245 18.3747V20.0465Z" fill="white" fill-opacity="0.7"/>
<path d="M71.2636 25.3248C70.5579 25.6585 69.7715 25.7834 68.9972 25.6848C67.24 25.4648 66.1681 24.2556 66.0641 22.4051C65.8748 18.8748 68.0266 16.319 71.5569 15.8577C73.0534 15.6622 74.5751 15.8555 75.9751 16.419C76.2204 16.515 76.3524 16.6163 76.2778 16.9243C75.5672 19.832 74.8726 22.7437 74.1686 25.6528C74.0943 25.9363 74.0053 26.2157 73.902 26.49C73.1474 28.6058 71.6502 29.811 69.4091 30.0363C67.9319 30.1843 66.4761 30.0963 65.0722 29.503C64.7149 29.3524 64.6469 29.2191 64.8269 28.8698C65.0623 28.4006 65.2667 27.9165 65.4389 27.4206C65.5615 27.082 65.6828 26.9833 66.0615 27.154C67.1105 27.6384 68.2853 27.7811 69.4198 27.5619C69.937 27.4568 70.4023 27.1772 70.738 26.77C71.0736 26.3627 71.2592 25.8525 71.2636 25.3248ZM68.9652 21.7438C68.9932 22.2344 68.9932 22.8757 69.6318 23.197C70.3304 23.545 71.0183 23.3677 71.6742 23.025C71.7565 22.9816 71.8281 22.9204 71.8839 22.8459C71.9397 22.7715 71.9783 22.6856 71.9969 22.5944C72.3102 21.2879 72.6208 19.9813 72.9434 18.6788C73.0208 18.3668 72.9141 18.2868 72.6101 18.2602C70.5064 18.0709 68.9798 19.4667 68.9652 21.7438Z" fill="white" fill-opacity="0.7"/>
<path d="M44.2236 22.4264C44.217 19.2427 46.2994 16.6296 49.3378 16.015C50.0191 15.8526 50.7273 15.8376 51.4149 15.971C51.8015 16.059 51.9135 15.9124 51.9909 15.5711C52.2575 14.3805 52.5655 13.2006 52.8281 12.0114C52.8921 11.7221 53.0068 11.5915 53.2947 11.5515C54.0946 11.4421 54.8901 11.3199 55.6811 11.1848C56.0451 11.1235 55.9345 11.3368 55.8931 11.5088C55.5252 13.0491 55.1536 14.5907 54.7786 16.1337C54.308 18.0841 53.832 20.0333 53.3707 21.9864C53.0839 23.2445 53.1442 24.5569 53.5454 25.7834C53.656 26.1393 53.5907 26.2393 53.2241 26.27C52.6689 26.3196 52.1169 26.4006 51.5709 26.5126C51.1909 26.59 50.9323 26.5126 50.8403 26.1207C50.7296 25.6367 50.5297 25.7207 50.1924 25.9487C48.6992 26.9459 46.7767 26.9219 45.5475 25.9007C44.5783 25.1008 44.3236 23.9729 44.225 22.793C44.2143 22.6743 44.2236 22.549 44.2236 22.4264ZM50.523 18.3068C47.6273 18.2335 46.5434 21.9064 47.4406 23.6183C47.7273 24.1649 48.2526 24.2515 48.7992 24.2062C49.0853 24.1875 49.3635 24.1049 49.6134 23.9644C49.8633 23.8238 50.0784 23.629 50.243 23.3943C50.267 23.3623 50.2564 23.305 50.2617 23.261C50.4177 21.7838 50.8296 20.3599 51.1723 18.9214C51.3056 18.3601 51.2923 18.3428 50.7096 18.3108C50.647 18.3041 50.5857 18.3081 50.523 18.3068Z" fill="white" fill-opacity="0.7"/>
<path d="M99.6461 26.6659C97.0143 26.6659 95.5212 25.2727 95.4198 22.7076C95.3332 20.5051 96.0491 18.5667 97.7529 17.0801C99.1088 15.8963 100.699 15.543 102.439 15.9123C104.039 16.2509 105.038 17.3654 105.255 19.1919C105.548 21.6557 104.855 23.8155 102.92 25.4766C102.019 26.2739 100.849 26.6989 99.6461 26.6659ZM98.3302 21.989C98.3449 22.4623 98.3449 22.8156 98.4409 23.1635C98.6595 23.9475 99.1941 24.3061 100.002 24.1941C100.734 24.0914 101.243 23.6608 101.623 23.0689C102.283 22.0484 102.547 20.8214 102.363 19.6199C102.23 18.5613 101.599 18.0987 100.555 18.3014C100.189 18.3794 99.855 18.5651 99.5954 18.8346C98.6702 19.7332 98.3755 20.8664 98.3302 21.985V21.989Z" fill="white" fill-opacity="0.7"/>
<path d="M59.3035 26.6658C56.9037 26.6658 55.4452 25.4526 55.2452 23.0062C55.0279 20.3398 55.9492 18.0734 58.2809 16.5535C59.6075 15.6869 61.074 15.5643 62.5672 16.0002C63.7924 16.3615 64.5376 17.2308 64.9043 18.436C65.6562 20.9144 64.547 24.1768 62.4392 25.6833C61.4819 26.3725 60.5634 26.6578 59.3035 26.6658ZM62.2045 20.3531C62.1925 20.1438 62.1885 19.9278 62.1685 19.7132C62.0459 18.4187 60.9687 17.8561 59.8288 18.496C59.5722 18.6402 59.3459 18.8326 59.1622 19.0626C58.2169 20.2505 57.949 21.609 58.2196 23.0622C58.3902 23.9874 59.0009 24.3327 59.9288 24.1581C60.3265 24.0847 60.6915 23.8889 60.9727 23.5981C61.8632 22.7009 62.1632 21.577 62.2045 20.3478V20.3531Z" fill="white" fill-opacity="0.7"/>
<path d="M81.0933 26.6567C80.2827 26.6767 79.5441 26.6154 78.8442 26.3247C77.4083 25.7275 76.7324 24.5916 76.5457 23.1037C76.1764 20.156 77.9469 16.7137 81.3679 15.9231C82.1515 15.7187 82.9739 15.7141 83.7597 15.9098C84.8369 16.2044 85.6262 16.843 85.8701 17.9656C86.1461 19.2668 85.8288 20.424 84.7956 21.3186C83.921 22.0745 82.8504 22.3758 81.7359 22.5504C81.0789 22.6601 80.4142 22.7167 79.7481 22.7198C79.4535 22.7198 79.4135 22.8317 79.4814 23.081C79.6534 23.7596 80.196 24.1636 81.0506 24.2183C81.9185 24.2814 82.7905 24.1783 83.6197 23.9143C83.9277 23.813 84.001 23.9023 84.0197 24.1809C84.0543 24.7209 84.085 25.2608 84.153 25.7954C84.1916 26.0621 84.0837 26.1474 83.8623 26.2154C82.9691 26.5104 82.034 26.6595 81.0933 26.6567ZM80.204 20.6853C80.4094 20.6613 80.784 20.6386 81.1466 20.568C81.7386 20.452 82.3358 20.328 82.8344 19.9547C83.0272 19.8099 83.1696 19.6081 83.2414 19.378C83.3131 19.1478 83.3107 18.9009 83.2344 18.6722C83.0598 18.1989 82.6638 18.1029 82.2212 18.1002C81.0733 18.1002 80.0707 18.8868 79.6321 20.1453C79.4361 20.7146 79.4361 20.7146 80.204 20.6853Z" fill="white" fill-opacity="0.7"/>
<path d="M91.0589 26.678C90.4224 26.6914 89.7883 26.5971 89.1831 26.3993C87.6699 25.8527 86.7834 24.7702 86.6034 23.189C86.3087 20.6559 86.9767 18.4388 89.1191 16.8963C91.0109 15.5337 93.1121 15.4778 95.2719 16.243C95.5652 16.3457 95.5572 16.483 95.4452 16.7203C95.1905 17.2656 94.9452 17.8162 94.7172 18.3721C94.6212 18.6068 94.5133 18.6681 94.2706 18.5601C93.5835 18.2605 92.8224 18.1737 92.0855 18.3108C90.7376 18.5334 89.8004 19.6 89.6204 21.0812C89.5537 21.5225 89.5425 21.9703 89.5871 22.4144C89.7471 23.6503 90.335 24.1982 91.5869 24.1942C92.1782 24.2011 92.7658 24.099 93.32 23.8929C93.572 23.7969 93.6587 23.8729 93.6787 24.1129C93.7253 24.6968 93.764 25.2834 93.8293 25.866C93.8573 26.122 93.7093 26.19 93.5227 26.242C93.0907 26.362 92.6628 26.5086 92.2228 26.5833C91.8369 26.6367 91.4484 26.6683 91.0589 26.678Z" fill="white" fill-opacity="0.7"/>
<path d="M107.076 26.4086C106.705 26.4086 106.333 26.3966 105.961 26.4086C105.672 26.4206 105.591 26.3566 105.668 26.042C106.171 23.9915 106.649 21.9344 107.135 19.88C107.401 18.7401 107.684 17.6028 107.943 16.4603C108.009 16.1643 108.109 16.0243 108.455 16.0417C109.151 16.0777 109.849 16.0777 110.545 16.0417C110.956 16.0203 110.96 16.1817 110.884 16.495C110.195 19.3391 109.51 22.1864 108.829 25.0368C108.751 25.3661 108.644 25.6927 108.599 26.026C108.553 26.3593 108.389 26.426 108.096 26.4086C107.759 26.3993 107.417 26.4086 107.076 26.4086Z" fill="white" fill-opacity="0.7"/>
<path d="M109.902 14.7818C108.926 14.7738 108.303 14.1858 108.323 13.2872C108.344 12.238 109.281 11.3341 110.352 11.3328C111.305 11.3328 111.952 11.9327 111.952 12.8193C111.947 13.0829 111.89 13.343 111.784 13.5846C111.678 13.8262 111.526 14.0445 111.335 14.2269C111.145 14.4092 110.92 14.5522 110.674 14.6474C110.428 14.7426 110.166 14.7883 109.902 14.7818Z" fill="white" fill-opacity="0.7"/>
<path d="M25.3588 8.07715C23.0007 8.07715 20.6956 8.77641 18.7349 10.0865C16.7742 11.3966 15.246 13.2587 14.3436 15.4373C13.4412 17.6159 13.2051 20.0132 13.6651 22.326C14.1252 24.6388 15.2607 26.7632 16.9282 28.4307C18.5956 30.0981 20.72 31.2336 23.0328 31.6937C25.3456 32.1537 27.7429 31.9176 29.9215 31.0152C32.1001 30.1128 33.9622 28.5846 35.2723 26.6239C36.5824 24.6632 37.2817 22.3581 37.2817 20C37.2817 16.8378 36.0255 13.8052 33.7895 11.5693C31.5536 9.3333 28.521 8.07715 25.3588 8.07715ZM25.7321 27.1326H20.9553V20.7839H19.2715V19.2267H20.9553V12.8793H25.0629C26.0348 12.8793 32.4528 12.658 32.4528 20.1159C32.4528 27.6965 25.7321 27.1326 25.7321 27.1326Z" fill="white" fill-opacity="0.7"/>
<path d="M25.5188 15.4924H23.6523V19.2254H26.6387V20.7786H23.6523V24.5115H25.6308V24.4929C26.1388 24.4929 29.7904 24.5422 29.7837 20.1573C29.7771 15.7724 26.2241 15.4924 25.5188 15.4924Z" fill="white" fill-opacity="0.7"/>
</g>
<defs>
<clipPath id="clip0_31_657">
<rect width="133.32" height="40" fill="white" transform="translate(0.679993)"/>
</clipPath>
</defs>
</svg>
