<svg width="18" height="18" viewBox="0 0 18 18" fill="none" xmlns="http://www.w3.org/2000/svg">
<path fill-rule="evenodd" clip-rule="evenodd" d="M9 18C13.9706 18 18 13.9706 18 9C18 4.02944 13.9706 0 9 0C4.02944 0 0 4.02944 0 9C0 13.9706 4.02944 18 9 18ZM7.70711 12.2929C7.31658 11.9024 6.68342 11.9024 6.29289 12.2929C5.90237 12.6834 5.90237 13.3166 6.29289 13.7071C7.78799 15.2022 10.212 15.2022 11.7071 13.7071C12.0976 13.3166 12.0976 12.6834 11.7071 12.2929C11.3166 11.9024 10.6834 11.9024 10.2929 12.2929C9.57885 13.0069 8.42115 13.0069 7.70711 12.2929ZM7.20001 6.5C7.20001 5.67157 6.52844 5 5.70001 5C4.87158 5 4.20001 5.67157 4.20001 6.5C4.20001 7.32843 4.87158 8 5.70001 8C6.52844 8 7.20001 7.32843 7.20001 6.5ZM12.3 5C13.1284 5 13.8 5.67157 13.8 6.5C13.8 7.32843 13.1284 8 12.3 8C11.4716 8 10.8 7.32843 10.8 6.5C10.8 5.67157 11.4716 5 12.3 5Z" fill="white" fill-opacity="0.3"/>
</svg>
