<svg width="134" height="40" viewBox="0 0 134 40" fill="none" xmlns="http://www.w3.org/2000/svg">
<g clip-path="url(#clip0_31_623)">
<path d="M45.6848 17.047H44.2756V14.6819C44.2767 14.5144 44.2415 14.3487 44.1724 14.1961C44.1034 14.0435 44.0021 13.9077 43.8756 13.798C43.7442 13.6862 43.59 13.6045 43.4237 13.5584C43.2575 13.5124 43.0832 13.5031 42.913 13.5313C42.6421 13.5788 42.397 13.7213 42.2216 13.9331C42.0462 14.1449 41.952 14.4122 41.9558 14.6872V17.0417H40.6319C40.325 17.0458 40.0319 17.1697 39.8149 17.3868C39.598 17.604 39.4745 17.8973 39.4707 18.2042C39.4691 18.3571 39.498 18.5089 39.5558 18.6505C39.6136 18.7921 39.6991 18.9207 39.8072 19.0289C39.9154 19.137 40.044 19.2225 40.1857 19.2803C40.3273 19.3381 40.479 19.367 40.6319 19.3654H41.9558V27.11C41.9561 27.418 42.0786 27.7133 42.2962 27.9312C42.5139 28.1491 42.809 28.2718 43.117 28.2725C43.4239 28.2684 43.7171 28.1445 43.934 27.9274C44.1509 27.7102 44.2744 27.4169 44.2782 27.11V19.3708H45.6874C45.8405 19.3725 45.9923 19.3437 46.1341 19.286C46.2759 19.2283 46.4047 19.1429 46.513 19.0347C46.6213 18.9265 46.7069 18.7978 46.7647 18.6561C46.8226 18.5144 46.8516 18.3626 46.85 18.2095C46.8498 18.0567 46.8195 17.9054 46.7609 17.7642C46.7022 17.6231 46.6163 17.4949 46.5081 17.3869C46.3999 17.279 46.2715 17.1934 46.1303 17.1351C45.989 17.0767 45.8376 17.0468 45.6848 17.047Z" fill="white" fill-opacity="0.7"/>
<path d="M31.1969 16.8508H31.1876C28.2012 16.8508 25.7721 19.4492 25.7721 22.6436C25.7721 25.8379 28.2012 28.4363 31.1876 28.4363C33.1874 28.4363 34.9832 27.4804 35.8658 25.9419L35.8858 25.9033C36.0078 25.6752 36.0509 25.4131 36.0084 25.158C35.9769 24.9688 35.8984 24.7906 35.78 24.6396C35.6617 24.4887 35.5073 24.3699 35.3311 24.2941C35.08 24.1854 34.7986 24.1686 34.5363 24.2466C34.274 24.3246 34.0476 24.4925 33.8966 24.7207C33.23 25.6766 32.3928 26.1019 31.1929 26.1019C29.7344 26.1019 28.7158 25.0233 28.3078 23.7995H35.4631C35.7745 23.7998 36.0734 23.6766 36.294 23.4569C36.5147 23.2373 36.6393 22.939 36.6403 22.6276C36.627 19.4386 34.1886 16.8508 31.1969 16.8508ZM28.3078 21.477C28.7145 20.2532 29.7304 19.1733 31.1969 19.1733C32.6287 19.1733 33.682 20.2398 34.0886 21.477H28.3078Z" fill="white" fill-opacity="0.7"/>
<path d="M55.1705 16.8776C54.2269 16.8776 53.3076 17.1773 52.5454 17.7335V10.141C52.5451 9.83309 52.4226 9.53793 52.2049 9.32024C51.9872 9.10254 51.6921 8.98009 51.3842 8.97974C51.0773 8.98353 50.784 9.10705 50.5668 9.32397C50.3497 9.54088 50.2258 9.83404 50.2216 10.141V27.0659C50.2204 27.2336 50.2556 27.3996 50.3246 27.5524C50.3937 27.7052 50.495 27.8412 50.6216 27.9512C50.7532 28.0627 50.9074 28.1443 51.0736 28.1903C51.2398 28.2364 51.414 28.2457 51.5842 28.2178C51.8553 28.1703 52.1006 28.0277 52.276 27.8156C52.4515 27.6035 52.5456 27.3358 52.5414 27.0606V23.1943C52.5414 23.1783 52.5414 23.101 52.5294 23.0103C52.5294 22.9477 52.5161 22.877 52.5148 22.849V22.801C52.4388 21.6291 52.7427 20.5852 53.3493 19.94C53.8026 19.456 54.4159 19.2094 55.1732 19.2094C56.6597 19.2094 57.3369 20.6172 57.3369 21.9251V27.0659C57.3352 27.219 57.364 27.3708 57.4217 27.5126C57.4794 27.6544 57.5648 27.7832 57.673 27.8915C57.7812 27.9998 57.9099 28.0854 58.0516 28.1432C58.1933 28.2011 58.3451 28.2301 58.4982 28.2285C58.8061 28.2278 59.1013 28.105 59.3189 27.8871C59.5366 27.6692 59.659 27.3739 59.6594 27.0659V21.9158C59.662 19.4734 58.0889 16.8776 55.1705 16.8776Z" fill="white" fill-opacity="0.7"/>
<path d="M109.589 17.1548L109.564 17.1468C109.392 17.095 109.21 17.0844 109.033 17.1159C108.856 17.1474 108.689 17.2201 108.545 17.3281C108.399 17.4362 108.28 17.5768 108.198 17.7388C108.115 17.9007 108.072 18.0796 108.071 18.2613V21.5597C108.071 23.6995 107.775 26.1552 105.472 26.1552C103.986 26.1552 103.308 24.7487 103.308 23.4408V18.2667C103.308 17.9588 103.186 17.6637 102.968 17.446C102.75 17.2283 102.455 17.1058 102.147 17.1055C101.84 17.1096 101.547 17.2333 101.331 17.4501C101.114 17.667 100.99 17.96 100.986 18.2667V23.4462C100.986 24.746 101.386 25.9659 102.116 26.8831C102.469 27.3229 102.905 27.6886 103.399 27.9589C103.894 28.2293 104.437 28.3989 104.997 28.4582C105.558 28.5175 106.124 28.4651 106.664 28.3041C107.204 28.1432 107.707 27.8768 108.144 27.5204C108.224 27.7455 108.372 27.9399 108.568 28.0766C108.764 28.2133 108.998 28.2855 109.237 28.283C109.545 28.2827 109.841 28.16 110.058 27.942C110.276 27.724 110.398 27.4286 110.398 27.1205V18.2827C110.399 18.0336 110.321 17.7906 110.176 17.5882C110.03 17.3858 109.825 17.2342 109.589 17.1548Z" fill="white" fill-opacity="0.7"/>
<path d="M68.7131 16.8508H68.7038C65.7174 16.8508 63.287 19.4492 63.287 22.6436C63.287 25.8379 65.7174 28.4363 68.7038 28.4363C70.7036 28.4363 72.4994 27.4804 73.382 25.9419L73.402 25.9033C73.524 25.6752 73.5671 25.4131 73.5246 25.158C73.4931 24.9688 73.4146 24.7906 73.2962 24.6396C73.1779 24.4887 73.0236 24.3699 72.8474 24.2941C72.5962 24.1854 72.3148 24.1686 72.0526 24.2466C71.7903 24.3246 71.5638 24.4925 71.4128 24.7207C70.7462 25.6766 69.909 26.1019 68.7091 26.1019C67.2506 26.1019 66.232 25.0233 65.8241 23.7995H72.978C73.2895 23.7998 73.5885 23.6767 73.8094 23.457C74.0303 23.2374 74.1552 22.9391 74.1566 22.6276C74.1499 19.4386 71.7088 16.8508 68.7131 16.8508ZM65.8241 21.477C66.232 20.2518 67.2506 19.1733 68.7091 19.1733C70.141 19.1733 71.1942 20.2398 71.6008 21.477H65.8241Z" fill="white" fill-opacity="0.7"/>
<path d="M126.361 16.8777C125.665 16.8794 124.978 17.0418 124.355 17.3521C123.732 17.6624 123.189 18.1123 122.768 18.6668C122.372 18.11 121.848 17.6571 121.24 17.3467C120.632 17.0363 119.958 16.8777 119.275 16.8844C118.299 16.883 117.348 17.1999 116.568 17.7869C116.5 17.6128 116.389 17.4581 116.247 17.3363C116.116 17.2246 115.961 17.1428 115.795 17.0968C115.629 17.0507 115.455 17.0415 115.284 17.0697C115.014 17.1172 114.769 17.2596 114.593 17.4714C114.418 17.6832 114.323 17.9506 114.327 18.2256V27.066C114.326 27.2337 114.361 27.3997 114.43 27.5525C114.499 27.7053 114.601 27.8414 114.727 27.9512C114.941 28.1317 115.212 28.2301 115.491 28.2285C115.556 28.2285 115.621 28.2231 115.686 28.2126C115.959 28.167 116.206 28.0253 116.383 27.813C116.561 27.6007 116.656 27.3319 116.652 27.0553V23.253C116.667 23.15 116.667 23.0455 116.652 22.9424V22.9331C116.604 21.5506 116.896 20.4893 117.498 19.8667C117.928 19.4214 118.511 19.2001 119.277 19.2001C120.985 19.2001 121.441 20.888 121.441 21.8839V27.066C121.439 27.219 121.468 27.3709 121.526 27.5127C121.584 27.6544 121.669 27.7833 121.777 27.8915C121.885 27.9998 122.014 28.0854 122.156 28.1433C122.298 28.2012 122.449 28.2302 122.602 28.2285C122.911 28.2282 123.206 28.1056 123.424 27.8876C123.641 27.6696 123.764 27.3741 123.764 27.066V23.0664C123.764 21.7332 124.308 19.2001 126.363 19.2001C128.07 19.2001 128.526 20.888 128.526 21.8839V27.066C128.524 27.219 128.553 27.3709 128.611 27.5127C128.668 27.6544 128.754 27.7833 128.862 27.8915C128.97 27.9998 129.099 28.0854 129.24 28.1433C129.382 28.2012 129.534 28.2302 129.687 28.2285C129.995 28.2282 130.291 28.1056 130.509 27.8877C130.727 27.6697 130.849 27.3742 130.85 27.066V21.8839C130.852 19.4574 129.278 16.8777 126.361 16.8777Z" fill="white" fill-opacity="0.7"/>
<path d="M91.9175 16.8508H91.9068C88.9204 16.8508 86.4913 19.4492 86.4913 22.6436C86.4913 25.8379 88.9204 28.4363 91.9068 28.4363C93.9066 28.4363 95.7037 27.4804 96.585 25.9419L96.6063 25.9033C96.7283 25.6752 96.7715 25.4131 96.729 25.158C96.6975 24.9688 96.6189 24.7906 96.5006 24.6396C96.3823 24.4887 96.2279 24.3699 96.0517 24.2941C95.8006 24.1854 95.5192 24.1686 95.2569 24.2466C94.9946 24.3246 94.7681 24.4925 94.6172 24.7207C93.9506 25.6766 93.1133 26.1019 91.9121 26.1019C90.4549 26.1019 89.4364 25.0233 89.0284 23.7995H96.177C96.4886 23.7998 96.7875 23.6767 97.0084 23.457C97.2293 23.2374 97.3542 22.9391 97.3556 22.6276C97.3489 19.4386 94.9092 16.8508 91.9175 16.8508ZM89.0284 21.477C89.4364 20.2518 90.4549 19.1733 91.9121 19.1733C93.3453 19.1733 94.3985 20.2398 94.8052 21.477H89.0284Z" fill="white" fill-opacity="0.7"/>
<path d="M82.8757 17.0522C81.9025 17.0522 80.9919 17.4601 80.2466 18.0427C80.2063 17.7675 80.0687 17.5159 79.8587 17.3335C79.7272 17.2219 79.573 17.1402 79.4067 17.0942C79.2405 17.0481 79.0663 17.0388 78.8961 17.0668C78.6251 17.1143 78.3798 17.2567 78.2042 17.4684C78.0286 17.6802 77.934 17.9476 77.9375 18.2227V27.0338C77.9363 27.1873 77.9657 27.3395 78.024 27.4814C78.0823 27.6234 78.1684 27.7523 78.2771 27.8606C78.3859 27.9688 78.5152 28.0543 78.6574 28.112C78.7996 28.1696 78.9519 28.1983 79.1054 28.1964C79.1719 28.1963 79.2384 28.1909 79.3041 28.1804C79.5752 28.1328 79.8205 27.9902 79.9959 27.7781C80.1713 27.566 80.2654 27.2984 80.2613 27.0232V23.1569C80.2613 22.1396 80.5279 19.7332 83.0477 19.3679C83.3374 19.3362 83.6045 19.1964 83.7958 18.9765C83.987 18.7566 84.0884 18.4727 84.0796 18.1814C84.0796 18.0344 84.0498 17.8889 83.992 17.7537C83.9343 17.6185 83.8498 17.4964 83.7436 17.3948C83.5105 17.1711 83.1988 17.048 82.8757 17.0522Z" fill="white" fill-opacity="0.7"/>
<path d="M11.6002 27.8685L2.46777 22.573L11.6002 35.2171L20.7313 22.573L11.6002 27.8751V27.8685Z" fill="white" fill-opacity="0.7"/>
<path d="M20.7313 20.8745L11.6002 5.99463L2.46777 20.8745L11.6002 26.1766L20.7313 20.8745Z" fill="white" fill-opacity="0.7"/>
</g>
<defs>
<clipPath id="clip0_31_623">
<rect width="133.32" height="40" fill="white"/>
</clipPath>
</defs>
</svg>
