<svg width="24" height="24" viewBox="0 0 24 24" fill="none" xmlns="http://www.w3.org/2000/svg">
<path fill-rule="evenodd" clip-rule="evenodd" d="M15.9999 2.99997C15.9999 2.44769 15.5522 1.99999 14.9999 2C14.4476 2.00001 13.9999 2.44774 13.9999 3.00003C13.9999 3.17334 13.9397 3.45556 13.7884 3.66571C13.6738 3.82487 13.4741 4 13 4C12.4702 4 11.9655 4.10956 11.5511 4.39767C11.1184 4.69848 10.8896 5.12054 10.7983 5.53514C10.6954 6.00321 10.7611 6.47367 10.8754 6.86148C6.96817 6.46344 3.3803 9.09842 2.60628 12.9686L2.3832 14.084C2.13662 15.3169 2.35842 16.5974 3.00531 17.6755C4.18194 19.6366 6.5288 20.5632 8.72777 19.9349L10.1003 19.5428C11.3419 19.188 12.6581 19.188 13.8997 19.5428L15.2722 19.9349C17.4712 20.5632 19.818 19.6366 20.9947 17.6755C21.6415 16.5974 21.8634 15.3169 21.6168 14.084L21.3937 12.9686C20.611 9.05489 16.9507 6.40431 12.9926 6.87607C12.9789 6.76644 12.9466 6.65723 12.8944 6.55279C12.8439 6.45165 12.7955 6.32292 12.7684 6.19672C12.7521 6.12063 12.7473 6.06314 12.7471 6.02354C12.7951 6.01214 12.8754 6 13 6C14.1259 6 14.9261 5.50847 15.4115 4.83429C15.8602 4.21111 16 3.49333 15.9999 2.99997ZM7.99999 10C8.55227 10 8.99999 10.4477 8.99999 11V12H9.99999C10.5523 12 11 12.4477 11 13C11 13.5523 10.5523 14 9.99999 14H8.99999V15C8.99999 15.5523 8.55227 16 7.99999 16C7.4477 16 6.99999 15.5523 6.99999 15V14H5.99999C5.4477 14 4.99999 13.5523 4.99999 13C4.99999 12.4477 5.4477 12 5.99999 12H6.99999V11C6.99999 10.4477 7.4477 10 7.99999 10ZM16 10C16.5523 10 17 10.4477 17 11C17 11.5523 16.5523 12 16 12C15.4477 12 15 11.5523 15 11C15 10.4477 15.4477 10 16 10ZM17 15C17 14.4477 16.5523 14 16 14C15.4477 14 15 14.4477 15 15C15 15.5523 15.4477 16 16 16C16.5523 16 17 15.5523 17 15ZM18 12C18.5523 12 19 12.4477 19 13C19 13.5523 18.5523 14 18 14C17.4477 14 17 13.5523 17 13C17 12.4477 17.4477 12 18 12ZM15 13C15 12.4477 14.5523 12 14 12C13.4477 12 13 12.4477 13 13C13 13.5523 13.4477 14 14 14C14.5523 14 15 13.5523 15 13Z" fill="white"/>
</svg>
