<svg width="24" height="24" viewBox="0 0 24 24" fill="none" xmlns="http://www.w3.org/2000/svg">
<path d="M7.8354 16.1222C7.93256 16.3399 7.6358 16.5144 7.49277 16.3237L2.98971 10.3196C2.87935 10.1725 3.0094 9.96691 3.18963 10.0036L5.19554 10.4122C5.25879 10.4251 5.31194 10.4678 5.33825 10.5267L7.8354 16.1222Z" fill="white" fill-opacity="0.7"/>
<path d="M20.8104 10.0036C20.9906 9.96687 21.1207 10.1724 21.0103 10.3196L16.5068 16.3243C16.3637 16.515 16.067 16.3405 16.1641 16.1228L18.6616 10.5267C18.6879 10.4678 18.741 10.4251 18.8043 10.4122L20.8104 10.0036Z" fill="white" fill-opacity="0.7"/>
<path d="M17.4184 3.78017C17.3781 3.63641 17.5038 3.50076 17.6502 3.53004L18.9376 3.78753C19.6004 3.92008 20.1514 4.37838 20.4024 5.00591L21.4377 7.59417C21.484 7.71001 21.4141 7.83953 21.2919 7.86443L18.8938 8.35293C18.7911 8.37385 18.6896 8.31191 18.6613 8.21097L17.4184 3.78017Z" fill="white" fill-opacity="0.7"/>
<path d="M8.83941 3.1357C8.85829 3.06837 8.91337 3.01733 8.98195 3.00361C8.99396 3.00121 9.00617 3 9.01842 3H14.9816C14.9938 3 15.006 3.00121 15.018 3.0036C15.0865 3.0173 15.1415 3.06826 15.1604 3.1355L16.6095 8.30154C16.6453 8.42909 16.5494 8.55556 16.417 8.55556H7.58286C7.45038 8.55556 7.35451 8.42909 7.39029 8.30154L8.83941 3.1357Z" fill="white" fill-opacity="0.7"/>
<path d="M6.34962 3.53008C6.49603 3.5008 6.62174 3.63645 6.58141 3.78021L5.33849 8.21097C5.31018 8.31191 5.20873 8.37385 5.10601 8.35293L2.7081 7.86446C2.58585 7.83956 2.51599 7.71004 2.56232 7.59421L3.59764 5.00591C3.84865 4.37838 4.39962 3.92008 5.06236 3.78753L6.34962 3.53008Z" fill="white" fill-opacity="0.7"/>
<path d="M12.1826 20.137C12.112 20.295 11.8878 20.295 11.8173 20.137L7.66689 10.8371C7.60785 10.7048 7.70466 10.5556 7.84953 10.5556H16.1503C16.2952 10.5556 16.392 10.7048 16.3329 10.8371L12.1826 20.137Z" fill="white" fill-opacity="0.7"/>
</svg>
