<svg width="29" height="29" viewBox="0 0 29 29" fill="none" xmlns="http://www.w3.org/2000/svg">
<path d="M3.71563 7.18848C3.71563 7.18848 2.25431 7.30402 2.05946 7.63254C1.86235 7.96105 1.85103 8.46629 1.85103 9.02137C1.85103 9.57871 1.82837 10.8565 1.82837 10.8565L2.17728 11.6064C2.17728 11.6064 2.24298 21.1651 2.24298 21.4619C2.24298 21.7564 2.24298 22.1167 2.66892 22.3455C3.09485 22.5743 13.92 27.8034 14.2576 27.9439C14.7674 28.1546 15.0098 28.0753 15.0098 28.0753L27.038 7.95879C27.038 7.95879 26.9995 7.40824 26.4988 7.27684C26.211 7.20434 3.71563 7.18848 3.71563 7.18848Z" fill="#F5B03E"/>
<path d="M14.8806 13.8027C14.697 14.3079 14.7809 19.5324 14.8126 23.3319C14.8443 27.1291 14.7152 27.9152 14.8126 28.0467C14.91 28.1781 15.1751 28.0512 15.925 27.7181C17.3184 27.1019 24.011 23.7895 24.5027 23.495C24.9943 23.2005 26.1951 22.591 26.3922 22.2625C26.5893 21.934 26.6958 18.8777 26.7615 16.424C26.8272 13.9681 26.8929 12.0038 26.8929 12.0038L27.1874 11.1202C27.1874 11.1202 27.124 8.7322 27.1127 8.46939C27.0923 8.03439 27.0447 7.81009 26.9337 7.86447C26.7751 7.93923 25.452 9.02447 21.9493 10.7282C19.7494 11.7953 15.0074 13.4538 14.8806 13.8027Z" fill="#E07F14"/>
<path d="M14.9124 2.54003C13.9314 2.49472 11.2467 4.04667 8.65932 4.89628C6.07198 5.74589 2.16604 7.45417 2.13206 7.55386C2.10034 7.65128 3.7044 8.36949 4.72846 8.86113C5.9451 9.44339 10.5896 11.6433 11.4392 12.0035C12.2911 12.3638 14.3211 13.2066 14.6474 13.1817C15.105 13.15 19.4278 11.4462 21.621 10.3995C23.8141 9.35277 26.5555 7.73058 26.5917 7.33636C26.6076 7.15964 22.5589 5.64847 20.5403 4.73542C16.6434 2.9705 15.6306 2.57402 14.9124 2.54003Z" fill="#FDD717"/>
<path d="M1.83966 11.2762C1.87364 11.7021 2.107 11.8539 2.7006 12.1122C3.29419 12.3705 14.5158 18.2 14.7741 18.2C15.0324 18.2 15.1094 17.2756 14.8262 17.3005C14.6722 17.3141 10.986 15.5628 7.54224 13.8137C4.61958 12.332 1.82153 10.8525 1.82153 10.8525L1.83966 11.2762Z" fill="#E37D14"/>
<path d="M27.1898 11.0996C27.1898 11.0996 15.2069 17.1941 15.0891 17.253C14.9713 17.312 14.7832 17.2916 14.7832 17.2916L14.7742 18.2001C14.7742 18.2001 14.8852 18.225 15.0098 18.1865C15.0823 18.1638 26.8432 12.0761 26.8953 12.058C26.9474 12.0398 27.1739 11.9039 27.2215 11.6162C27.2623 11.3851 27.1898 11.0996 27.1898 11.0996Z" fill="#BA5E0D"/>
<path d="M6.53849 22.0712L8.88341 25.5603L9.90974 25.9115C9.90974 25.9115 9.99357 22.1052 10.0276 19.2845C10.0751 15.1634 10.057 11.4047 10.1159 11.1917C10.2133 10.8315 14.774 9.35203 14.774 9.35203C14.774 9.35203 19.9261 10.9674 20.0892 11.3277C20.1617 11.4862 20.1051 14.1552 20.0892 17.2659C20.0688 21.1945 20.0756 25.7302 20.0756 25.7302C20.0756 25.7302 20.608 25.728 20.6715 25.5309C20.7372 25.3337 21 23.8135 21 23.8135L22.9983 10.4939L24.0133 9.18437L22.604 6.50188L16.8222 3.65625L14.8352 4.10258L12.6851 3.77406L5.8656 8.67461L6.66084 10.2877L8.61154 11.2823L6.53849 22.0712Z" fill="#AF0F1B"/>
<path d="M20.6806 11.1897C20.556 11.4638 20.6285 25.59 20.6285 25.59C20.6285 25.59 21.2516 25.2456 22.0536 24.8605C22.8511 24.4776 23.4243 24.2397 23.4741 24.0403C23.524 23.8409 23.6123 9.87109 23.6123 9.87109L20.6806 11.1897Z" fill="#DC0D28"/>
<path d="M9.36826 10.8977C9.44302 10.9792 9.32068 25.6378 9.16888 25.6718C9.0488 25.7013 6.31873 24.4823 6.31873 24.3577C6.31873 24.2331 6.53849 10.2248 6.53849 10.2248C6.53849 10.2248 9.14622 10.6484 9.36826 10.8977ZM14.7786 3.22852C14.0241 3.22852 13.1904 3.44375 12.9479 4.07586C12.7055 4.70797 12.6511 5.6482 12.6511 6.35055C12.6511 7.02344 12.5424 8.74531 14.6154 8.71813C16.6885 8.69094 16.7497 7.92289 16.7814 6.2282C16.8086 4.81445 16.6205 4.12797 16.4325 3.83344C16.2648 3.56836 15.7075 3.22852 14.7786 3.22852Z" fill="#FF2A23"/>
<path d="M13.5803 6.72626C14.0516 6.75345 14.2532 5.71806 14.6157 5.15165C14.9782 4.58751 15.3566 4.20915 15.2206 3.91462C15.1096 3.66993 14.1241 3.59064 13.5917 4.3315C13.2178 4.85486 13.1521 6.70134 13.5803 6.72626Z" fill="#FCC9D2"/>
<path d="M16.6139 3.72039C16.6139 3.72039 17.2823 4.40008 17.4567 5.73227C17.6312 7.06446 17.4295 8.09985 17.4295 8.09985C17.4295 8.09985 20.7509 8.00016 21.8973 8.21992C23.0279 8.43969 23.4221 8.93813 23.4221 9.30063C23.4221 9.66313 22.679 9.95539 21.9245 9.90102C21.1701 9.84664 20.6603 9.80586 20.5651 9.99617C20.47 10.1865 20.6059 10.481 21.6549 10.5603C22.7039 10.6419 23.916 10.4923 24.2921 9.18735C24.6682 7.88235 24.6818 5.62125 24.5481 3.99227C24.4144 2.36329 24.1199 1.43211 23.3904 1.07868C22.6223 0.709379 20.6988 0.648207 18.8818 1.67C17.0647 2.6918 16.6139 3.72039 16.6139 3.72039Z" fill="#FF2A23"/>
<path d="M20.3771 2.17048C20.1414 1.86688 19.3825 1.87594 18.9769 2.34493C18.5464 2.84337 18.4513 4.73969 19.0041 4.84844C19.6294 4.97079 19.5161 3.94673 19.9738 3.31462C20.4224 2.6961 20.6059 2.46727 20.3771 2.17048Z" fill="#FCC9D2"/>
<path d="M12.7736 3.78614C12.7736 3.78614 10.2293 0.820436 7.32248 0.865748C5.57342 0.892936 5.12936 1.90114 5.0342 2.31801C4.93905 2.73489 4.21405 6.88098 5.18147 9.12622C6.14889 11.3715 8.15623 10.7892 8.47116 10.7167C8.87444 10.6215 9.73311 10.327 9.65155 10.0166C9.56998 9.70622 6.71756 10.8232 6.69037 9.54536C6.66319 8.26755 8.70905 8.13161 9.65155 8.10442C10.594 8.07723 12.2094 8.29247 12.2094 8.29247C12.2094 8.29247 11.9262 6.74505 12.1143 5.64169C12.3023 4.53833 12.7736 3.78614 12.7736 3.78614Z" fill="#FF2A23"/>
<path d="M6.5431 1.94128C6.1806 2.31737 6.03107 4.48557 6.25989 5.56174C6.48872 6.63792 6.69036 7.09557 7.16161 7.00268C7.55583 6.92338 7.79372 4.81182 7.98177 4.0687C8.18341 3.27573 8.68185 2.43292 8.48021 2.06362C8.17208 1.49721 6.92146 1.54932 6.5431 1.94128Z" fill="#FCC9D2"/>
</svg>
