<svg width="134" height="40" viewBox="0 0 134 40" fill="none" xmlns="http://www.w3.org/2000/svg">
<g clip-path="url(#clip0_31_601)">
<path d="M25.4149 8.04126C27.7802 8.041 30.0924 8.74214 32.0592 10.056C34.026 11.3699 35.559 13.2375 36.4643 15.4227C37.3697 17.6079 37.6067 20.0124 37.1454 22.3323C36.6841 24.6522 35.5452 26.7831 33.8728 28.4557C32.2004 30.1283 30.0696 31.2674 27.7497 31.729C25.4299 32.1905 23.0253 31.9538 20.8401 31.0487C18.6548 30.1436 16.787 28.6108 15.4729 26.6442C14.1588 24.6775 13.4574 22.3653 13.4574 20.0001C13.4574 16.8286 14.7172 13.7871 16.9596 11.5444C19.202 9.30171 22.2434 8.04161 25.4149 8.04126ZM23.5191 12.6448L21.6592 19.6734L20.378 20.1694L19.7621 22.4758L21.0433 21.9919L19.9767 26.0128H31.4156L32.2009 23.0291H25.3175L26.1028 20.1054L27.3587 19.6334L27.9746 17.327L26.7174 17.811L28.0826 12.6408H23.5191V12.6448Z" fill="white" fill-opacity="0.7"/>
<path d="M42.5598 27.3019L45.6888 12.3621H48.7552L46.1568 24.7995H53.756L53.2361 27.2966L42.5598 27.3019Z" fill="white" fill-opacity="0.7"/>
<path d="M57.4743 16.479H60.394L58.1276 27.3019H55.2079L57.4743 16.479ZM58.3302 12.3621H61.2553L60.7047 15.0111H57.7743L58.3302 12.3621Z" fill="white" fill-opacity="0.7"/>
<path d="M61.7405 18.6495L62.1885 16.4791H63.615L63.9723 14.7459L67.3253 12.7288L66.5401 16.4791H68.3239L67.8733 18.6495H66.0801L65.1322 23.1824C64.9633 24.0054 64.8784 24.4743 64.8776 24.5889C64.8725 24.6869 64.8891 24.7847 64.9262 24.8755C64.9633 24.9663 65.02 25.0478 65.0922 25.1142C65.2349 25.2395 65.4922 25.3022 65.8668 25.3022C66.0001 25.3022 66.3187 25.2795 66.8347 25.2315L66.3761 27.402C65.8661 27.5044 65.3471 27.5558 64.8269 27.5553C63.7941 27.5553 63.0435 27.3562 62.5751 26.958C62.1067 26.5598 61.873 26.0083 61.8739 25.3035C61.8739 24.9711 61.9996 24.2036 62.2512 23.0011L63.1577 18.6495H61.7405Z" fill="white" fill-opacity="0.7"/>
<path d="M78.4922 22.7997H71.1596C71.1596 22.9157 71.1489 23.0037 71.1489 23.0664C71.1489 23.7863 71.3547 24.3671 71.7662 24.8089C71.9541 25.0213 72.1856 25.1908 72.4449 25.3058C72.7041 25.4209 72.9851 25.4787 73.2687 25.4755C74.2402 25.4755 74.9957 24.9724 75.5352 23.9663L78.1562 24.3996C77.647 25.4528 76.9661 26.2425 76.1138 26.7687C75.2514 27.2982 74.2566 27.5723 73.2447 27.5593C71.7898 27.5593 70.6077 27.0989 69.6984 26.1781C68.7892 25.2573 68.3341 24.0396 68.3332 22.5251C68.3126 21.1095 68.7442 19.7243 69.5651 18.5708C70.6868 17.0083 72.2866 16.2271 74.3646 16.2271C75.688 16.2271 76.7408 16.6363 77.523 17.4549C78.3051 18.2735 78.6957 19.4201 78.6948 20.8946C78.7025 21.5354 78.6345 22.1749 78.4922 22.7997ZM76.0271 21.0132C76.0338 20.8799 76.0364 20.7866 76.0364 20.7186C76.0364 19.9187 75.8565 19.3174 75.4965 18.9148C75.3142 18.7147 75.0901 18.5572 74.8401 18.4533C74.5902 18.3494 74.3204 18.3017 74.05 18.3135C73.7473 18.3146 73.4478 18.3754 73.1686 18.4926C72.8895 18.6097 72.6363 18.7808 72.4235 18.9961C71.9444 19.4503 71.6205 20.1227 71.4516 21.0132H76.0271Z" fill="white" fill-opacity="0.7"/>
<path d="M86.9007 23.225L89.7377 23.6836C89.2702 24.9475 88.5774 25.9087 87.6593 26.5673C86.7292 27.2302 85.6109 27.5769 84.4689 27.5565C83.0904 27.5565 81.9967 27.1455 81.1879 26.3233C80.3791 25.5012 79.9765 24.3711 79.9801 22.933C79.975 21.7813 80.2259 20.6429 80.7147 19.6C81.1868 18.5726 81.9576 17.7112 82.9264 17.1282C83.9005 16.5301 85.0231 16.2178 86.1661 16.227C87.4433 16.227 88.4623 16.5599 89.2231 17.2256C89.9839 17.8913 90.4124 18.7676 90.5083 19.8546L87.7259 20.1506C87.6584 19.5453 87.4731 19.1009 87.17 18.8174C86.8464 18.5239 86.4199 18.3701 85.9835 18.3895C85.3981 18.3971 84.8361 18.6202 84.4049 19.0161C83.9161 19.4373 83.5406 20.0675 83.2784 20.9065C83.0295 21.6689 82.8974 22.4644 82.8864 23.2663C82.8864 23.9053 83.0429 24.3977 83.3557 24.7435C83.501 24.9108 83.6812 25.0441 83.8838 25.134C84.0863 25.2238 84.3061 25.268 84.5276 25.2634C85.0239 25.2528 85.5017 25.0731 85.8821 24.7542C86.3194 24.4146 86.6589 23.9049 86.9007 23.225Z" fill="white" fill-opacity="0.7"/>
<path d="M91.6043 22.8076C91.6043 20.8024 92.1695 19.2026 93.3001 18.008C94.4306 16.8135 95.9167 16.2176 97.7583 16.2202C99.3581 16.2202 100.605 16.6597 101.499 17.5388C102.393 18.4178 102.842 19.6017 102.844 21.0904C102.874 22.7631 102.274 24.3859 101.163 25.6366C100.035 26.9165 98.5311 27.5564 96.6531 27.5564C95.7134 27.5748 94.7833 27.3648 93.9427 26.9445C93.1864 26.5676 92.569 25.9609 92.1789 25.2113C91.7955 24.4684 91.5983 23.6435 91.6043 22.8076ZM99.9394 20.7184C99.9394 20.0252 99.7372 19.4697 99.3328 19.0519C99.1304 18.844 98.8867 18.6808 98.6173 18.5729C98.348 18.4649 98.059 18.4147 97.769 18.4253C97.1574 18.4181 96.5627 18.6252 96.0878 19.0106C95.5945 19.4035 95.211 19.971 94.9373 20.7131C94.6824 21.3684 94.5443 22.0633 94.5293 22.7662C94.5293 23.5413 94.7399 24.1563 95.1612 24.6114C95.3614 24.8328 95.607 25.0084 95.8813 25.1262C96.1556 25.244 96.452 25.3012 96.7504 25.294C97.5503 25.294 98.2232 24.9509 98.7689 24.2648C99.5466 23.2924 99.935 22.1103 99.9341 20.7184H99.9394Z" fill="white" fill-opacity="0.7"/>
<path d="M106.181 16.479H109.106L106.84 27.3019H103.919L106.181 16.479ZM107.037 12.3621H109.962L109.412 15.0111H106.487L107.037 12.3621Z" fill="white" fill-opacity="0.7"/>
<path d="M112.021 16.4791H114.793L114.507 17.8842C115.085 17.3615 115.74 16.9303 116.448 16.6057C117.05 16.3512 117.697 16.2215 118.35 16.2244C119.238 16.2244 119.94 16.4791 120.453 16.9883C120.967 17.4976 121.223 18.1736 121.223 19.0161C121.223 19.3957 121.111 20.116 120.887 21.1773L119.613 27.302H116.688L117.972 21.1559C118.163 20.2387 118.258 19.6921 118.258 19.5161C118.266 19.3541 118.241 19.1921 118.185 19.0402C118.128 18.8883 118.04 18.7499 117.927 18.6335C117.802 18.5221 117.656 18.4366 117.498 18.3817C117.339 18.3268 117.172 18.3036 117.004 18.3135C116.576 18.3135 116.1 18.4935 115.578 18.8535C115.052 19.2162 114.627 19.7072 114.345 20.28C114.127 20.7013 113.882 21.5608 113.61 22.8584L112.683 27.302H109.758L112.021 16.4791Z" fill="white" fill-opacity="0.7"/>
</g>
<defs>
<clipPath id="clip0_31_601">
<rect width="133.32" height="40" fill="white" transform="translate(0.679993)"/>
</clipPath>
</defs>
</svg>
