<svg width="24" height="24" viewBox="0 0 24 24" fill="none" xmlns="http://www.w3.org/2000/svg">
<path fill-rule="evenodd" clip-rule="evenodd" d="M6 10V7C6 3.68629 8.68629 1 12 1C15.3137 1 18 3.68629 18 7V10C19.6569 10 21 11.3431 21 13V19C21 20.6569 19.6569 22 18 22H6C4.34315 22 3 20.6569 3 19V13C3 11.3431 4.34315 10 6 10ZM8 7C8 4.79086 9.79086 3 12 3C14.2091 3 16 4.79086 16 7V10H8V7ZM12 14C12.5523 14 13 14.4477 13 15V17C13 17.5523 12.5523 18 12 18C11.4477 18 11 17.5523 11 17V15C11 14.4477 11.4477 14 12 14Z" fill="white"/>
</svg>
