<svg width="24" height="25" viewBox="0 0 24 25" fill="none" xmlns="http://www.w3.org/2000/svg">
<g clip-path="url(#clip0_128_750)">
<path d="M23.641 15.4019C22.0377 21.8339 15.521 25.7439 9.09824 24.1405C2.66605 22.5371 -1.24389 16.0208 0.359518 9.59805C1.96283 3.16605 8.47002 -0.743887 14.9022 0.859519C21.325 2.45346 25.2444 8.96983 23.641 15.4019Z" fill="url(#paint0_linear_128_750)"/>
<path d="M17.7136 11.0047C17.9479 9.41099 16.7386 8.54849 15.0698 7.97661L15.6136 5.81099L14.3011 5.48286L13.7761 7.59224C13.4292 7.50786 13.0729 7.42349 12.7167 7.34849L13.2417 5.22974L11.9292 4.90161L11.3948 7.05786C11.1042 6.99224 10.8229 6.92661 10.5511 6.86099V6.85161L8.73232 6.40161L8.38545 7.80786C8.38545 7.80786 9.36045 8.03286 9.3417 8.04224C9.87607 8.17349 9.96982 8.52974 9.95107 8.81099L9.33232 11.2766C9.36982 11.286 9.4167 11.2954 9.47295 11.3235C9.42607 11.3141 9.3792 11.3047 9.33232 11.286L8.46982 14.736C8.4042 14.8954 8.23545 15.1391 7.86982 15.0454C7.8792 15.0641 6.91357 14.811 6.91357 14.811L6.25732 16.3204L7.97295 16.7516C8.2917 16.836 8.60107 16.911 8.91045 16.9954L8.3667 19.1797L9.6792 19.5079L10.2229 17.3422C10.5792 17.436 10.9354 17.5297 11.2729 17.6141L10.7386 19.7704L12.0511 20.0985L12.5948 17.9141C14.8448 18.336 16.5323 18.1672 17.2354 16.1329C17.8073 14.5016 17.2073 13.5547 16.0261 12.936C16.8979 12.7391 17.5448 12.1672 17.7136 11.0047ZM14.7042 15.2235C14.3011 16.8547 11.5448 15.9735 10.6542 15.7485L11.3761 12.8516C12.2667 13.0766 15.1354 13.5172 14.7042 15.2235ZM15.1167 10.9766C14.7417 12.4672 12.4542 11.7079 11.7136 11.5204L12.3698 8.89536C13.1104 9.08286 15.5011 9.42974 15.1167 10.9766Z" fill="white" fill-opacity="0.7"/>
</g>
<defs>
<linearGradient id="paint0_linear_128_750" x1="1199.35" y1="-0.0759994" x2="1199.35" y2="2400.26" gradientUnits="userSpaceOnUse">
<stop stop-color="#F9AA4B"/>
<stop offset="1" stop-color="#F7931A"/>
</linearGradient>
<clipPath id="clip0_128_750">
<rect width="24" height="24" fill="white" transform="translate(0 0.5)"/>
</clipPath>
</defs>
</svg>
