<svg width="73" height="85" viewBox="0 0 73 85" fill="none" xmlns="http://www.w3.org/2000/svg">
<path fill-rule="evenodd" clip-rule="evenodd" d="M12.25 36.417V24.292C12.25 10.8991 23.1071 0.0419922 36.5 0.0419922C49.8929 0.0419922 60.75 10.8991 60.75 24.292V36.417C67.4465 36.417 72.875 41.8455 72.875 48.542V72.792C72.875 79.4885 67.4465 84.917 60.75 84.917H12.25C5.55355 84.917 0.125 79.4885 0.125 72.792V48.542C0.125 41.8455 5.55355 36.417 12.25 36.417ZM20.3333 24.292C20.3333 15.3634 27.5714 8.12533 36.5 8.12533C45.4286 8.12533 52.6667 15.3634 52.6667 24.292V36.417H20.3333V24.292ZM36.5 52.5837C38.7322 52.5837 40.5417 54.3932 40.5417 56.6253V64.7087C40.5417 66.9408 38.7322 68.7503 36.5 68.7503C34.2679 68.7503 32.4583 66.9408 32.4583 64.7087V56.6253C32.4583 54.3932 34.2679 52.5837 36.5 52.5837Z" fill="white"/>
</svg>
