<svg width="24" height="25" viewBox="0 0 24 25" fill="none" xmlns="http://www.w3.org/2000/svg">
<path d="M21.47 4.85L20.13 4.29V13.32L22.56 7.46C22.97 6.44 22.5 5.27 21.47 4.85ZM1.97001 8.55L6.93001 20.5C7.07606 20.8636 7.32519 21.1765 7.64677 21.4004C7.96834 21.6243 8.34833 21.7493 8.74001 21.76C9.00001 21.76 9.27001 21.71 9.53001 21.6L16.9 18.55C17.65 18.24 18.11 17.5 18.13 16.76C18.14 16.5 18.09 16.21 18 15.95L13 4C12.8587 3.63402 12.6104 3.31906 12.2876 3.09612C11.9648 2.87317 11.5823 2.75257 11.19 2.75C10.93 2.75 10.67 2.81 10.42 2.9L3.06001 5.95C2.57077 6.15035 2.18112 6.53678 1.97672 7.02433C1.77232 7.51189 1.7699 8.06066 1.97001 8.55ZM18.12 4.75C18.12 4.21957 17.9093 3.71086 17.5342 3.33579C17.1591 2.96071 16.6504 2.75 16.12 2.75H14.67L18.12 11.09" fill="white" fill-opacity="0.7"/>
</svg>
