<svg width="24" height="24" viewBox="0 0 24 24" fill="none" xmlns="http://www.w3.org/2000/svg">
<path fill-rule="evenodd" clip-rule="evenodd" d="M13 2H7C5.34315 2 4 3.34315 4 5V19C4 20.6569 5.34315 22 7 22H17C18.6569 22 20 20.6569 20 19V10H17C14.7909 10 13 8.20914 13 6V2ZM7 12C7 11.4477 7.44772 11 8 11H16C16.5523 11 17 11.4477 17 12C17 12.5523 16.5523 13 16 13H8C7.44772 13 7 12.5523 7 12ZM8 16C7.44772 16 7 16.4477 7 17C7 17.5523 7.44772 18 8 18H16C16.5523 18 17 17.5523 17 17C17 16.4477 16.5523 16 16 16H8Z" fill="white" fill-opacity="0.7"/>
<path d="M19.7965 8C19.6797 7.6993 19.5143 7.41716 19.3047 7.1656L15.8995 3.07945C15.6469 2.77634 15.3405 2.52989 15 2.34941V6C15 7.10457 15.8954 8 17 8H19.7965Z" fill="white" fill-opacity="0.7"/>
</svg>
