<svg width="24" height="24" viewBox="0 0 24 24" fill="none" xmlns="http://www.w3.org/2000/svg">
<path d="M15 4C13.6887 4 12.5738 4.84136 12.1659 6.0137C12.1119 6.00469 12.0565 6 12 6L3 6C2.44772 6 2 6.44772 2 7C2 7.55228 2.44772 8 3 8L12 8C12.0565 8 12.1119 7.99531 12.1659 7.9863C12.5738 9.15864 13.6887 10 15 10C16.3113 10 17.4262 9.15864 17.8341 7.9863C17.8881 7.99531 17.9435 8 18 8L21 8C21.5523 8 22 7.55228 22 7C22 6.44772 21.5523 6 21 6H18C17.9435 6 17.8881 6.00469 17.8341 6.0137C17.4262 4.84136 16.3113 4 15 4Z" fill="white" fill-opacity="0.7"/>
<path d="M6.1659 16.0137C6.11194 16.0047 6.05652 16 6 16H3C2.44772 16 2 16.4477 2 17C2 17.5523 2.44772 18 3 18H6C6.05652 18 6.11194 17.9953 6.1659 17.9863C6.57385 19.1586 7.68867 20 9 20C10.3113 20 11.4262 19.1586 11.8341 17.9863C11.8881 17.9953 11.9435 18 12 18L21 18C21.5523 18 22 17.5523 22 17C22 16.4477 21.5523 16 21 16L12 16C11.9435 16 11.8881 16.0047 11.8341 16.0137C11.4262 14.8414 10.3113 14 9 14C7.68867 14 6.57385 14.8414 6.1659 16.0137Z" fill="white" fill-opacity="0.7"/>
</svg>
