<svg width="24" height="24" viewBox="0 0 24 24" fill="none" xmlns="http://www.w3.org/2000/svg">
<path fill-rule="evenodd" clip-rule="evenodd" d="M5 2C3.34315 2 2 3.34315 2 5V19C2 20.6569 3.34315 22 5 22H19C20.6569 22 22 20.6569 22 19V5C22 3.34315 20.6569 2 19 2H5ZM3.79289 9.20711C3.40237 8.81658 3.40237 8.18342 3.79289 7.79289L7.79289 3.79289C8.18342 3.40237 8.81658 3.40237 9.20711 3.79289C9.59763 4.18342 9.59763 4.81658 9.20711 5.20711L6.91421 7.5H8.5C15.1274 7.5 20.5 12.8726 20.5 19.5C20.5 20.0523 20.0523 20.5 19.5 20.5C18.9477 20.5 18.5 20.0523 18.5 19.5C18.5 13.9772 14.0228 9.5 8.5 9.5H6.91421L9.20711 11.7929C9.59763 12.1834 9.59763 12.8166 9.20711 13.2071C8.81658 13.5976 8.18342 13.5976 7.79289 13.2071L3.79289 9.20711Z" fill="white" fill-opacity="0.7"/>
</svg>
