<svg width="134" height="40" viewBox="0 0 134 40" fill="none" xmlns="http://www.w3.org/2000/svg">
<g clip-path="url(#clip0_31_651)">
<path d="M53.0107 16.4177C52.55 16.2887 52.0733 16.2254 51.5948 16.2298C49.895 16.2298 48.0992 17.5523 48.0992 19.2521V27.2807H44.2329V13.0154H47.9139V14.4326C48.7671 13.3941 50.371 12.7328 52.0695 12.7328C52.6347 12.7328 52.9227 12.8288 53.392 12.8288L53.0187 16.4151L53.0107 16.4177ZM57.3569 5.46818C57.6801 5.46588 58.0006 5.52781 58.2996 5.6504C58.5987 5.77298 58.8704 5.95376 59.099 6.18224C59.3276 6.41072 59.5085 6.68234 59.6313 6.98134C59.754 7.28033 59.8161 7.60073 59.814 7.92393C59.814 9.34113 58.6781 10.3797 57.2609 10.3797C55.8437 10.3797 54.7092 9.33446 54.7092 7.9186C54.7493 7.24752 55.0472 6.61791 55.5406 6.16127C56.034 5.70464 56.6848 5.45632 57.3569 5.46818ZM59.2434 27.286H55.3705V13.0208H59.2434V27.286ZM70.5756 12.7408C69.0725 12.7471 67.6126 13.2448 66.4187 14.158V13.0181H62.6431V34.3613H66.516V26.2421C67.6209 27.1099 68.9881 27.5758 70.393 27.5633C72.4701 27.5633 74.5485 26.6194 75.7738 25.1075C76.9083 23.785 77.5696 22.0865 77.5696 20.104C77.5696 15.9485 74.4526 12.7355 70.5796 12.7355M70.1103 24.0677C67.7492 24.0677 66.1454 22.4678 66.1454 20.104C66.1454 17.7403 67.7452 16.1391 70.1103 16.1391C72.1874 16.1391 73.7913 17.9349 73.7913 20.104C73.7913 22.3705 72.0915 24.0677 70.1103 24.0677ZM97.0196 6.31476H100.886V27.2807H97.0196V6.31476ZM116.476 25.0116C115.059 26.6114 112.795 27.5633 110.621 27.5633C106.369 27.5633 103.155 24.6383 103.155 20.104C103.155 16.1391 105.893 12.6448 110.145 12.6448C114.11 12.6448 116.944 15.9485 116.944 19.9174C116.96 20.2981 116.928 20.6793 116.848 21.052H106.844C107.031 23.0344 108.64 24.4516 110.717 24.4516C112.317 24.4516 113.642 23.5077 114.309 22.8518L116.476 25.0116ZM112.886 18.3082C112.79 17.083 111.661 15.7565 110.052 15.7565C108.442 15.7565 107.127 16.9817 107.031 18.3082H112.886ZM87.7646 12.7355C86.2618 12.7416 84.8023 13.2393 83.609 14.1526V13.0181H79.9267V34.3613H83.793V26.2421C84.9288 27.094 86.1541 27.5633 87.6672 27.5633C89.7444 27.5633 91.8228 26.6194 93.048 25.1075C94.1826 23.785 94.8439 22.0865 94.8439 20.104C94.7479 15.9485 91.6308 12.7355 87.7579 12.7355M87.2886 24.0677C84.9288 24.0677 83.325 22.4678 83.325 20.104C83.325 17.7403 84.9248 16.1391 87.2886 16.1391C89.3671 16.1391 90.9709 17.9349 90.9709 20.104C90.9709 22.3705 89.2711 24.0677 87.2886 24.0677Z" fill="white" fill-opacity="0.7"/>
<path d="M31.2929 7.82257C30.5169 8.27664 29.8732 8.92574 29.4255 9.70545C28.9779 10.4852 28.742 11.3684 28.7412 12.2675C28.7412 13.2114 29.1184 14.1593 29.5931 15.0072C29.9717 15.7631 30.1583 17.0843 28.8371 17.7456C27.8932 18.3095 26.6627 17.9322 26.0974 16.9883C25.5335 16.2324 24.8722 15.4751 24.0203 14.9112C23.2504 14.4481 22.369 14.2033 21.4705 14.2033C20.5721 14.2033 19.6907 14.4481 18.9208 14.9112C18.1445 15.3637 17.5004 16.0118 17.0527 16.7909C16.6051 17.57 16.3695 18.4529 16.3695 19.3514C16.3695 20.25 16.6051 21.1328 17.0527 21.9119C17.5004 22.691 18.1445 23.3391 18.9208 23.7916C19.6907 24.2548 20.5721 24.4995 21.4705 24.4995C22.369 24.4995 23.2504 24.2548 24.0203 23.7916C24.8617 23.2961 25.5468 22.5741 25.9974 21.7078C26.3747 21.0412 27.4146 20.1947 28.7358 20.9506C29.6784 21.5159 29.961 22.7464 29.4917 23.6903C29.0121 24.5245 28.752 25.4667 28.7358 26.4287C28.7366 27.3269 28.9726 28.2092 29.4203 28.9879C29.868 29.7665 30.5117 30.4144 31.2876 30.8669C32.0574 31.3295 32.9385 31.5739 33.8366 31.5739C34.7347 31.5739 35.6159 31.3295 36.3857 30.8669C37.1624 30.4152 37.807 29.7676 38.255 28.9888C38.7031 28.21 38.9388 27.3272 38.9388 26.4287C38.9388 25.5302 38.7031 24.6474 38.255 23.8686C37.807 23.0898 37.1624 22.4422 36.3857 21.9905C35.5338 21.5159 34.5912 21.3239 33.5513 21.3239C32.6994 21.3239 31.5702 20.7586 31.5702 19.3414C31.5638 19.0795 31.6107 18.819 31.708 18.5758C31.8053 18.3325 31.951 18.1116 32.1362 17.9263C32.3215 17.741 32.5424 17.5953 32.7857 17.4981C33.0289 17.4008 33.2894 17.3539 33.5513 17.3603C34.4952 17.3603 35.5338 17.1736 36.3857 16.6937C37.1624 16.242 37.807 15.5944 38.255 14.8155C38.7031 14.0367 38.9388 13.154 38.9388 12.2555C38.9388 11.357 38.7031 10.4742 38.255 9.69537C37.807 8.91654 37.1624 8.26893 36.3857 7.81723C35.6298 7.34262 34.6872 7.15063 33.834 7.15063C32.9807 7.15063 32.0395 7.33728 31.2876 7.80657" fill="white" fill-opacity="0.7"/>
</g>
<defs>
<clipPath id="clip0_31_651">
<rect width="133.32" height="40" fill="white"/>
</clipPath>
</defs>
</svg>
