<svg width="24" height="24" viewBox="0 0 24 24" fill="none" xmlns="http://www.w3.org/2000/svg">
<path fill-rule="evenodd" clip-rule="evenodd" d="M6.39622 11.1779C15.3705 1.57299 19.5114 2.45063 20.8593 3.02444C21.4331 4.37232 22.3107 8.51319 12.7057 17.4875C12.3794 12.9185 10.9652 11.5043 6.39622 11.1779ZM17.3294 8.67588C16.7437 9.26166 15.7939 9.26166 15.2081 8.67588C14.6223 8.09009 14.6223 7.14034 15.2081 6.55456C15.7939 5.96877 16.7437 5.96877 17.3294 6.55456C17.9152 7.14034 17.9152 8.09009 17.3294 8.67588Z" fill="white"/>
<path d="M9.19774 6.71777C8.26774 6.02348 5.31305 6.51003 2.48022 9.89975C3.31617 10.7357 4.28679 10.5206 5.02145 10.3578C5.26564 10.3037 5.48376 10.2553 5.6622 10.2533L9.19774 6.71777Z" fill="white"/>
<path d="M16.9761 14.6865C17.6704 15.6165 17.1838 18.5712 13.7941 21.404C12.9581 20.5681 13.1732 19.5975 13.336 18.8628C13.3901 18.6186 13.4385 18.4005 13.4405 18.2221L16.9761 14.6865Z" fill="white"/>
<path d="M6.36918 17.5148C6.36918 17.5148 6.84059 15.1578 7.42984 14.3328C7.42984 14.3328 8.69979 14.1886 9.19761 14.6864C9.69543 15.1842 9.55116 16.4542 9.55116 16.4542C8.37265 17.1613 6.36918 17.5148 6.36918 17.5148Z" fill="white"/>
</svg>
