<svg width="24" height="24" viewBox="0 0 24 24" fill="none" xmlns="http://www.w3.org/2000/svg">
<path fill-rule="evenodd" clip-rule="evenodd" d="M13.8065 2.74741C12.7992 1.773 11.2007 1.773 10.1935 2.74741C9.61748 3.30462 8.81658 3.56485 8.02307 3.45261C6.63545 3.25634 5.34221 4.19594 5.10007 5.5763C4.96161 6.36565 4.46663 7.04694 3.7587 7.42255C2.52072 8.07939 2.02674 9.59968 2.64221 10.8587C2.99416 11.5787 2.99416 12.4208 2.64221 13.1408C2.02674 14.3999 2.52072 15.9202 3.7587 16.577C4.46663 16.9526 4.96161 17.6339 5.10007 18.4233C5.34221 19.8036 6.63545 20.7432 8.02308 20.547C8.81658 20.4347 9.61748 20.6949 10.1935 21.2522C11.2007 22.2266 12.7992 22.2266 13.8065 21.2522C14.3825 20.6949 15.1834 20.4347 15.9769 20.547C17.3645 20.7432 18.6578 19.8036 18.8999 18.4233C19.0384 17.6339 19.5333 16.9526 20.2413 16.577C21.4792 15.9202 21.9732 14.3999 21.3578 13.1408C21.0058 12.4208 21.0058 11.5787 21.3578 10.8587C21.9732 9.59968 21.4792 8.07939 20.2413 7.42255C19.5333 7.04694 19.0384 6.36565 18.8999 5.5763C18.6578 4.19594 17.3645 3.25634 15.9769 3.45261C15.1834 3.56485 14.3825 3.30462 13.8065 2.74741ZM12 16.9998C14.7614 16.9998 17 14.7612 17 11.9998C17 9.23836 14.7614 6.99979 12 6.99979C9.23856 6.99979 6.99998 9.23836 6.99998 11.9998C6.99998 14.7612 9.23856 16.9998 12 16.9998Z" fill="white" fill-opacity="0.7"/>
</svg>
