<svg width="24" height="24" viewBox="0 0 24 24" fill="none" xmlns="http://www.w3.org/2000/svg">
<path d="M16.7423 4.39999L18.2898 5.08647C19.3129 5.54027 20.0001 6.52445 20 7.6436C19.9998 9.61761 19.8498 12.7662 19.0062 14.85C17.9293 17.5102 15.0339 19.6495 13.321 20.7311C12.5087 21.2441 11.4913 21.2441 10.679 20.7311C8.96609 19.6495 6.0707 17.5102 4.99378 14.85C4.15023 12.7662 4.00017 9.61761 4 7.6436C3.99991 6.52445 4.68715 5.54027 5.71016 5.08647L7.25769 4.39999L10.8843 2.94701C11.6004 2.66008 12.3996 2.66008 13.1157 2.94701L16.7423 4.39999Z" fill="white"/>
</svg>
