<svg width="11" height="13" viewBox="0 0 11 13" fill="none" xmlns="http://www.w3.org/2000/svg">
<path d="M0.715875 8.09346L4.786 11.9242C5.18709 12.3017 5.81275 12.3017 6.21384 11.9242L10.284 8.09347C10.4934 7.89632 10.5034 7.5667 10.3063 7.35723C10.1091 7.14777 9.77951 7.13778 9.57004 7.33492L5.49992 11.1656L1.4298 7.33492C1.22033 7.13778 0.89071 7.14777 0.693566 7.35723C0.496422 7.5667 0.506411 7.89632 0.715875 8.09346Z" fill="white"/>
<path d="M1.97907 4.30704L5.08521 7.23047C5.39131 7.51856 5.86878 7.51856 6.17488 7.23047L9.28103 4.30704C9.44088 4.15659 9.4485 3.90503 9.29805 3.74518C9.1476 3.58532 8.89605 3.5777 8.73619 3.72815L5.63005 6.65158L2.5239 3.72815C2.36405 3.5777 2.11249 3.58532 1.96204 3.74518C1.81159 3.90503 1.81921 4.15659 1.97907 4.30704Z" fill="white"/>
<path d="M2.982 1.11436L5.12417 3.13052C5.33527 3.32921 5.66456 3.32921 5.87567 3.13052L8.01784 1.11437C8.12808 1.01061 8.13334 0.83712 8.02958 0.726875C7.92582 0.61663 7.75233 0.611373 7.64209 0.715133L5.49992 2.73129L3.35775 0.715132C3.2475 0.611372 3.07402 0.616629 2.97026 0.726874C2.8665 0.837119 2.87176 1.0106 2.982 1.11436Z" fill="white"/>
</svg>
