<svg width="24" height="24" viewBox="0 0 24 24" fill="none" xmlns="http://www.w3.org/2000/svg">
<path d="M14 14.5V19.5C14 20.3284 14.6716 21 15.5 21H19.5C20.3284 21 21 20.3284 21 19.5V14.5C21 13.6716 20.3284 13 19.5 13H15.5C14.6716 13 14 13.6716 14 14.5Z" fill="white"/>
<path d="M3 14.5L3 19.5C3 20.3284 3.67157 21 4.5 21H8.5C9.32843 21 10 20.3284 10 19.5V14.5C10 13.6716 9.32843 13 8.5 13H4.5C3.67157 13 3 13.6716 3 14.5Z" fill="white"/>
<path d="M3 4.5L3 8.5C3 9.32843 3.67157 10 4.5 10L19.5 10C20.3284 10 21 9.32843 21 8.5V4.5C21 3.67157 20.3284 3 19.5 3L4.5 3C3.67157 3 3 3.67157 3 4.5Z" fill="white"/>
</svg>
