<svg width="252" height="182" viewBox="0 0 252 182" fill="none" xmlns="http://www.w3.org/2000/svg">
<g clip-path="url(#clip0_158_890)" filter="url(#filter0_i_158_890)">
<g filter="url(#filter1_d_158_890)">
<g clip-path="url(#clip1_158_890)">
<rect x="28" y="80.3955" width="100" height="200" rx="4" transform="rotate(-15.6022 28 80.3955)" fill="white"/>
<g clip-path="url(#clip2_158_890)">
<path d="M116.969 141.913C115.381 141.011 113.631 140.432 111.819 140.209C110.006 139.985 108.168 140.123 106.409 140.612C103.083 141.542 100.226 143.686 98.4061 146.622C95.3287 145.054 91.7746 144.699 88.448 145.628C86.6878 146.121 85.0425 146.958 83.607 148.09C82.1714 149.222 80.9738 150.626 80.0831 152.223C76.278 159.01 78.5998 167.315 85.3667 171.126L108.961 184.42L122.255 160.825C126.068 154.06 123.751 145.753 116.969 141.913Z" fill="#DF1515"/>
</g>
<path d="M47.2021 93.1861L44.1944 94.026L44.0679 94.9547C44.0279 95.2638 44.033 95.5083 44.0832 95.6883C44.1499 95.9269 44.2952 96.0758 44.5194 96.1351C44.6511 96.1705 44.9435 96.143 45.3966 96.0526L45.4614 96.2849L42.6295 97.0757L42.5647 96.8433C42.8574 96.712 43.0735 96.5162 43.213 96.2562C43.3513 95.9919 43.4742 95.4951 43.5819 94.7656L44.7301 87.1211L44.8494 87.0878L49.8697 93.2128C50.3474 93.7924 50.7044 94.1417 50.9407 94.2607C51.1193 94.3507 51.3412 94.37 51.6066 94.3184L51.6715 94.5507L47.5524 95.701L47.4875 95.4687L47.6571 95.4213C47.9878 95.329 48.2072 95.218 48.3155 95.0885C48.3889 94.9959 48.408 94.8867 48.3729 94.7611C48.3519 94.6858 48.3177 94.6118 48.2704 94.5393C48.2515 94.504 48.1449 94.3645 47.9505 94.121L47.2021 93.1861ZM46.8588 92.781L44.7716 90.2029L44.2844 93.4999L46.8588 92.781Z" fill="#DF1515"/>
<g clip-path="url(#clip3_158_890)">
<path d="M52.8613 98.9895C52.4928 98.7801 52.0865 98.6456 51.6658 98.5938C51.2451 98.542 50.8183 98.5739 50.4099 98.6876C49.6378 98.9033 48.9747 99.4012 48.5522 100.083C47.8378 99.7186 47.0127 99.6363 46.2405 99.8519C45.8318 99.9664 45.4499 100.161 45.1167 100.423C44.7834 100.686 44.5054 101.012 44.2986 101.383C43.4153 102.958 43.9543 104.886 45.5252 105.771L51.0024 108.857L54.0885 103.38C54.9738 101.809 54.4358 99.881 52.8613 98.9895Z" fill="#DF1515"/>
</g>
<path d="M138.019 102.574L65.6539 215.236L25.5586 71.6524L121.874 44.7568L138.019 102.574Z" fill="white" fill-opacity="0.16"/>
<path d="M65.6668 215.283L138.032 102.621L178.127 246.205L81.812 273.101L65.6668 215.283Z" fill="black" fill-opacity="0.04"/>
</g>
</g>
<g filter="url(#filter2_d_158_890)">
<g clip-path="url(#clip4_158_890)">
<rect x="60.3104" y="66.1357" width="100" height="200" rx="4" transform="rotate(-5.13093 60.3104 66.1357)" fill="white"/>
<path d="M116.966 138.023C122.312 137.543 127.377 141.774 127.836 146.887C127.969 148.692 127.627 150.5 126.845 152.132C126.063 153.764 124.867 155.163 123.377 156.189C125.596 154.819 128.989 154.514 128.989 154.514C134.799 153.992 139.823 157.758 140.345 163.568C140.866 169.378 136.573 173.746 130.763 174.268C130.763 174.268 127.277 174.581 122.421 172.674C122.421 172.674 122.141 177.385 128.112 183.877L114.168 185.129C118.887 177.677 117.773 173.092 117.773 173.092C113.333 175.833 109.847 176.146 109.847 176.146C104.037 176.668 99.0347 173.134 98.513 167.324C97.9913 161.514 102.264 156.914 108.074 156.392C108.074 156.392 111.467 156.088 113.895 157.041C113.162 156.708 108.595 154.635 107.85 148.681C107.391 143.569 111.621 138.503 116.966 138.023Z" fill="black"/>
<path d="M76.8681 82.2037L73.7579 82.4829L73.4647 83.3733C73.3692 83.6699 73.3298 83.9112 73.3465 84.0974C73.3686 84.3441 73.4845 84.517 73.6941 84.616C73.8172 84.6747 74.1098 84.7008 74.5717 84.6943L74.5933 84.9345L71.6649 85.1975L71.6433 84.9572C71.955 84.8812 72.2031 84.728 72.3875 84.4977C72.5715 84.263 72.7827 83.7967 73.0212 83.0989L75.5395 75.7905L75.6629 75.7794L79.4865 82.7148C79.8509 83.3715 80.1385 83.7799 80.3492 83.9399C80.5084 84.0608 80.7232 84.1201 80.9935 84.1176L81.0151 84.3579L76.7555 84.7404L76.734 84.5001L76.9093 84.4844C77.2513 84.4537 77.4872 84.3845 77.6172 84.2768C77.7062 84.199 77.7449 84.0952 77.7332 83.9653C77.7263 83.8874 77.7061 83.8085 77.6727 83.7285C77.6606 83.6904 77.5811 83.5339 77.4342 83.259L76.8681 82.2037ZM76.6042 81.743L75.0203 78.8284L73.942 81.982L76.6042 81.743Z" fill="black"/>
<g clip-path="url(#clip5_158_890)">
<path d="M76.8167 87.8306C78.0575 87.7192 79.2334 88.7013 79.34 89.8882C79.3708 90.3072 79.2915 90.727 79.1099 91.1058C78.9283 91.4847 78.6508 91.8094 78.3048 92.0478C78.8201 91.7296 79.6077 91.6589 79.6077 91.6589C80.9565 91.5377 82.1227 92.412 82.2438 93.7607C82.3649 95.1094 81.3682 96.1235 80.0195 96.2446C80.0195 96.2446 79.2102 96.3172 78.0828 95.8746C78.0828 95.8746 78.0178 96.9681 79.404 98.4752L76.167 98.7659C77.2625 97.036 77.0038 95.9715 77.0038 95.9715C75.9733 96.6079 75.164 96.6805 75.164 96.6805C73.8153 96.8017 72.6539 95.9814 72.5328 94.6327C72.4117 93.2839 73.4035 92.2159 74.7523 92.0948C74.7523 92.0948 75.5399 92.0241 76.1036 92.2454C75.9336 92.1682 74.8734 91.687 74.7003 90.3048C74.5937 89.1179 75.5758 87.942 76.8167 87.8306Z" fill="black"/>
</g>
<path d="M164.466 107.941L72.8309 205.575L59.4986 57.0952L159.098 48.1521L164.466 107.941Z" fill="white" fill-opacity="0.16"/>
<path d="M72.8352 205.623L164.471 107.988L177.803 256.468L78.2037 265.411L72.8352 205.623Z" fill="black" fill-opacity="0.04"/>
</g>
</g>
<g filter="url(#filter3_d_158_890)">
<g clip-path="url(#clip6_158_890)">
<rect x="96.4289" y="59.624" width="100" height="200" rx="4" transform="rotate(2.7918 96.4289 59.624)" fill="white"/>
<path d="M140.918 138.368L121.601 157.98C121.308 158.275 121.125 158.662 121.085 159.076C121.042 159.486 121.151 159.865 121.388 160.213L138.522 185.194C138.714 185.48 138.982 185.721 139.292 185.893C139.607 186.066 139.958 186.164 140.317 186.182C140.676 186.199 141.034 186.135 141.365 185.994C141.69 185.857 141.977 185.644 142.203 185.374L161.686 162.178C161.95 161.871 162.095 161.481 162.095 161.076C162.095 160.66 161.951 160.257 161.687 159.935L144.371 138.537C144.166 138.289 143.911 138.088 143.622 137.947C143.182 137.732 142.687 137.657 142.204 137.732C141.72 137.807 141.271 138.03 140.918 138.368Z" fill="#DF1515"/>
<path d="M110.614 77.82L107.495 77.6679L107.082 78.5093C106.946 78.7899 106.874 79.0235 106.865 79.2102C106.853 79.4576 106.944 79.6448 107.138 79.7718C107.252 79.8469 107.538 79.9131 107.996 79.9703L107.984 80.2112L105.048 80.068L105.059 79.8271C105.379 79.7948 105.645 79.6772 105.86 79.4745C106.074 79.2674 106.348 78.8347 106.68 78.1764L110.182 71.2848L110.306 71.2909L113.137 78.6871C113.407 79.3878 113.636 79.8319 113.822 80.0194C113.963 80.1612 114.168 80.2495 114.436 80.2843L114.424 80.5252L110.153 80.3169L110.165 80.076L110.34 80.0846C110.683 80.1013 110.927 80.0653 111.07 79.9766C111.169 79.9118 111.222 79.8143 111.228 79.684C111.232 79.6059 111.223 79.5249 111.201 79.4412C111.194 79.4017 111.137 79.2357 111.029 78.9433L110.614 77.82ZM110.416 77.3273L109.249 74.2222L107.746 77.1971L110.416 77.3273Z" fill="#DF1515"/>
<path d="M109.389 83.3244L104.904 87.8772C104.836 87.9455 104.794 88.0355 104.784 88.1316C104.775 88.2266 104.8 88.3146 104.855 88.3954L108.833 94.1946C108.877 94.261 108.939 94.317 109.011 94.3569C109.084 94.397 109.166 94.4199 109.249 94.424C109.332 94.428 109.416 94.4131 109.492 94.3804C109.568 94.3485 109.634 94.2991 109.687 94.2363L114.21 88.8515C114.271 88.7804 114.305 88.6897 114.305 88.5959C114.305 88.4993 114.271 88.4056 114.21 88.3309L110.19 83.3634C110.143 83.306 110.083 83.2593 110.016 83.2266C109.914 83.1766 109.799 83.1592 109.687 83.1767C109.575 83.1942 109.471 83.2457 109.389 83.3244Z" fill="#DF1515"/>
<path d="M193.828 115.386L89.6099 199.457L96.871 50.5572L196.752 55.4279L193.828 115.386Z" fill="white" fill-opacity="0.16"/>
<path d="M89.6076 199.506L193.826 115.434L186.565 264.334L86.6838 259.464L89.6076 199.506Z" fill="black" fill-opacity="0.04"/>
</g>
</g>
<g filter="url(#filter4_d_158_890)">
<g clip-path="url(#clip7_158_890)">
<rect x="124.971" y="57.8018" width="100" height="200" rx="2" transform="rotate(9.74446 124.971 57.8018)" fill="white"/>
<path d="M161.273 141.824C152.4 152.138 140.111 154.763 138.137 166.261C137.347 170.86 141.156 176.25 145.756 177.039C148.055 177.434 150.355 177.829 153.05 175.925C153.05 175.925 152.996 180.65 146.476 186.633L160.274 189.003C156.859 181.314 157.649 176.714 157.649 176.714C159.554 179.409 161.853 179.804 164.153 180.199C168.752 180.989 174.142 177.179 174.931 172.58C176.906 161.082 166.198 154.508 161.273 141.824Z" fill="black"/>
<path d="M136.849 77.5808L133.771 77.0522L133.259 77.8375C133.091 78.0996 132.991 78.3227 132.959 78.5069C132.917 78.7511 132.985 78.9479 133.162 79.0974C133.266 79.1858 133.542 79.2861 133.99 79.3984L133.949 79.6361L131.051 79.1385L131.092 78.9007C131.413 78.9073 131.692 78.8229 131.929 78.6476C132.167 78.468 132.491 78.0716 132.901 77.4584L137.211 71.0414L137.333 71.0624L139.248 78.7469C139.432 79.4752 139.605 79.9437 139.767 80.1524C139.89 80.3102 140.083 80.4226 140.345 80.4897L140.304 80.7274L136.089 80.0036L136.13 79.7658L136.303 79.7956C136.641 79.8537 136.887 79.8474 137.041 79.7767C137.147 79.7244 137.211 79.634 137.233 79.5055C137.246 79.4283 137.247 79.3469 137.235 79.2611C137.233 79.2211 137.196 79.0494 137.125 78.7461L136.849 77.5808ZM136.712 77.0678L135.929 73.8443L134.078 76.6154L136.712 77.0678Z" fill="black"/>
<path d="M135.354 83.0059C133.295 85.4001 130.442 86.0094 129.983 88.6787C129.8 89.7464 130.684 90.9974 131.752 91.1808C132.286 91.2725 132.82 91.3642 133.445 90.922C133.445 90.922 133.433 92.019 131.919 93.4079L135.122 93.958C134.33 92.1731 134.513 91.1054 134.513 91.1054C134.955 91.7309 135.489 91.8226 136.023 91.9142C137.091 92.0976 138.342 91.2133 138.525 90.1456C138.984 87.4763 136.498 85.9502 135.354 83.0059Z" fill="black"/>
<path d="M214.904 124.944L101.275 195.782L126.507 48.8553L225.064 65.7807L214.904 124.944Z" fill="white" fill-opacity="0.16"/>
<path d="M101.267 195.83L214.896 124.992L189.664 271.918L91.1067 254.993L101.267 195.83Z" fill="black" fill-opacity="0.04"/>
</g>
</g>
</g>
<defs>
<filter id="filter0_i_158_890" x="0" y="-5.5" width="252" height="187" filterUnits="userSpaceOnUse" color-interpolation-filters="sRGB">
<feFlood flood-opacity="0" result="BackgroundImageFix"/>
<feBlend mode="normal" in="SourceGraphic" in2="BackgroundImageFix" result="shape"/>
<feColorMatrix in="SourceAlpha" type="matrix" values="0 0 0 0 0 0 0 0 0 0 0 0 0 0 0 0 0 0 127 0" result="hardAlpha"/>
<feOffset dy="-6"/>
<feGaussianBlur stdDeviation="9.5"/>
<feComposite in2="hardAlpha" operator="arithmetic" k2="-1" k3="1"/>
<feColorMatrix type="matrix" values="0 0 0 0 0 0 0 0 0 0 0 0 0 0 0 0 0 0 0.69 0"/>
<feBlend mode="normal" in2="shape" result="effect1_innerShadow_158_890"/>
</filter>
<filter id="filter1_d_158_890" x="-2" y="23.5" width="210.107" height="279.526" filterUnits="userSpaceOnUse" color-interpolation-filters="sRGB">
<feFlood flood-opacity="0" result="BackgroundImageFix"/>
<feColorMatrix in="SourceAlpha" type="matrix" values="0 0 0 0 0 0 0 0 0 0 0 0 0 0 0 0 0 0 127 0" result="hardAlpha"/>
<feMorphology radius="10" operator="dilate" in="SourceAlpha" result="effect1_dropShadow_158_890"/>
<feOffset/>
<feGaussianBlur stdDeviation="10"/>
<feComposite in2="hardAlpha" operator="out"/>
<feColorMatrix type="matrix" values="0 0 0 0 0 0 0 0 0 0 0 0 0 0 0 0 0 0 0.05 0"/>
<feBlend mode="normal" in2="BackgroundImageFix" result="effect1_dropShadow_158_890"/>
<feBlend mode="normal" in="SourceGraphic" in2="effect1_dropShadow_158_890" result="shape"/>
</filter>
<filter id="filter2_d_158_890" x="29.3104" y="26.1924" width="179.486" height="270.142" filterUnits="userSpaceOnUse" color-interpolation-filters="sRGB">
<feFlood flood-opacity="0" result="BackgroundImageFix"/>
<feColorMatrix in="SourceAlpha" type="matrix" values="0 0 0 0 0 0 0 0 0 0 0 0 0 0 0 0 0 0 127 0" result="hardAlpha"/>
<feMorphology radius="10" operator="dilate" in="SourceAlpha" result="effect1_dropShadow_158_890"/>
<feOffset/>
<feGaussianBlur stdDeviation="10.5"/>
<feComposite in2="hardAlpha" operator="out"/>
<feColorMatrix type="matrix" values="0 0 0 0 0 0 0 0 0 0 0 0 0 0 0 0 0 0 0.15 0"/>
<feBlend mode="normal" in2="BackgroundImageFix" result="effect1_dropShadow_158_890"/>
<feBlend mode="normal" in="SourceGraphic" in2="effect1_dropShadow_158_890" result="shape"/>
</filter>
<filter id="filter3_d_158_890" x="64.6875" y="43.624" width="149.623" height="244.634" filterUnits="userSpaceOnUse" color-interpolation-filters="sRGB">
<feFlood flood-opacity="0" result="BackgroundImageFix"/>
<feColorMatrix in="SourceAlpha" type="matrix" values="0 0 0 0 0 0 0 0 0 0 0 0 0 0 0 0 0 0 127 0" result="hardAlpha"/>
<feOffset dx="-2" dy="4"/>
<feGaussianBlur stdDeviation="10"/>
<feComposite in2="hardAlpha" operator="out"/>
<feColorMatrix type="matrix" values="0 0 0 0 0 0 0 0 0 0 0 0 0 0 0 0 0 0 0.15 0"/>
<feBlend mode="normal" in2="BackgroundImageFix" result="effect1_dropShadow_158_890"/>
<feBlend mode="normal" in="SourceGraphic" in2="effect1_dropShadow_158_890" result="shape"/>
</filter>
<filter id="filter4_d_158_890" x="69.1198" y="41.8018" width="172.408" height="254.04" filterUnits="userSpaceOnUse" color-interpolation-filters="sRGB">
<feFlood flood-opacity="0" result="BackgroundImageFix"/>
<feColorMatrix in="SourceAlpha" type="matrix" values="0 0 0 0 0 0 0 0 0 0 0 0 0 0 0 0 0 0 127 0" result="hardAlpha"/>
<feOffset dx="-2" dy="4"/>
<feGaussianBlur stdDeviation="10"/>
<feComposite in2="hardAlpha" operator="out"/>
<feColorMatrix type="matrix" values="0 0 0 0 0 0 0 0 0 0 0 0 0 0 0 0 0 0 0.15 0"/>
<feBlend mode="normal" in2="BackgroundImageFix" result="effect1_dropShadow_158_890"/>
<feBlend mode="normal" in="SourceGraphic" in2="effect1_dropShadow_158_890" result="shape"/>
</filter>
<clipPath id="clip0_158_890">
<rect width="252" height="181" fill="white" transform="translate(0 0.5)"/>
</clipPath>
<clipPath id="clip1_158_890">
<rect x="28" y="80.3955" width="100" height="200" rx="4" transform="rotate(-15.6022 28 80.3955)" fill="white"/>
</clipPath>
<clipPath id="clip2_158_890">
<rect width="56" height="56" fill="white" transform="translate(68.5542 143.825) rotate(-15.6022)"/>
</clipPath>
<clipPath id="clip3_158_890">
<rect width="13" height="13" fill="white" transform="translate(41.6223 99.4336) rotate(-15.6022)"/>
</clipPath>
<clipPath id="clip4_158_890">
<rect x="60.3104" y="66.1357" width="100" height="200" rx="4" transform="rotate(-5.13093 60.3104 66.1357)" fill="white"/>
</clipPath>
<clipPath id="clip5_158_890">
<rect width="13" height="13" fill="white" transform="translate(70.2458 87.333) rotate(-5.13093)"/>
</clipPath>
<clipPath id="clip6_158_890">
<rect x="96.4289" y="59.624" width="100" height="200" rx="4" transform="rotate(2.7918 96.4289 59.624)" fill="white"/>
</clipPath>
<clipPath id="clip7_158_890">
<rect x="124.971" y="57.8018" width="100" height="200" rx="4" transform="rotate(9.74446 124.971 57.8018)" fill="white"/>
</clipPath>
</defs>
</svg>
