<svg width="174" height="49" viewBox="0 0 174 49" fill="none" xmlns="http://www.w3.org/2000/svg">
<mask id="path-1-outside-1_158_945" maskUnits="userSpaceOnUse" x="1.5" y="8.5" width="168" height="28" fill="black">
<rect fill="white" x="1.5" y="8.5" width="168" height="28"/>
<path d="M8.34543 23.4609V30.2649H14.1774C16.295 30.2649 18.2043 29.5706 18.2043 27.0017C18.2043 24.4676 16.6421 23.4609 14.2816 23.4609H8.34543ZM2.89529 34.5V9.714H14.5593C19.2804 9.714 22.4741 11.2414 22.4741 15.8584C22.4741 18.3579 21.3286 19.9547 19.1069 21.0309C22.1617 21.8987 23.6544 24.2246 23.6544 27.3141C23.6544 32.3477 19.3846 34.5 14.9064 34.5H2.89529ZM8.34543 13.9491V19.7464H13.865C15.809 19.7464 17.1976 18.8786 17.1976 16.7957C17.1976 14.4699 15.3924 13.9491 13.4484 13.9491H8.34543ZM44.8684 34.3264H26.817V9.60986H32.163V29.7441H44.8684V34.3264ZM47.9154 34.5V9.714H53.3655V34.5H47.9154ZM64.4367 34.5V14.2963H56.5565V9.74871H77.6975V14.331H69.8868V34.5H64.4367ZM79.2361 34.5V30.1954L92.5316 14.2963H80.2775V9.714H99.7869V14.0186L86.4914 29.9177H100.134V34.5H79.2361ZM133.614 9.714L126.949 34.5H121.533L117.333 17.6289H117.263L113.132 34.5H107.613L101.052 9.714H106.502L110.008 26.6546L110.494 26.5851L114.799 9.714H119.902L124.137 26.7934L124.623 26.8281L128.268 9.714H133.614ZM136.125 34.5V9.714H141.575V34.5H136.125ZM163.199 34.5347L150.633 17.3859V34.5347H145.877V9.64457H152.125L163.199 25.1271V9.64457H167.816V34.5347H163.199Z"/>
</mask>
<path d="M8.34543 23.4609V22.4609H7.34543V23.4609H8.34543ZM8.34543 30.2649H7.34543V31.2649H8.34543V30.2649ZM2.89529 34.5H1.89529V35.5H2.89529V34.5ZM2.89529 9.714V8.714H1.89529V9.714H2.89529ZM19.1069 21.0309L18.6709 20.1309L16.3082 21.2753L18.8336 21.9928L19.1069 21.0309ZM8.34543 13.9491V12.9491H7.34543V13.9491H8.34543ZM8.34543 19.7464H7.34543V20.7464H8.34543V19.7464ZM7.34543 23.4609V30.2649H9.34543V23.4609H7.34543ZM8.34543 31.2649H14.1774V29.2649H8.34543V31.2649ZM14.1774 31.2649C15.3132 31.2649 16.5557 31.0846 17.5396 30.4287C18.5963 29.7242 19.2043 28.5742 19.2043 27.0017H17.2043C17.2043 27.9981 16.8576 28.4796 16.4302 28.7646C15.9301 29.098 15.1592 29.2649 14.1774 29.2649V31.2649ZM19.2043 27.0017C19.2043 25.5194 18.7378 24.3166 17.7664 23.5112C16.8298 22.7346 15.581 22.4609 14.2816 22.4609V24.4609C15.3427 24.4609 16.0553 24.6905 16.4899 25.0508C16.8897 25.3823 17.2043 25.9499 17.2043 27.0017H19.2043ZM14.2816 22.4609H8.34543V24.4609H14.2816V22.4609ZM3.89529 34.5V9.714H1.89529V34.5H3.89529ZM2.89529 10.714H14.5593V8.714H2.89529V10.714ZM14.5593 10.714C16.8468 10.714 18.5793 11.0907 19.7189 11.8777C20.7859 12.6146 21.4741 13.811 21.4741 15.8584H23.4741C23.4741 13.2889 22.5655 11.413 20.8554 10.232C19.2178 9.10103 16.9929 8.714 14.5593 8.714V10.714ZM21.4741 15.8584C21.4741 16.9489 21.2268 17.7709 20.7916 18.4237C20.3522 19.0828 19.6692 19.6474 18.6709 20.1309L19.5428 21.9308C20.7663 21.3382 21.7669 20.5663 22.4557 19.5331C23.1487 18.4935 23.4741 17.2674 23.4741 15.8584H21.4741ZM18.8336 21.9928C20.1673 22.3717 21.0998 23.0474 21.7076 23.9137C22.3207 24.7876 22.6544 25.929 22.6544 27.3141H24.6544C24.6544 25.6097 24.2418 24.0434 23.3448 22.765C22.4426 21.479 21.1013 20.5579 19.3801 20.0689L18.8336 21.9928ZM22.6544 27.3141C22.6544 29.5044 21.7458 31.0001 20.3769 31.9821C18.9675 32.9931 17.0043 33.5 14.9064 33.5V35.5C17.2867 35.5 19.6975 34.9308 21.5426 33.6072C23.4282 32.2547 24.6544 30.1575 24.6544 27.3141H22.6544ZM14.9064 33.5H2.89529V35.5H14.9064V33.5ZM7.34543 13.9491V19.7464H9.34543V13.9491H7.34543ZM8.34543 20.7464H13.865V18.7464H8.34543V20.7464ZM13.865 20.7464C14.9657 20.7464 16.0562 20.5034 16.8892 19.8297C17.7582 19.1268 18.1976 18.0773 18.1976 16.7957H16.1976C16.1976 17.597 15.9427 18.0229 15.6314 18.2746C15.2841 18.5556 14.7083 18.7464 13.865 18.7464V20.7464ZM18.1976 16.7957C18.1976 15.3218 17.5953 14.2665 16.5704 13.6451C15.6367 13.0791 14.4724 12.9491 13.4484 12.9491V14.9491C14.3684 14.9491 15.0787 15.0796 15.5336 15.3554C15.8972 15.5758 16.1976 15.9437 16.1976 16.7957H18.1976ZM13.4484 12.9491H8.34543V14.9491H13.4484V12.9491ZM44.8684 34.3264V35.3264H45.8684V34.3264H44.8684ZM26.817 34.3264H25.817V35.3264H26.817V34.3264ZM26.817 9.60986V8.60986H25.817V9.60986H26.817ZM32.163 9.60986H33.163V8.60986H32.163V9.60986ZM32.163 29.7441H31.163V30.7441H32.163V29.7441ZM44.8684 29.7441H45.8684V28.7441H44.8684V29.7441ZM44.8684 33.3264H26.817V35.3264H44.8684V33.3264ZM27.817 34.3264V9.60986H25.817V34.3264H27.817ZM26.817 10.6099H32.163V8.60986H26.817V10.6099ZM31.163 9.60986V29.7441H33.163V9.60986H31.163ZM32.163 30.7441H44.8684V28.7441H32.163V30.7441ZM43.8684 29.7441V34.3264H45.8684V29.7441H43.8684ZM47.9154 34.5H46.9154V35.5H47.9154V34.5ZM47.9154 9.714V8.714H46.9154V9.714H47.9154ZM53.3655 9.714H54.3655V8.714H53.3655V9.714ZM53.3655 34.5V35.5H54.3655V34.5H53.3655ZM48.9154 34.5V9.714H46.9154V34.5H48.9154ZM47.9154 10.714H53.3655V8.714H47.9154V10.714ZM52.3655 9.714V34.5H54.3655V9.714H52.3655ZM53.3655 33.5H47.9154V35.5H53.3655V33.5ZM64.4367 34.5H63.4367V35.5H64.4367V34.5ZM64.4367 14.2963H65.4367V13.2963H64.4367V14.2963ZM56.5565 14.2963H55.5565V15.2963H56.5565V14.2963ZM56.5565 9.74871V8.74871H55.5565V9.74871H56.5565ZM77.6975 9.74871H78.6975V8.74871H77.6975V9.74871ZM77.6975 14.331V15.331H78.6975V14.331H77.6975ZM69.8868 14.331V13.331H68.8868V14.331H69.8868ZM69.8868 34.5V35.5H70.8868V34.5H69.8868ZM65.4367 34.5V14.2963H63.4367V34.5H65.4367ZM64.4367 13.2963H56.5565V15.2963H64.4367V13.2963ZM57.5565 14.2963V9.74871H55.5565V14.2963H57.5565ZM56.5565 10.7487H77.6975V8.74871H56.5565V10.7487ZM76.6975 9.74871V14.331H78.6975V9.74871H76.6975ZM77.6975 13.331H69.8868V15.331H77.6975V13.331ZM68.8868 14.331V34.5H70.8868V14.331H68.8868ZM69.8868 33.5H64.4367V35.5H69.8868V33.5ZM79.2361 34.5H78.2361V35.5H79.2361V34.5ZM79.2361 30.1954L78.4689 29.5539L78.2361 29.8324V30.1954H79.2361ZM92.5316 14.2963L93.2988 14.9378L94.6715 13.2963H92.5316V14.2963ZM80.2775 14.2963H79.2775V15.2963H80.2775V14.2963ZM80.2775 9.714V8.714H79.2775V9.714H80.2775ZM99.7869 9.714H100.787V8.714H99.7869V9.714ZM99.7869 14.0186L100.554 14.6601L100.787 14.3816V14.0186H99.7869ZM86.4913 29.9177L85.7242 29.2762L84.3515 30.9177H86.4913V29.9177ZM100.134 29.9177H101.134V28.9177H100.134V29.9177ZM100.134 34.5V35.5H101.134V34.5H100.134ZM80.2361 34.5V30.1954H78.2361V34.5H80.2361ZM80.0032 30.8369L93.2988 14.9378L91.7645 13.6548L78.4689 29.5539L80.0032 30.8369ZM92.5316 13.2963H80.2775V15.2963H92.5316V13.2963ZM81.2775 14.2963V9.714H79.2775V14.2963H81.2775ZM80.2775 10.714H99.7869V8.714H80.2775V10.714ZM98.7869 9.714V14.0186H100.787V9.714H98.7869ZM99.0198 13.3771L85.7242 29.2762L87.2585 30.5592L100.554 14.6601L99.0198 13.3771ZM86.4913 30.9177H100.134V28.9177H86.4913V30.9177ZM99.1341 29.9177V34.5H101.134V29.9177H99.1341ZM100.134 33.5H79.2361V35.5H100.134V33.5ZM133.614 9.714L134.58 9.97368L134.918 8.714H133.614V9.714ZM126.949 34.5V35.5H127.715L127.914 34.7597L126.949 34.5ZM121.533 34.5L120.563 34.7416L120.752 35.5H121.533V34.5ZM117.333 17.6289L118.303 17.3873L118.114 16.6289H117.333V17.6289ZM117.263 17.6289V16.6289H116.479L116.292 17.391L117.263 17.6289ZM113.132 34.5V35.5H113.917L114.104 34.7378L113.132 34.5ZM107.613 34.5L106.646 34.7559L106.843 35.5H107.613V34.5ZM101.052 9.714V8.714H99.7527L100.085 9.96989L101.052 9.714ZM106.502 9.714L107.481 9.51133L107.316 8.714H106.502V9.714ZM110.008 26.6546L109.029 26.8572L109.219 27.7774L110.15 27.6445L110.008 26.6546ZM110.494 26.5851L110.636 27.5751L111.298 27.4805L111.463 26.8324L110.494 26.5851ZM114.799 9.714V8.714H114.022L113.83 9.46678L114.799 9.714ZM119.902 9.714L120.872 9.47332L120.684 8.714H119.902V9.714ZM124.137 26.7934L123.166 27.0341L123.341 27.7391L124.066 27.7909L124.137 26.7934ZM124.623 26.8281L124.552 27.8256L125.42 27.8876L125.601 27.0365L124.623 26.8281ZM128.268 9.714V8.714H127.458L127.29 9.50569L128.268 9.714ZM132.648 9.45432L125.983 34.2403L127.914 34.7597L134.58 9.97368L132.648 9.45432ZM126.949 33.5H121.533V35.5H126.949V33.5ZM122.504 34.2584L118.303 17.3873L116.362 17.8705L120.563 34.7416L122.504 34.2584ZM117.333 16.6289H117.263V18.6289H117.333V16.6289ZM116.292 17.391L112.161 34.2622L114.104 34.7378L118.235 17.8667L116.292 17.391ZM113.132 33.5H107.613V35.5H113.132V33.5ZM108.58 34.2441L102.019 9.45811L100.085 9.96989L106.646 34.7559L108.58 34.2441ZM101.052 10.714H106.502V8.714H101.052V10.714ZM105.523 9.91667L109.029 26.8572L110.987 26.4519L107.481 9.51133L105.523 9.91667ZM110.15 27.6445L110.636 27.5751L110.353 25.5952L109.867 25.6646L110.15 27.6445ZM111.463 26.8324L115.768 9.96122L113.83 9.46678L109.525 26.3379L111.463 26.8324ZM114.799 10.714H119.902V8.714H114.799V10.714ZM118.931 9.95468L123.166 27.0341L125.107 26.5527L120.872 9.47332L118.931 9.95468ZM124.066 27.7909L124.552 27.8256L124.694 25.8307L124.208 25.796L124.066 27.7909ZM125.601 27.0365L129.246 9.92231L127.29 9.50569L123.645 26.6198L125.601 27.0365ZM128.268 10.714H133.614V8.714H128.268V10.714ZM136.125 34.5H135.125V35.5H136.125V34.5ZM136.125 9.714V8.714H135.125V9.714H136.125ZM141.575 9.714H142.575V8.714H141.575V9.714ZM141.575 34.5V35.5H142.575V34.5H141.575ZM137.125 34.5V9.714H135.125V34.5H137.125ZM136.125 10.714H141.575V8.714H136.125V10.714ZM140.575 9.714V34.5H142.575V9.714H140.575ZM141.575 33.5H136.125V35.5H141.575V33.5ZM163.199 34.5347L162.393 35.1258L162.692 35.5347H163.199V34.5347ZM150.633 17.3859L151.439 16.7948L149.633 14.3294V17.3859H150.633ZM150.633 34.5347V35.5347H151.633V34.5347H150.633ZM145.877 34.5347H144.877V35.5347H145.877V34.5347ZM145.877 9.64457V8.64457H144.877V9.64457H145.877ZM152.125 9.64457L152.939 9.06282L152.64 8.64457H152.125V9.64457ZM163.199 25.1271L162.386 25.7089L164.199 28.2442V25.1271H163.199ZM163.199 9.64457V8.64457H162.199V9.64457H163.199ZM167.816 9.64457H168.816V8.64457H167.816V9.64457ZM167.816 34.5347V35.5347H168.816V34.5347H167.816ZM164.006 33.9436L151.439 16.7948L149.826 17.9769L162.393 35.1258L164.006 33.9436ZM149.633 17.3859V34.5347H151.633V17.3859H149.633ZM150.633 33.5347H145.877V35.5347H150.633V33.5347ZM146.877 34.5347V9.64457H144.877V34.5347H146.877ZM145.877 10.6446H152.125V8.64457H145.877V10.6446ZM151.312 10.2263L162.386 25.7089L164.013 24.5454L152.939 9.06282L151.312 10.2263ZM164.199 25.1271V9.64457H162.199V25.1271H164.199ZM163.199 10.6446H167.816V8.64457H163.199V10.6446ZM166.816 9.64457V34.5347H168.816V9.64457H166.816ZM167.816 33.5347H163.199V35.5347H167.816V33.5347Z" fill="#FC5EF6" mask="url(#path-1-outside-1_158_945)"/>
<path d="M8.34543 23.4609V22.4609H7.34543V23.4609H8.34543ZM8.34543 30.2649H7.34543V31.2649H8.34543V30.2649ZM2.89529 34.5H1.89529V35.5H2.89529V34.5ZM2.89529 9.714V8.714H1.89529V9.714H2.89529ZM19.1069 21.0309L18.6709 20.1309L16.3082 21.2753L18.8336 21.9928L19.1069 21.0309ZM8.34543 13.9491V12.9491H7.34543V13.9491H8.34543ZM8.34543 19.7464H7.34543V20.7464H8.34543V19.7464ZM7.34543 23.4609V30.2649H9.34543V23.4609H7.34543ZM8.34543 31.2649H14.1774V29.2649H8.34543V31.2649ZM14.1774 31.2649C15.3132 31.2649 16.5557 31.0846 17.5396 30.4287C18.5963 29.7242 19.2043 28.5742 19.2043 27.0017H17.2043C17.2043 27.9981 16.8576 28.4796 16.4302 28.7646C15.9301 29.098 15.1592 29.2649 14.1774 29.2649V31.2649ZM19.2043 27.0017C19.2043 25.5194 18.7378 24.3166 17.7664 23.5112C16.8298 22.7346 15.581 22.4609 14.2816 22.4609V24.4609C15.3427 24.4609 16.0553 24.6905 16.4899 25.0508C16.8897 25.3823 17.2043 25.9499 17.2043 27.0017H19.2043ZM14.2816 22.4609H8.34543V24.4609H14.2816V22.4609ZM3.89529 34.5V9.714H1.89529V34.5H3.89529ZM2.89529 10.714H14.5593V8.714H2.89529V10.714ZM14.5593 10.714C16.8468 10.714 18.5793 11.0907 19.7189 11.8777C20.7859 12.6146 21.4741 13.811 21.4741 15.8584H23.4741C23.4741 13.2889 22.5655 11.413 20.8554 10.232C19.2178 9.10103 16.9929 8.714 14.5593 8.714V10.714ZM21.4741 15.8584C21.4741 16.9489 21.2268 17.7709 20.7916 18.4237C20.3522 19.0828 19.6692 19.6474 18.6709 20.1309L19.5428 21.9308C20.7663 21.3382 21.7669 20.5663 22.4557 19.5331C23.1487 18.4935 23.4741 17.2674 23.4741 15.8584H21.4741ZM18.8336 21.9928C20.1673 22.3717 21.0998 23.0474 21.7076 23.9137C22.3207 24.7876 22.6544 25.929 22.6544 27.3141H24.6544C24.6544 25.6097 24.2418 24.0434 23.3448 22.765C22.4426 21.479 21.1013 20.5579 19.3801 20.0689L18.8336 21.9928ZM22.6544 27.3141C22.6544 29.5044 21.7458 31.0001 20.3769 31.9821C18.9675 32.9931 17.0043 33.5 14.9064 33.5V35.5C17.2867 35.5 19.6975 34.9308 21.5426 33.6072C23.4282 32.2547 24.6544 30.1575 24.6544 27.3141H22.6544ZM14.9064 33.5H2.89529V35.5H14.9064V33.5ZM7.34543 13.9491V19.7464H9.34543V13.9491H7.34543ZM8.34543 20.7464H13.865V18.7464H8.34543V20.7464ZM13.865 20.7464C14.9657 20.7464 16.0562 20.5034 16.8892 19.8297C17.7582 19.1268 18.1976 18.0773 18.1976 16.7957H16.1976C16.1976 17.597 15.9427 18.0229 15.6314 18.2746C15.2841 18.5556 14.7083 18.7464 13.865 18.7464V20.7464ZM18.1976 16.7957C18.1976 15.3218 17.5953 14.2665 16.5704 13.6451C15.6367 13.0791 14.4724 12.9491 13.4484 12.9491V14.9491C14.3684 14.9491 15.0787 15.0796 15.5336 15.3554C15.8972 15.5758 16.1976 15.9437 16.1976 16.7957H18.1976ZM13.4484 12.9491H8.34543V14.9491H13.4484V12.9491ZM44.8684 34.3264V35.3264H45.8684V34.3264H44.8684ZM26.817 34.3264H25.817V35.3264H26.817V34.3264ZM26.817 9.60986V8.60986H25.817V9.60986H26.817ZM32.163 9.60986H33.163V8.60986H32.163V9.60986ZM32.163 29.7441H31.163V30.7441H32.163V29.7441ZM44.8684 29.7441H45.8684V28.7441H44.8684V29.7441ZM44.8684 33.3264H26.817V35.3264H44.8684V33.3264ZM27.817 34.3264V9.60986H25.817V34.3264H27.817ZM26.817 10.6099H32.163V8.60986H26.817V10.6099ZM31.163 9.60986V29.7441H33.163V9.60986H31.163ZM32.163 30.7441H44.8684V28.7441H32.163V30.7441ZM43.8684 29.7441V34.3264H45.8684V29.7441H43.8684ZM47.9154 34.5H46.9154V35.5H47.9154V34.5ZM47.9154 9.714V8.714H46.9154V9.714H47.9154ZM53.3655 9.714H54.3655V8.714H53.3655V9.714ZM53.3655 34.5V35.5H54.3655V34.5H53.3655ZM48.9154 34.5V9.714H46.9154V34.5H48.9154ZM47.9154 10.714H53.3655V8.714H47.9154V10.714ZM52.3655 9.714V34.5H54.3655V9.714H52.3655ZM53.3655 33.5H47.9154V35.5H53.3655V33.5ZM64.4367 34.5H63.4367V35.5H64.4367V34.5ZM64.4367 14.2963H65.4367V13.2963H64.4367V14.2963ZM56.5565 14.2963H55.5565V15.2963H56.5565V14.2963ZM56.5565 9.74871V8.74871H55.5565V9.74871H56.5565ZM77.6975 9.74871H78.6975V8.74871H77.6975V9.74871ZM77.6975 14.331V15.331H78.6975V14.331H77.6975ZM69.8868 14.331V13.331H68.8868V14.331H69.8868ZM69.8868 34.5V35.5H70.8868V34.5H69.8868ZM65.4367 34.5V14.2963H63.4367V34.5H65.4367ZM64.4367 13.2963H56.5565V15.2963H64.4367V13.2963ZM57.5565 14.2963V9.74871H55.5565V14.2963H57.5565ZM56.5565 10.7487H77.6975V8.74871H56.5565V10.7487ZM76.6975 9.74871V14.331H78.6975V9.74871H76.6975ZM77.6975 13.331H69.8868V15.331H77.6975V13.331ZM68.8868 14.331V34.5H70.8868V14.331H68.8868ZM69.8868 33.5H64.4367V35.5H69.8868V33.5ZM79.2361 34.5H78.2361V35.5H79.2361V34.5ZM79.2361 30.1954L78.4689 29.5539L78.2361 29.8324V30.1954H79.2361ZM92.5316 14.2963L93.2988 14.9378L94.6715 13.2963H92.5316V14.2963ZM80.2775 14.2963H79.2775V15.2963H80.2775V14.2963ZM80.2775 9.714V8.714H79.2775V9.714H80.2775ZM99.7869 9.714H100.787V8.714H99.7869V9.714ZM99.7869 14.0186L100.554 14.6601L100.787 14.3816V14.0186H99.7869ZM86.4913 29.9177L85.7242 29.2762L84.3515 30.9177H86.4913V29.9177ZM100.134 29.9177H101.134V28.9177H100.134V29.9177ZM100.134 34.5V35.5H101.134V34.5H100.134ZM80.2361 34.5V30.1954H78.2361V34.5H80.2361ZM80.0032 30.8369L93.2988 14.9378L91.7645 13.6548L78.4689 29.5539L80.0032 30.8369ZM92.5316 13.2963H80.2775V15.2963H92.5316V13.2963ZM81.2775 14.2963V9.714H79.2775V14.2963H81.2775ZM80.2775 10.714H99.7869V8.714H80.2775V10.714ZM98.7869 9.714V14.0186H100.787V9.714H98.7869ZM99.0198 13.3771L85.7242 29.2762L87.2585 30.5592L100.554 14.6601L99.0198 13.3771ZM86.4913 30.9177H100.134V28.9177H86.4913V30.9177ZM99.1341 29.9177V34.5H101.134V29.9177H99.1341ZM100.134 33.5H79.2361V35.5H100.134V33.5ZM133.614 9.714L134.58 9.97368L134.918 8.714H133.614V9.714ZM126.949 34.5V35.5H127.715L127.914 34.7597L126.949 34.5ZM121.533 34.5L120.563 34.7416L120.752 35.5H121.533V34.5ZM117.333 17.6289L118.303 17.3873L118.114 16.6289H117.333V17.6289ZM117.263 17.6289V16.6289H116.479L116.292 17.391L117.263 17.6289ZM113.132 34.5V35.5H113.917L114.104 34.7378L113.132 34.5ZM107.613 34.5L106.646 34.7559L106.843 35.5H107.613V34.5ZM101.052 9.714V8.714H99.7527L100.085 9.96989L101.052 9.714ZM106.502 9.714L107.481 9.51133L107.316 8.714H106.502V9.714ZM110.008 26.6546L109.029 26.8572L109.219 27.7774L110.15 27.6445L110.008 26.6546ZM110.494 26.5851L110.636 27.5751L111.298 27.4805L111.463 26.8324L110.494 26.5851ZM114.799 9.714V8.714H114.022L113.83 9.46678L114.799 9.714ZM119.902 9.714L120.872 9.47332L120.684 8.714H119.902V9.714ZM124.137 26.7934L123.166 27.0341L123.341 27.7391L124.066 27.7909L124.137 26.7934ZM124.623 26.8281L124.552 27.8256L125.42 27.8876L125.601 27.0365L124.623 26.8281ZM128.268 9.714V8.714H127.458L127.29 9.50569L128.268 9.714ZM132.648 9.45432L125.983 34.2403L127.914 34.7597L134.58 9.97368L132.648 9.45432ZM126.949 33.5H121.533V35.5H126.949V33.5ZM122.504 34.2584L118.303 17.3873L116.362 17.8705L120.563 34.7416L122.504 34.2584ZM117.333 16.6289H117.263V18.6289H117.333V16.6289ZM116.292 17.391L112.161 34.2622L114.104 34.7378L118.235 17.8667L116.292 17.391ZM113.132 33.5H107.613V35.5H113.132V33.5ZM108.58 34.2441L102.019 9.45811L100.085 9.96989L106.646 34.7559L108.58 34.2441ZM101.052 10.714H106.502V8.714H101.052V10.714ZM105.523 9.91667L109.029 26.8572L110.987 26.4519L107.481 9.51133L105.523 9.91667ZM110.15 27.6445L110.636 27.5751L110.353 25.5952L109.867 25.6646L110.15 27.6445ZM111.463 26.8324L115.768 9.96122L113.83 9.46678L109.525 26.3379L111.463 26.8324ZM114.799 10.714H119.902V8.714H114.799V10.714ZM118.931 9.95468L123.166 27.0341L125.107 26.5527L120.872 9.47332L118.931 9.95468ZM124.066 27.7909L124.552 27.8256L124.694 25.8307L124.208 25.796L124.066 27.7909ZM125.601 27.0365L129.246 9.92231L127.29 9.50569L123.645 26.6198L125.601 27.0365ZM128.268 10.714H133.614V8.714H128.268V10.714ZM136.125 34.5H135.125V35.5H136.125V34.5ZM136.125 9.714V8.714H135.125V9.714H136.125ZM141.575 9.714H142.575V8.714H141.575V9.714ZM141.575 34.5V35.5H142.575V34.5H141.575ZM137.125 34.5V9.714H135.125V34.5H137.125ZM136.125 10.714H141.575V8.714H136.125V10.714ZM140.575 9.714V34.5H142.575V9.714H140.575ZM141.575 33.5H136.125V35.5H141.575V33.5ZM163.199 34.5347L162.393 35.1258L162.692 35.5347H163.199V34.5347ZM150.633 17.3859L151.439 16.7948L149.633 14.3294V17.3859H150.633ZM150.633 34.5347V35.5347H151.633V34.5347H150.633ZM145.877 34.5347H144.877V35.5347H145.877V34.5347ZM145.877 9.64457V8.64457H144.877V9.64457H145.877ZM152.125 9.64457L152.939 9.06282L152.64 8.64457H152.125V9.64457ZM163.199 25.1271L162.386 25.7089L164.199 28.2442V25.1271H163.199ZM163.199 9.64457V8.64457H162.199V9.64457H163.199ZM167.816 9.64457H168.816V8.64457H167.816V9.64457ZM167.816 34.5347V35.5347H168.816V34.5347H167.816ZM164.006 33.9436L151.439 16.7948L149.826 17.9769L162.393 35.1258L164.006 33.9436ZM149.633 17.3859V34.5347H151.633V17.3859H149.633ZM150.633 33.5347H145.877V35.5347H150.633V33.5347ZM146.877 34.5347V9.64457H144.877V34.5347H146.877ZM145.877 10.6446H152.125V8.64457H145.877V10.6446ZM151.312 10.2263L162.386 25.7089L164.013 24.5454L152.939 9.06282L151.312 10.2263ZM164.199 25.1271V9.64457H162.199V25.1271H164.199ZM163.199 10.6446H167.816V8.64457H163.199V10.6446ZM166.816 9.64457V34.5347H168.816V9.64457H166.816ZM167.816 33.5347H163.199V35.5347H167.816V33.5347Z" fill="#FC5EF6" mask="url(#path-1-outside-1_158_945)"/>
<mask id="path-3-outside-2_158_945" maskUnits="userSpaceOnUse" x="3.5" y="5.5" width="168" height="28" fill="black">
<rect fill="white" x="3.5" y="5.5" width="168" height="28"/>
<path d="M10.3454 20.4609V27.2649H16.1774C18.295 27.2649 20.2043 26.5706 20.2043 24.0017C20.2043 21.4676 18.6421 20.4609 16.2816 20.4609H10.3454ZM4.89529 31.5V6.714H16.5593C21.2804 6.714 24.4741 8.24143 24.4741 12.8584C24.4741 15.3579 23.3286 16.9547 21.1069 18.0309C24.1617 18.8987 25.6544 21.2246 25.6544 24.3141C25.6544 29.3477 21.3846 31.5 16.9064 31.5H4.89529ZM10.3454 10.9491V16.7464H15.865C17.809 16.7464 19.1976 15.8786 19.1976 13.7957C19.1976 11.4699 17.3924 10.9491 15.4484 10.9491H10.3454ZM46.8684 31.3264H28.817V6.60986H34.163V26.7441H46.8684V31.3264ZM49.9154 31.5V6.714H55.3655V31.5H49.9154ZM66.4367 31.5V11.2963H58.5565V6.74871H79.6975V11.331H71.8868V31.5H66.4367ZM81.2361 31.5V27.1954L94.5316 11.2963H82.2775V6.714H101.787V11.0186L88.4914 26.9177H102.134V31.5H81.2361ZM135.614 6.714L128.949 31.5H123.533L119.333 14.6289H119.263L115.132 31.5H109.613L103.052 6.714H108.502L112.008 23.6546L112.494 23.5851L116.799 6.714H121.902L126.137 23.7934L126.623 23.8281L130.268 6.714H135.614ZM138.125 31.5V6.714H143.575V31.5H138.125ZM165.199 31.5347L152.633 14.3859V31.5347H147.877V6.64457H154.125L165.199 22.1271V6.64457H169.816V31.5347H165.199Z"/>
</mask>
<path d="M10.3454 20.4609V19.4609H9.34543V20.4609H10.3454ZM10.3454 27.2649H9.34543V28.2649H10.3454V27.2649ZM4.89529 31.5H3.89529V32.5H4.89529V31.5ZM4.89529 6.714V5.714H3.89529V6.714H4.89529ZM21.1069 18.0309L20.6709 17.1309L18.3082 18.2753L20.8336 18.9928L21.1069 18.0309ZM10.3454 10.9491V9.94914H9.34543V10.9491H10.3454ZM10.3454 16.7464H9.34543V17.7464H10.3454V16.7464ZM9.34543 20.4609V27.2649H11.3454V20.4609H9.34543ZM10.3454 28.2649H16.1774V26.2649H10.3454V28.2649ZM16.1774 28.2649C17.3132 28.2649 18.5557 28.0846 19.5396 27.4287C20.5963 26.7242 21.2043 25.5742 21.2043 24.0017H19.2043C19.2043 24.9981 18.8576 25.4796 18.4302 25.7646C17.9301 26.098 17.1592 26.2649 16.1774 26.2649V28.2649ZM21.2043 24.0017C21.2043 22.5194 20.7378 21.3166 19.7664 20.5112C18.8298 19.7346 17.581 19.4609 16.2816 19.4609V21.4609C17.3427 21.4609 18.0553 21.6905 18.4899 22.0508C18.8897 22.3823 19.2043 22.9499 19.2043 24.0017H21.2043ZM16.2816 19.4609H10.3454V21.4609H16.2816V19.4609ZM5.89529 31.5V6.714H3.89529V31.5H5.89529ZM4.89529 7.714H16.5593V5.714H4.89529V7.714ZM16.5593 7.714C18.8468 7.714 20.5793 8.09068 21.7189 8.87768C22.7859 9.61461 23.4741 10.811 23.4741 12.8584H25.4741C25.4741 10.2889 24.5655 8.41303 22.8554 7.232C21.2178 6.10103 18.9929 5.714 16.5593 5.714V7.714ZM23.4741 12.8584C23.4741 13.9489 23.2268 14.7709 22.7916 15.4237C22.3522 16.0828 21.6692 16.6474 20.6709 17.1309L21.5428 18.9308C22.7663 18.3382 23.7669 17.5663 24.4557 16.5331C25.1487 15.4935 25.4741 14.2674 25.4741 12.8584H23.4741ZM20.8336 18.9928C22.1673 19.3717 23.0998 20.0474 23.7076 20.9137C24.3207 21.7876 24.6544 22.929 24.6544 24.3141H26.6544C26.6544 22.6097 26.2418 21.0434 25.3448 19.765C24.4426 18.479 23.1013 17.5579 21.3801 17.0689L20.8336 18.9928ZM24.6544 24.3141C24.6544 26.5044 23.7458 28.0001 22.3769 28.9821C20.9675 29.9931 19.0043 30.5 16.9064 30.5V32.5C19.2867 32.5 21.6975 31.9308 23.5426 30.6072C25.4282 29.2547 26.6544 27.1575 26.6544 24.3141H24.6544ZM16.9064 30.5H4.89529V32.5H16.9064V30.5ZM9.34543 10.9491V16.7464H11.3454V10.9491H9.34543ZM10.3454 17.7464H15.865V15.7464H10.3454V17.7464ZM15.865 17.7464C16.9657 17.7464 18.0562 17.5034 18.8892 16.8297C19.7582 16.1268 20.1976 15.0773 20.1976 13.7957H18.1976C18.1976 14.597 17.9427 15.0229 17.6314 15.2746C17.2841 15.5556 16.7083 15.7464 15.865 15.7464V17.7464ZM20.1976 13.7957C20.1976 12.3218 19.5953 11.2665 18.5704 10.6451C17.6367 10.0791 16.4724 9.94914 15.4484 9.94914V11.9491C16.3684 11.9491 17.0787 12.0796 17.5336 12.3554C17.8972 12.5758 18.1976 12.9437 18.1976 13.7957H20.1976ZM15.4484 9.94914H10.3454V11.9491H15.4484V9.94914ZM46.8684 31.3264V32.3264H47.8684V31.3264H46.8684ZM28.817 31.3264H27.817V32.3264H28.817V31.3264ZM28.817 6.60986V5.60986H27.817V6.60986H28.817ZM34.163 6.60986H35.163V5.60986H34.163V6.60986ZM34.163 26.7441H33.163V27.7441H34.163V26.7441ZM46.8684 26.7441H47.8684V25.7441H46.8684V26.7441ZM46.8684 30.3264H28.817V32.3264H46.8684V30.3264ZM29.817 31.3264V6.60986H27.817V31.3264H29.817ZM28.817 7.60986H34.163V5.60986H28.817V7.60986ZM33.163 6.60986V26.7441H35.163V6.60986H33.163ZM34.163 27.7441H46.8684V25.7441H34.163V27.7441ZM45.8684 26.7441V31.3264H47.8684V26.7441H45.8684ZM49.9154 31.5H48.9154V32.5H49.9154V31.5ZM49.9154 6.714V5.714H48.9154V6.714H49.9154ZM55.3655 6.714H56.3655V5.714H55.3655V6.714ZM55.3655 31.5V32.5H56.3655V31.5H55.3655ZM50.9154 31.5V6.714H48.9154V31.5H50.9154ZM49.9154 7.714H55.3655V5.714H49.9154V7.714ZM54.3655 6.714V31.5H56.3655V6.714H54.3655ZM55.3655 30.5H49.9154V32.5H55.3655V30.5ZM66.4367 31.5H65.4367V32.5H66.4367V31.5ZM66.4367 11.2963H67.4367V10.2963H66.4367V11.2963ZM58.5565 11.2963H57.5565V12.2963H58.5565V11.2963ZM58.5565 6.74871V5.74871H57.5565V6.74871H58.5565ZM79.6975 6.74871H80.6975V5.74871H79.6975V6.74871ZM79.6975 11.331V12.331H80.6975V11.331H79.6975ZM71.8868 11.331V10.331H70.8868V11.331H71.8868ZM71.8868 31.5V32.5H72.8868V31.5H71.8868ZM67.4367 31.5V11.2963H65.4367V31.5H67.4367ZM66.4367 10.2963H58.5565V12.2963H66.4367V10.2963ZM59.5565 11.2963V6.74871H57.5565V11.2963H59.5565ZM58.5565 7.74871H79.6975V5.74871H58.5565V7.74871ZM78.6975 6.74871V11.331H80.6975V6.74871H78.6975ZM79.6975 10.331H71.8868V12.331H79.6975V10.331ZM70.8868 11.331V31.5H72.8868V11.331H70.8868ZM71.8868 30.5H66.4367V32.5H71.8868V30.5ZM81.2361 31.5H80.2361V32.5H81.2361V31.5ZM81.2361 27.1954L80.4689 26.5539L80.2361 26.8324V27.1954H81.2361ZM94.5316 11.2963L95.2988 11.9378L96.6715 10.2963H94.5316V11.2963ZM82.2775 11.2963H81.2775V12.2963H82.2775V11.2963ZM82.2775 6.714V5.714H81.2775V6.714H82.2775ZM101.787 6.714H102.787V5.714H101.787V6.714ZM101.787 11.0186L102.554 11.6601L102.787 11.3816V11.0186H101.787ZM88.4913 26.9177L87.7242 26.2762L86.3515 27.9177H88.4913V26.9177ZM102.134 26.9177H103.134V25.9177H102.134V26.9177ZM102.134 31.5V32.5H103.134V31.5H102.134ZM82.2361 31.5V27.1954H80.2361V31.5H82.2361ZM82.0032 27.8369L95.2988 11.9378L93.7645 10.6548L80.4689 26.5539L82.0032 27.8369ZM94.5316 10.2963H82.2775V12.2963H94.5316V10.2963ZM83.2775 11.2963V6.714H81.2775V11.2963H83.2775ZM82.2775 7.714H101.787V5.714H82.2775V7.714ZM100.787 6.714V11.0186H102.787V6.714H100.787ZM101.02 10.3771L87.7242 26.2762L89.2585 27.5592L102.554 11.6601L101.02 10.3771ZM88.4913 27.9177H102.134V25.9177H88.4913V27.9177ZM101.134 26.9177V31.5H103.134V26.9177H101.134ZM102.134 30.5H81.2361V32.5H102.134V30.5ZM135.614 6.714L136.58 6.97368L136.918 5.714H135.614V6.714ZM128.949 31.5V32.5H129.715L129.914 31.7597L128.949 31.5ZM123.533 31.5L122.563 31.7416L122.752 32.5H123.533V31.5ZM119.333 14.6289L120.303 14.3873L120.114 13.6289H119.333V14.6289ZM119.263 14.6289V13.6289H118.479L118.292 14.391L119.263 14.6289ZM115.132 31.5V32.5H115.917L116.104 31.7378L115.132 31.5ZM109.613 31.5L108.646 31.7559L108.843 32.5H109.613V31.5ZM103.052 6.714V5.714H101.753L102.085 6.96989L103.052 6.714ZM108.502 6.714L109.481 6.51133L109.316 5.714H108.502V6.714ZM112.008 23.6546L111.029 23.8572L111.219 24.7774L112.15 24.6445L112.008 23.6546ZM112.494 23.5851L112.636 24.5751L113.298 24.4805L113.463 23.8324L112.494 23.5851ZM116.799 6.714V5.714H116.022L115.83 6.46678L116.799 6.714ZM121.902 6.714L122.872 6.47332L122.684 5.714H121.902V6.714ZM126.137 23.7934L125.166 24.0341L125.341 24.7391L126.066 24.7909L126.137 23.7934ZM126.623 23.8281L126.552 24.8256L127.42 24.8876L127.601 24.0365L126.623 23.8281ZM130.268 6.714V5.714H129.458L129.29 6.50569L130.268 6.714ZM134.648 6.45432L127.983 31.2403L129.914 31.7597L136.58 6.97368L134.648 6.45432ZM128.949 30.5H123.533V32.5H128.949V30.5ZM124.504 31.2584L120.303 14.3873L118.362 14.8705L122.563 31.7416L124.504 31.2584ZM119.333 13.6289H119.263V15.6289H119.333V13.6289ZM118.292 14.391L114.161 31.2622L116.104 31.7378L120.235 14.8667L118.292 14.391ZM115.132 30.5H109.613V32.5H115.132V30.5ZM110.58 31.2441L104.019 6.45811L102.085 6.96989L108.646 31.7559L110.58 31.2441ZM103.052 7.714H108.502V5.714H103.052V7.714ZM107.523 6.91667L111.029 23.8572L112.987 23.4519L109.481 6.51133L107.523 6.91667ZM112.15 24.6445L112.636 24.5751L112.353 22.5952L111.867 22.6646L112.15 24.6445ZM113.463 23.8324L117.768 6.96122L115.83 6.46678L111.525 23.3379L113.463 23.8324ZM116.799 7.714H121.902V5.714H116.799V7.714ZM120.931 6.95468L125.166 24.0341L127.107 23.5527L122.872 6.47332L120.931 6.95468ZM126.066 24.7909L126.552 24.8256L126.694 22.8307L126.208 22.796L126.066 24.7909ZM127.601 24.0365L131.246 6.92231L129.29 6.50569L125.645 23.6198L127.601 24.0365ZM130.268 7.714H135.614V5.714H130.268V7.714ZM138.125 31.5H137.125V32.5H138.125V31.5ZM138.125 6.714V5.714H137.125V6.714H138.125ZM143.575 6.714H144.575V5.714H143.575V6.714ZM143.575 31.5V32.5H144.575V31.5H143.575ZM139.125 31.5V6.714H137.125V31.5H139.125ZM138.125 7.714H143.575V5.714H138.125V7.714ZM142.575 6.714V31.5H144.575V6.714H142.575ZM143.575 30.5H138.125V32.5H143.575V30.5ZM165.199 31.5347L164.393 32.1258L164.692 32.5347H165.199V31.5347ZM152.633 14.3859L153.439 13.7948L151.633 11.3294V14.3859H152.633ZM152.633 31.5347V32.5347H153.633V31.5347H152.633ZM147.877 31.5347H146.877V32.5347H147.877V31.5347ZM147.877 6.64457V5.64457H146.877V6.64457H147.877ZM154.125 6.64457L154.939 6.06282L154.64 5.64457H154.125V6.64457ZM165.199 22.1271L164.386 22.7089L166.199 25.2442V22.1271H165.199ZM165.199 6.64457V5.64457H164.199V6.64457H165.199ZM169.816 6.64457H170.816V5.64457H169.816V6.64457ZM169.816 31.5347V32.5347H170.816V31.5347H169.816ZM166.006 30.9436L153.439 13.7948L151.826 14.9769L164.393 32.1258L166.006 30.9436ZM151.633 14.3859V31.5347H153.633V14.3859H151.633ZM152.633 30.5347H147.877V32.5347H152.633V30.5347ZM148.877 31.5347V6.64457H146.877V31.5347H148.877ZM147.877 7.64457H154.125V5.64457H147.877V7.64457ZM153.312 7.22633L164.386 22.7089L166.013 21.5454L154.939 6.06282L153.312 7.22633ZM166.199 22.1271V6.64457H164.199V22.1271H166.199ZM165.199 7.64457H169.816V5.64457H165.199V7.64457ZM168.816 6.64457V31.5347H170.816V6.64457H168.816ZM169.816 30.5347H165.199V32.5347H169.816V30.5347Z" fill="#4DD3FF" mask="url(#path-3-outside-2_158_945)"/>
<path d="M11.3454 17.4609V24.2649H17.1774C19.295 24.2649 21.2043 23.5706 21.2043 21.0017C21.2043 18.4676 19.6421 17.4609 17.2816 17.4609H11.3454ZM5.89529 28.5V3.714H17.5593C22.2804 3.714 25.4741 5.24143 25.4741 9.85843C25.4741 12.3579 24.3286 13.9547 22.1069 15.0309C25.1617 15.8987 26.6544 18.2246 26.6544 21.3141C26.6544 26.3477 22.3846 28.5 17.9064 28.5H5.89529ZM11.3454 7.94914V13.7464H16.865C18.809 13.7464 20.1976 12.8786 20.1976 10.7957C20.1976 8.46986 18.3924 7.94914 16.4484 7.94914H11.3454ZM47.8684 28.3264H29.817V3.60986H35.163V23.7441H47.8684V28.3264ZM50.9154 28.5V3.714H56.3655V28.5H50.9154ZM67.4367 28.5V8.29629H59.5565V3.74871H80.6975V8.331H72.8868V28.5H67.4367ZM82.2361 28.5V24.1954L95.5316 8.29629H83.2775V3.714H102.787V8.01857L89.4914 23.9177H103.134V28.5H82.2361ZM136.614 3.714L129.949 28.5H124.533L120.333 11.6289H120.263L116.132 28.5H110.613L104.052 3.714H109.502L113.008 20.6546L113.494 20.5851L117.799 3.714H122.902L127.137 20.7934L127.623 20.8281L131.268 3.714H136.614ZM139.125 28.5V3.714H144.575V28.5H139.125ZM166.199 28.5347L153.633 11.3859V28.5347H148.877V3.64457H155.125L166.199 19.1271V3.64457H170.816V28.5347H166.199Z" fill="white"/>
</svg>
