<svg width="24" height="24" viewBox="0 0 24 24" fill="none" xmlns="http://www.w3.org/2000/svg">
<path d="M2 13C2 7.47715 6.47715 3 12 3C17.5228 3 22 7.47715 22 13V18C22 18.5523 21.5523 19 21 19C20.9628 19 20.9261 18.998 20.8899 18.994C20.6577 19.5831 20.0834 20 19.4118 20C19.2764 20 19.145 19.9831 19.0196 19.9512C17.7747 20.8038 15.9526 21.5 13.5 21.5C12.9477 21.5 12.5 21.0523 12.5 20.5C12.5 19.9477 12.9477 19.5 13.5 19.5C15.5175 19.5 16.9193 18.947 17.8235 18.3452V16.2389C17.8235 14.9429 19.0636 14.4038 20 14.7379V13C20 8.58172 16.4183 5 12 5C7.58172 5 4 8.58172 4 13V14.7484C4.93695 14.4146 6.17647 14.9559 6.17647 16.2507V18.4118C6.17647 19.2889 5.46539 20 4.58824 20C3.91661 20 3.34236 19.5831 3.11012 18.994C3.07396 18.998 3.03722 19 3 19C2.44772 19 2 18.5523 2 18V13Z" fill="white" fill-opacity="0.7"/>
</svg>
