<svg width="134" height="40" viewBox="0 0 134 40" fill="none" xmlns="http://www.w3.org/2000/svg">
<g clip-path="url(#clip0_31_692)">
<path d="M33.3287 18.4949V20.6493C33.2367 20.6573 32.7434 20.7 31.7582 20.7C30.9369 20.7 30.3423 20.664 30.1356 20.6493V18.4922C26.9653 18.6322 24.5975 19.1855 24.5975 19.8454C24.5975 20.5053 26.964 21.0586 30.1356 21.1986V21.1959C30.3396 21.2066 30.9182 21.2292 31.7435 21.2292C32.7754 21.2292 33.238 21.2026 33.3287 21.1959V21.1999C36.4923 21.0573 38.8534 20.5067 38.8534 19.8467C38.8534 19.1868 36.4937 18.6362 33.3287 18.4935V18.4949Z" fill="white" fill-opacity="0.7"/>
<path d="M31.9435 7.01196C24.7709 7.01196 18.9554 12.8274 18.9554 20C18.9554 27.1726 24.7709 32.988 31.9435 32.988C39.1161 32.988 44.9315 27.1726 44.9315 20C44.9315 12.8274 39.1161 7.01196 31.9435 7.01196ZM33.33 21.7265V27.9112H30.137V21.7265C26.5494 21.5598 23.8496 20.8492 23.8496 19.9973C23.8496 19.1454 26.548 18.4348 30.137 18.2708V16.3417H25.7201V13.3993H37.7429V16.3417H33.326V18.2708L33.3287 18.2735C36.9123 18.4388 39.6054 19.1507 39.6054 20C39.6054 20.8492 36.9123 21.5625 33.3287 21.7265H33.33Z" fill="white" fill-opacity="0.7"/>
<path d="M55.9638 14.2033V17.323H58.9955V19.6641H55.9424V24.4103C55.9424 25.4582 56.521 25.9701 57.369 25.9701C57.7929 25.9701 58.2835 25.8368 58.6848 25.6355L59.4434 27.9539C58.6648 28.2646 58.0169 28.3992 57.193 28.4219C54.8079 28.5112 53.248 27.1527 53.248 24.4103V19.6641H51.1976V17.323H53.248V14.4939L55.9651 14.2033H55.9638ZM108.235 17.1763L108.435 18.4455C109.282 17.0857 110.418 16.8857 111.533 16.8857C112.647 16.8857 113.761 17.331 114.362 17.9323L113.137 20.2934C112.579 19.8254 112.067 19.5788 111.176 19.5788C109.749 19.5788 108.435 20.3373 108.435 22.3638V28.1579H105.716V17.171L108.235 17.175V17.1763ZM101.571 21.3879C101.394 19.9614 100.279 19.2481 98.7195 19.2481C97.249 19.2481 96.0451 19.9627 95.6438 21.3879H101.573H101.571ZM95.5998 23.6383C95.7771 24.9982 96.9597 25.9795 98.8755 25.9795C99.878 25.9795 101.194 25.5995 101.818 24.9542L103.555 26.67C102.396 27.8726 100.502 28.4539 98.8301 28.4539C95.0425 28.4539 92.7894 26.1128 92.7894 22.5931C92.7894 19.0735 95.0639 16.843 98.6302 16.843C102.196 16.843 104.604 19.1175 104.18 23.6397H95.5998V23.6383ZM83.6103 12.5608V18.6668C84.5916 17.3976 85.7941 17.0177 87.0433 17.0177C90.163 17.0177 91.5455 19.1348 91.5455 22.3678V28.1619H88.8271V22.3905C88.8271 20.384 87.7792 19.5388 86.3301 19.5388C84.7249 19.5388 83.6117 20.8986 83.6117 22.5478V28.1646H80.8933V12.5648L83.6117 12.5621L83.6103 12.5608ZM76.3897 14.0766V17.1963H79.4214V19.5374H76.3684V24.2836C76.3684 25.3315 76.9483 25.8435 77.7949 25.8435C78.2189 25.8435 78.7095 25.7101 79.1108 25.5088L79.8694 27.8273C79.0908 28.1379 78.4429 28.2726 77.6189 28.2952C75.2338 28.3845 73.674 27.0233 73.674 24.2836V19.5374H71.6235V17.1963H73.674V14.3673L76.3911 14.0766H76.3897ZM68.8785 21.3866C68.7012 19.9601 67.5866 19.2468 66.0268 19.2468C64.5562 19.2468 63.3524 19.9614 62.9511 21.3866H68.8798H68.8785ZM62.9071 23.637C63.0844 24.9969 64.2669 25.9781 66.1827 25.9781C67.1853 25.9781 68.5012 25.5982 69.1251 24.9529L70.8623 26.6687C69.7037 27.8713 67.8092 28.4525 66.1374 28.4525C62.3471 28.4525 60.0967 26.1114 60.0967 22.5918C60.0967 19.0721 62.3711 16.8417 65.9348 16.8417C69.4984 16.8417 71.9062 19.1161 71.4849 23.6383H62.9071V23.637Z" fill="white" fill-opacity="0.7"/>
</g>
<defs>
<clipPath id="clip0_31_692">
<rect width="133.32" height="40" fill="white"/>
</clipPath>
</defs>
</svg>
