<svg width="134" height="40" viewBox="0 0 134 40" fill="none" xmlns="http://www.w3.org/2000/svg">
<g clip-path="url(#clip0_31_637)">
<path d="M19.4368 5.5415C19.6901 5.66016 19.9701 5.66283 20.2367 5.71749C20.9393 5.86014 21.6446 5.98413 22.3485 6.11745C23.0151 6.2401 23.6897 6.35609 24.3589 6.48008C25.1922 6.63339 26.0241 6.79205 26.8574 6.94536C27.524 7.06935 28.1906 7.18534 28.8665 7.30933C29.6997 7.46265 30.5303 7.6213 31.3636 7.77328C32.3142 7.9466 33.2661 8.11058 34.2153 8.2839C35.1645 8.45721 36.1124 8.64386 37.0603 8.81718C38.0682 9.00249 39.0775 9.17981 40.0854 9.36246C40.3707 9.41312 40.6546 9.47978 40.9426 9.51577C41.1719 9.54377 41.2839 9.72509 41.4252 9.85707C42.1198 10.5023 42.7971 11.1636 43.4837 11.8182C44.4898 12.7781 45.4977 13.7367 46.5074 14.6939C46.7287 14.9032 46.7394 14.9032 46.5487 15.1365C45.9595 15.8578 45.3635 16.5737 44.7729 17.2937C44.2543 17.9243 43.7383 18.5602 43.2197 19.1921C42.7011 19.8241 42.1625 20.4707 41.6359 21.1119C41.1093 21.7532 40.6013 22.3785 40.0827 23.0104C39.6654 23.5184 39.2455 24.0237 38.8282 24.5303L37.4656 26.1914C36.9404 26.8332 36.4137 27.4749 35.8858 28.1166L34.3286 30.0097C33.7953 30.6568 33.2652 31.3029 32.7381 31.9482L31.1743 33.8653C31.0609 33.9987 30.945 34.132 30.8156 34.288C30.609 33.768 30.4157 33.2641 30.2077 32.7601C28.8985 29.4627 27.5884 26.167 26.2774 22.8731C24.0101 17.175 21.7437 11.4774 19.4781 5.78015C19.4474 5.70282 19.4274 5.6215 19.4034 5.5415H19.4368ZM35.0885 16.0631C35.14 16.0805 35.1957 16.0805 35.2472 16.0631C35.7311 15.9765 36.2151 15.8871 36.699 15.7965L42.5758 14.7299L44.0556 14.4633C44.0223 14.4259 44.009 14.4073 43.993 14.3926C42.9664 13.418 41.9359 12.4461 40.916 11.4596C40.7826 11.3343 40.7213 11.3396 40.588 11.4502C38.8219 12.9292 37.0523 14.4051 35.2792 15.8778C35.2125 15.9338 35.1245 15.9698 35.0925 16.0618L35.0645 16.0738C35.0645 16.0738 35.0752 16.0831 35.0805 16.0831C35.0859 16.0831 35.1005 16.0765 35.0885 16.0631ZM22.4471 8.99716L22.4138 9.02116L30.753 29.9991C30.8007 29.8245 30.8328 29.646 30.849 29.4658C31.0267 28.0188 31.2045 26.5718 31.3822 25.1249C31.5431 23.7917 31.7035 22.4585 31.8635 21.1253C32.0137 19.8747 32.1666 18.6246 32.3222 17.375C32.3332 17.3178 32.3272 17.2587 32.3049 17.2049C32.2826 17.1511 32.2451 17.105 32.1968 17.0723C29.0505 14.4655 25.9046 11.8578 22.7591 9.24913C22.6565 9.16381 22.5511 9.07982 22.4471 8.99583V8.99716ZM43.8103 16.0738C43.7779 16.0717 43.7454 16.0717 43.713 16.0738L41.2866 16.5137C38.8602 16.9537 36.4333 17.3919 34.006 17.8283C33.8353 17.8589 33.7727 17.9149 33.754 18.0949C33.6394 19.1388 33.51 20.18 33.3834 21.2226C33.2447 22.3834 33.1043 23.545 32.9621 24.7076C32.8252 25.8479 32.6857 26.9896 32.5435 28.1326C32.4675 28.7605 32.3928 29.3885 32.3115 30.0684C36.1631 25.3849 39.9787 20.7373 43.8103 16.0725V16.0738ZM23.5564 7.86794L23.543 7.9106L24.3296 8.56387C27.1818 10.9281 30.033 13.2927 32.8834 15.6578C33.0101 15.7631 33.0727 15.7325 33.1767 15.6458C34.6646 14.4015 36.1542 13.1599 37.6456 11.9209L39.0815 10.721L23.5564 7.86794Z" fill="white" fill-opacity="0.7"/>
<path d="M115.279 28.3911C115.199 28.3911 115.159 28.3258 115.119 28.2805C114.837 27.9525 114.537 27.6405 114.254 27.3139C114.121 27.1526 113.966 26.9979 113.823 26.8406C113.533 26.5193 113.235 26.2047 112.959 25.8727C112.839 25.7274 112.706 25.5901 112.577 25.4501C112.267 25.1155 111.96 24.7835 111.665 24.4315C111.55 24.2982 111.422 24.1649 111.305 24.0316C110.917 23.5903 110.505 23.1663 110.114 22.7317C109.796 22.3824 109.473 22.0344 109.165 21.6731C108.809 21.2545 108.432 20.8546 108.068 20.4413C107.813 20.1533 107.548 19.872 107.291 19.5853C106.903 19.1534 106.513 18.7228 106.129 18.2895C105.883 18.0108 105.628 17.7349 105.377 17.4589C105.087 17.1389 104.791 16.8243 104.514 16.4923C104.38 16.339 104.239 16.1964 104.103 16.047C104.006 15.961 103.922 15.8608 103.855 15.7497C103.825 15.8089 103.815 15.8765 103.828 15.9417C103.828 19.6747 103.828 23.4107 103.828 27.1499C103.828 27.3832 103.828 27.3832 103.587 27.3832C103.179 27.3832 102.77 27.3832 102.36 27.3832C102.239 27.3832 102.215 27.3459 102.215 27.2312C102.215 22.03 102.215 16.8305 102.215 11.6328C102.215 11.5941 102.215 11.5542 102.215 11.4795C102.482 11.7741 102.728 12.0408 102.971 12.3087C103.343 12.722 103.711 13.138 104.083 13.5526C104.81 14.3632 105.538 15.1733 106.267 15.983C106.727 16.495 107.191 17.0029 107.652 17.5149C108.263 18.1948 108.87 18.8788 109.482 19.5587C109.838 19.9586 110.2 20.3453 110.556 20.7412C111.172 21.4252 111.784 22.1131 112.399 22.797C112.799 23.2343 113.199 23.6676 113.63 24.1449V23.8863C113.63 20.1533 113.63 16.4234 113.63 12.6967C113.63 12.5367 113.665 12.4861 113.834 12.4901C114.314 12.5021 114.795 12.4901 115.275 12.4901L115.279 28.3911Z" fill="white" fill-opacity="0.7"/>
<path d="M81.5333 27.3884C80.9546 27.3884 80.3774 27.3884 79.8001 27.3884C79.6934 27.3884 79.6548 27.3338 79.6134 27.2551C79.3841 26.8152 79.153 26.3757 78.9202 25.9366C78.5802 25.2913 78.2416 24.6447 77.8989 23.9995C77.511 23.2662 77.1177 22.5329 76.7364 21.7997C76.7142 21.7431 76.6739 21.6955 76.6218 21.6641C76.5698 21.6328 76.5088 21.6195 76.4484 21.6264C75.3365 21.6335 74.2255 21.6335 73.1154 21.6264C72.9741 21.6264 72.9354 21.6624 72.9354 21.8063C72.9354 23.6022 72.9354 25.398 72.9354 27.1938C72.9354 27.3538 72.8968 27.3924 72.7395 27.3884C72.3195 27.3765 71.8982 27.3805 71.4769 27.3884C71.3703 27.3884 71.3356 27.3658 71.3356 27.2551C71.3356 24.8891 71.3356 22.5227 71.3356 20.1558C71.3356 20.0079 71.4009 20.0105 71.5076 20.0105C73.3101 20.0105 75.1139 20.0105 76.9177 20.0105C77.8256 20.0105 78.5575 19.6346 79.1482 18.984C79.5073 18.5869 79.7394 18.0915 79.8148 17.5614C79.8779 17.1751 79.8638 16.7801 79.7733 16.3993C79.6828 16.0185 79.5176 15.6594 79.2873 15.3428C79.0571 15.0263 78.7663 14.7585 78.4319 14.5551C78.0975 14.3517 77.726 14.2166 77.339 14.1578C77.1455 14.131 76.9503 14.119 76.7551 14.1218C74.5793 14.1218 72.4022 14.1218 70.2224 14.1218C70.0744 14.1218 70.0371 14.1538 70.0371 14.3058C70.0371 18.5818 70.0371 22.8582 70.0371 27.1351C70.0371 27.3951 70.0371 27.3951 69.7704 27.3951C69.3798 27.3951 68.9892 27.3951 68.5985 27.3951C68.4746 27.3951 68.4359 27.3671 68.4372 27.2378C68.4372 26.6072 68.4372 25.9766 68.4372 25.346C68.4372 21.1357 68.4372 16.9251 68.4372 12.7139C68.4372 12.5499 68.4639 12.4953 68.6452 12.4966C71.4103 12.4966 74.1753 12.4966 76.9417 12.5046C77.5797 12.495 78.2121 12.6237 78.7956 12.8819C79.379 13.1401 79.8996 13.5218 80.3214 14.0005C80.9399 14.6691 81.333 15.515 81.4453 16.4189C81.5869 17.4517 81.374 18.502 80.8412 19.3981C80.3084 20.2941 79.4873 20.9829 78.5122 21.3517C78.4056 21.3917 78.3789 21.409 78.4402 21.5197C79.1682 22.8796 79.8925 24.2408 80.6133 25.6033C80.904 26.1526 81.1942 26.7014 81.4839 27.2498C81.5131 27.2905 81.5301 27.3385 81.5333 27.3884Z" fill="white" fill-opacity="0.7"/>
<path d="M91.6522 27.3818C87.55 27.3525 84.6823 24.1181 84.3356 20.8265C84.0997 18.5707 84.7156 16.5602 86.2554 14.8911C87.7953 13.2219 89.7498 12.4326 92.0255 12.5006C93.9864 12.5682 95.8413 13.4072 97.1867 14.8352C98.5322 16.2632 99.2594 18.1647 99.2102 20.1261C99.161 22.0875 98.3394 23.9502 96.924 25.3089C95.5086 26.6677 93.614 27.4127 91.6522 27.3818ZM97.5863 19.9439C97.5657 18.4109 96.9429 16.9475 95.8524 15.8698C94.7619 14.7921 93.2912 14.1867 91.7581 14.1842C90.2249 14.1817 88.7523 14.7825 87.6584 15.8567C86.5645 16.9309 85.937 18.3923 85.9115 19.9252C85.9035 23.1249 88.5246 25.766 91.6949 25.766C92.4648 25.7732 93.2284 25.628 93.9419 25.3388C94.6554 25.0497 95.3047 24.6222 95.8523 24.081C96.3999 23.5399 96.835 22.8957 97.1326 22.1857C97.4302 21.4757 97.5844 20.7138 97.5863 19.9439Z" fill="white" fill-opacity="0.7"/>
<path d="M58.6502 12.4966C60.766 12.4966 62.8805 12.4966 64.9962 12.4966C65.1496 12.4966 65.1829 12.5366 65.1789 12.6833C65.1682 13.1032 65.1722 13.5245 65.1789 13.9445C65.1789 14.0631 65.1589 14.1084 65.0256 14.1084C60.77 14.1084 56.5153 14.1084 52.2615 14.1084C52.1375 14.1084 52.1135 14.0685 52.1149 13.9551C52.1215 13.5352 52.1242 13.1139 52.1149 12.6939C52.1149 12.5433 52.1402 12.4953 52.3055 12.4966C54.42 12.4993 56.5411 12.4966 58.6502 12.4966Z" fill="white" fill-opacity="0.7"/>
<path d="M57.9969 22.1332C57.9969 23.8219 57.9969 25.5106 57.9969 27.1993C57.9969 27.35 57.9622 27.3886 57.8116 27.3846C57.3916 27.374 56.9703 27.3766 56.5491 27.3846C56.4331 27.3846 56.3851 27.3686 56.3851 27.2326C56.3851 23.8445 56.3851 20.4573 56.3851 17.071C56.3851 16.951 56.4184 16.9203 56.5344 16.9217C56.9677 16.9217 57.401 16.931 57.8329 16.9217C57.9782 16.9217 57.9956 16.9683 57.9942 17.0937C57.9942 18.7753 57.9951 20.4551 57.9969 22.1332Z" fill="white" fill-opacity="0.7"/>
<path d="M60.8886 22.1571C60.8886 23.837 60.8886 25.5177 60.8886 27.1993C60.8886 27.3473 60.8566 27.3899 60.7046 27.3859C60.2847 27.3739 59.8634 27.3779 59.4434 27.3859C59.3194 27.3859 59.2821 27.3619 59.2821 27.2313C59.2821 23.845 59.2821 20.4591 59.2821 17.0736C59.2821 16.959 59.3074 16.9203 59.4288 16.923C59.8554 16.923 60.282 16.931 60.7086 16.923C60.8419 16.923 60.8873 16.9536 60.8873 17.0976C60.8855 18.7837 60.8859 20.4702 60.8886 22.1571Z" fill="white" fill-opacity="0.7"/>
<path d="M105.158 19.3174C105.68 19.8973 106.191 20.4666 106.704 21.0319C106.725 21.0562 106.741 21.0846 106.751 21.1153C106.761 21.146 106.764 21.1784 106.761 21.2105C106.761 23.221 106.761 25.2319 106.761 27.2433C106.761 27.3646 106.724 27.3926 106.608 27.3912C106.164 27.3846 105.72 27.3912 105.275 27.3912C105.19 27.3912 105.132 27.3912 105.132 27.2753C105.132 24.6391 105.132 22.0042 105.132 19.3707C105.138 19.3517 105.146 19.3337 105.158 19.3174Z" fill="white" fill-opacity="0.7"/>
<path d="M35.0886 16.063C35.1006 16.0763 35.0966 16.0857 35.0806 16.0883C35.0646 16.091 35.0699 16.0883 35.0646 16.079L35.0926 16.067L35.0886 16.063Z" fill="white" fill-opacity="0.7"/>
<path d="M91.7509 21.0091C91.4723 20.9993 91.2084 20.8817 91.0147 20.6811C90.8211 20.4806 90.7129 20.2127 90.7129 19.9339C90.7129 19.6551 90.8211 19.3872 91.0147 19.1866C91.2084 18.986 91.4723 18.8685 91.7509 18.8586C92.0295 18.8685 92.2935 18.986 92.4871 19.1866C92.6807 19.3872 92.7889 19.6551 92.7889 19.9339C92.7889 20.2127 92.6807 20.4806 92.4871 20.6811C92.2935 20.8817 92.0295 20.9993 91.7509 21.0091Z" fill="white" fill-opacity="0.7"/>
</g>
<defs>
<clipPath id="clip0_31_637">
<rect width="133.32" height="40" fill="white" transform="translate(0.679993)"/>
</clipPath>
</defs>
</svg>
