<svg width="24" height="24" viewBox="0 0 24 24" fill="none" xmlns="http://www.w3.org/2000/svg">
<path d="M12 13C14.2091 13 16 11.2091 16 9C16 6.79086 14.2091 5 12 5C9.79084 5 7.99998 6.79086 7.99998 9C7.99998 11.2091 9.79084 13 12 13Z" fill="white" fill-opacity="0.8"/>
<path d="M6.26197 18C4.84202 20.6701 9.54232 22 12 22C14.4576 22 19.1579 20.6701 17.738 18C16.6702 15.9921 14.5103 14 12 14C9.4896 14 7.32977 15.9921 6.26197 18Z" fill="white" fill-opacity="0.8"/>
<path d="M7.49998 12C7.49998 13.1046 6.60455 14 5.49998 14C4.39541 14 3.49998 13.1046 3.49998 12C3.49998 10.8954 4.39541 10 5.49998 10C6.60455 10 7.49998 10.8954 7.49998 12Z" fill="white" fill-opacity="0.8"/>
<path d="M2.89571 19.4446C2.65017 19.9393 2.05008 20.1413 1.55538 19.8957C1.06068 19.6502 0.858703 19.0501 1.10424 18.5554C1.47163 17.8152 2.0277 17.0721 2.72723 16.5034C3.42702 15.9346 4.32375 15.5 5.34715 15.5C5.89943 15.5 6.34715 15.9477 6.34715 16.5C6.34715 17.0523 5.89943 17.5 5.34715 17.5C4.90617 17.5 4.44075 17.688 3.98878 18.0554C3.53653 18.423 3.15121 18.9298 2.89571 19.4446Z" fill="white" fill-opacity="0.8"/>
<path d="M20.81 12C20.81 13.1046 19.9146 14 18.81 14C17.7055 14 16.81 13.1046 16.81 12C16.81 10.8954 17.7055 10 18.81 10C19.9146 10 20.81 10.8954 20.81 12Z" fill="white" fill-opacity="0.8"/>
<path d="M22.9001 18.5554C23.1457 19.0501 22.9437 19.6502 22.449 19.8957C21.9543 20.1413 21.3542 19.9393 21.1086 19.4446C20.8531 18.9298 20.4678 18.423 20.0156 18.0554C19.5636 17.688 19.0982 17.5 18.6572 17.5C18.1049 17.5 17.6572 17.0523 17.6572 16.5C17.6572 15.9477 18.1049 15.5 18.6572 15.5C19.6806 15.5 20.5773 15.9346 21.2771 16.5034C21.9767 17.0721 22.5327 17.8152 22.9001 18.5554Z" fill="white" fill-opacity="0.8"/>
</svg>
