<svg width="24" height="24" viewBox="0 0 24 24" fill="none" xmlns="http://www.w3.org/2000/svg">
<path fill-rule="evenodd" clip-rule="evenodd" d="M13.8057 2.74766C12.7985 1.77324 11.1999 1.77324 10.1927 2.74766C9.61669 3.30487 8.81579 3.5651 8.02228 3.45286C6.63465 3.25659 5.34141 4.19618 5.09928 5.57654C4.96082 6.3659 4.46583 7.04718 3.7579 7.42279C2.51992 8.07963 2.02595 9.59993 2.64141 10.859C2.99336 11.579 2.99336 12.4211 2.64141 13.1411C2.02595 14.4001 2.51992 15.9204 3.7579 16.5773C4.46583 16.9529 4.96082 17.6342 5.09928 18.4235C5.34141 19.8039 6.63465 20.7435 8.02228 20.5472C8.81579 20.435 9.61669 20.6952 10.1927 21.2524C11.1999 22.2268 12.7985 22.2268 13.8057 21.2524C14.3817 20.6952 15.1826 20.435 15.9761 20.5472C17.3637 20.7435 18.657 19.8039 18.8991 18.4235C19.0376 17.6342 19.5325 16.9529 20.2405 16.5773C21.4785 15.9204 21.9724 14.4001 21.357 13.1411C21.005 12.4211 21.005 11.579 21.357 10.859C21.9724 9.59993 21.4785 8.07963 20.2405 7.42279C19.5325 7.04718 19.0376 6.3659 18.8991 5.57654C18.657 4.19618 17.3637 3.25659 15.9761 3.45286C15.1826 3.5651 14.3817 3.30487 13.8057 2.74766ZM16.7168 9.69649C17.1014 9.30018 17.092 8.66708 16.6957 8.28244C16.2993 7.89779 15.6662 7.90725 15.2816 8.30357L10.1759 13.5642L8.71678 12.0608C8.33214 11.6645 7.69905 11.655 7.30273 12.0397C6.90641 12.4243 6.89695 13.0574 7.28159 13.4537L9.45829 15.6965C9.64661 15.8905 9.90548 16 10.1759 16C10.4463 16 10.7052 15.8905 10.8935 15.6965L16.7168 9.69649Z" fill="white" fill-opacity="0.7"/>
</svg>
