<svg width="17" height="17" viewBox="0 0 17 17" fill="none" xmlns="http://www.w3.org/2000/svg">
<path d="M12.75 14.1666H4.25C3.07639 14.1666 2.125 13.2152 2.125 12.0416V4.40912C2.125 3.53879 2.83054 2.83325 3.70087 2.83325H8.50975C8.84726 2.83325 9.12629 3.35764 9.39551 3.93117H4.25C3.8588 3.93117 3.54167 4.2483 3.54167 4.6395C3.54167 5.0307 3.8588 5.34784 4.25 5.34784H10.2631L10.2708 5.35177H12.7507C13.9243 5.35177 14.875 6.30317 14.875 7.47677V7.79159H13.4583C12.2847 7.79159 11.3333 8.74298 11.3333 9.91659C11.3333 11.0902 12.2847 12.0416 13.4583 12.0416H14.875C14.875 13.2152 13.9236 14.1666 12.75 14.1666Z" fill="white" fill-opacity="0.7"/>
<path d="M14.875 10.6249V9.20825H13.4583C13.0671 9.20825 12.75 9.52538 12.75 9.91659C12.75 10.3078 13.0671 10.6249 13.4583 10.6249H14.875Z" fill="white" fill-opacity="0.7"/>
</svg>
